<svg xmlns="http://www.w3.org/2000/svg" width="11299.5mm" height="11460mm" viewBox="-232.4177 -12051.0 11331.5 11492.0" version="1.1" class="svg-drawing">
    <g transform="scale(1,-1)">
        <a class="svg-link" href="/rooms/03-19-muzykalnaya"><path d="M2068.5823,3610.0002 L4918.5822,3610.0002 L4918.5822,965 L2068.5823,965 Z" style="stroke-width:0.001;" class="svg-area"  data-area="19" /></a>
        <a class="svg-link" href="/rooms/03-21-sanuzel"><path d="M8423.5823,6195 L9753.0823,6195 L9753.0823,4395 L8423.5823,4395 Z" style="stroke-width:0.001;" class="svg-area"  data-area="21"/></a>
        <a class="svg-link" href="/rooms/03-18-studiya"><path d="M3563.5823,9184.5969 L5803.5823,9184.5969 L5803.6847,8480.0002 L5523.5823,8480.0002 L5523.5823,8340.0002 L8283.5823,8340.0002 L8283.5823,3750.0002 L2068.5823,3750.0002 L2068.5823,5955 L2673.5823,5955 L2673.5823,6595 L3423.5823,6595 L3423.5823,5950.0002 L3563.5823,5950.0002 L3563.5823,9184.5969" style="stroke-width:0.001;" class="svg-area"  data-area="18"/></a>
        
        <path d="M2468.5823,2790 L2068.5823,2790 L2068.5823,3610.0002 L2468.5823,3610.0002 Z" style="stroke-width:var(--lw-3);" />
        
        <circle cx="8870.4509" cy="5959.5954" r="192.5431" style="stroke-width:var(--lw-3);" />
        
        <path d="M3563.5823,8340.0002 L5523.5823,8340.0002" style="stroke-width:var(--lw-3);" />
        
        <path d="M5803.6847,9880 L6183.5823,9880 L6183.5823,8340 L5803.6847,8340 Z" style="stroke-width:var(--lw-6);" />
        
        <path d="M5923.5823,9760 L6063.5823,9760 L6063.5823,8460 L5923.5823,8460 Z" style="stroke-width:var(--lw-6);" />
        
        <path d="M1383.5823,6335 L2673.5823,6335 L2673.5823,5955 L1383.5823,5955 Z" style="stroke-width:var(--lw-6);" />
        
        <path d="M1503.5823,6215 L2553.5823,6215 L2553.5823,6075 L1503.5823,6075 Z" style="stroke-width:var(--lw-6);" />
        
        <path d="M8088.5823,3575 L8468.5823,3575 L8468.5823,2145 L8088.5823,2145 Z" style="stroke-width:var(--lw-6);" />
        
        <path d="M8208.5823,3455 L8348.5823,3455 L8348.5823,2265 L8208.5823,2265 Z" style="stroke-width:var(--lw-6);" />
        
        <path d="M-216.4177,10515 L5623.5823,10515 L5623.5823,12035 L11083.0823,12035 L11083.0823,1575 L6248.5823,1575 L6248.5823,575 L738.5823,575 L738.5823,5745 L-216.4177,5745 Z" style="stroke-width:var(--lw-6);" />
        
        <path d="M163.5823,10085 L6053.5824,10085 L6053.5823,11645" style="stroke-width:var(--lw-6);" />
        
        <path d="M10653.0823,11645 L10653.0823,2005 L5818.5823,2005 L5818.5823,965" style="stroke-width:var(--lw-6);" />
        
        <path d="M6053.5823,11645 L10653.0823,11645" style="stroke-width:var(--lw-6);" />
        
        <path d="M163.5823,6175 L1168.5822,6175 L1168.5823,965" style="stroke-width:var(--lw-6);" />
        
        <path d="M163.5823,6175 L163.5823,10085" style="stroke-width:var(--lw-6);" />
        
        <path d="M1168.5823,965 L5818.5823,965" style="stroke-width:var(--lw-6);" />
        
        <line x1="8423.5823" y1="7440" x2="8623.5823" y2="7440" style="stroke-width:var(--lw-1);" />
        
        <line x1="8623.5823" y1="8340" x2="8623.5823" y2="7440" style="stroke-width:var(--lw-1);" />
        
        <line x1="8623.5823" y1="7440" x2="8823.5823" y2="7440" style="stroke-width:var(--lw-1);" />
        
        <line x1="8823.5823" y1="8340" x2="8823.5823" y2="7440" style="stroke-width:var(--lw-1);" />
        
        <line x1="8823.5823" y1="7440" x2="9023.5823" y2="7440" style="stroke-width:var(--lw-1);" />
        
        <line x1="9023.5823" y1="8340" x2="9023.5823" y2="7440" style="stroke-width:var(--lw-1);" />
        
        <line x1="9023.5823" y1="7440" x2="9223.5823" y2="7440" style="stroke-width:var(--lw-1);" />
        
        <line x1="9223.5823" y1="8340" x2="9223.5823" y2="7440" style="stroke-width:var(--lw-1);" />
        
        <line x1="9223.5823" y1="7440" x2="9423.5823" y2="7440" style="stroke-width:var(--lw-1);" />
        
        <line x1="9423.5823" y1="8340" x2="9423.5823" y2="7440" style="stroke-width:var(--lw-1);" />
        
        <line x1="9423.5823" y1="7440" x2="9623.5823" y2="7440" style="stroke-width:var(--lw-1);" />
        
        <line x1="9623.5823" y1="7440" x2="9624.9084" y2="7440" style="stroke-width:var(--lw-1);" />
        
        <line x1="9624.9084" y1="7440" x2="9624.9084" y2="7230" style="stroke-width:var(--lw-1);" />
        
        <line x1="9624.9084" y1="8340" x2="9624.9084" y2="7440" style="stroke-width:var(--lw-1);" />
        
        <line x1="9624.9084" y1="6335" x2="9624.9084" y2="7230" style="stroke-width:var(--lw-1);" />
        
        <line x1="9624.9084" y1="7230" x2="9424.9084" y2="7230" style="stroke-width:var(--lw-1);" />
        
        <line x1="9424.9084" y1="6335" x2="9424.9084" y2="7230" style="stroke-width:var(--lw-1);" />
        
        <line x1="9424.9084" y1="7230" x2="9224.9084" y2="7230" style="stroke-width:var(--lw-1);" />
        
        <line x1="9224.9084" y1="6335" x2="9224.9084" y2="7230" style="stroke-width:var(--lw-1);" />
        
        <line x1="9224.9084" y1="7230" x2="9024.9084" y2="7230" style="stroke-width:var(--lw-1);" />
        
        <line x1="9024.9084" y1="6335" x2="9024.9084" y2="7230" style="stroke-width:var(--lw-1);" />
        
        <line x1="9024.9084" y1="7230" x2="8824.9084" y2="7230" style="stroke-width:var(--lw-1);" />
        
        <line x1="8824.9084" y1="6335" x2="8824.9084" y2="7230" style="stroke-width:var(--lw-1);" />
        
        <line x1="8824.9084" y1="7230" x2="8624.9084" y2="7230" style="stroke-width:var(--lw-1);" />
        
        <line x1="8624.9084" y1="6335" x2="8624.9084" y2="7230" style="stroke-width:var(--lw-1);" />
        
        <line x1="8624.9084" y1="7230" x2="8424.9084" y2="7230" style="stroke-width:var(--lw-1);" />
        
        <path d="M3423.5823,6090.0002 L3423.5823,6595" style="stroke-width:var(--lw-5);" />
        
        <path d="M3423.5823,6695 L3423.5823,6886" style="stroke-width:var(--lw-5);" />
        
        <path d="M3423.5823,7686 L3423.5823,10085" style="stroke-width:var(--lw-5);" />
        
        <path d="M3563.5823,6090.0002 L3563.5823,6886" style="stroke-width:var(--lw-5);" />
        
        <path d="M3563.5823,7686 L3563.5823,10085" style="stroke-width:var(--lw-5);" />
        
        <path d="M3423.5823,6886 L3563.5823,6886" style="stroke-width:var(--lw-5);" />
        
        <path d="M10653.0823,8340 L8423.5823,8340" style="stroke-width:var(--lw-5);" />
        
        <path d="M10653.0823,8480 L8283.5823,8480" style="stroke-width:var(--lw-5);" />
        
        <path d="M8423.5823,6335 L8423.5823,8340" style="stroke-width:var(--lw-5);" />
        
        <path d="M10653.0823,6335 L8283.5823,6335" style="stroke-width:var(--lw-5);" />
        
        <path d="M10653.0823,6195 L9853.0823,6195" style="stroke-width:var(--lw-5);" />
        
        <path d="M9753.0823,6195 L8423.5823,6195" style="stroke-width:var(--lw-5);" />
        
        <path d="M8423.5823,6195 L8423.5823,5695" style="stroke-width:var(--lw-5);" />
        
        <path d="M8423.5823,4895 L8423.5823,3575" style="stroke-width:var(--lw-5);" />
        
        <path d="M8283.5823,4895 L8283.5823,3610.0002" style="stroke-width:var(--lw-5);" />
        
        <path d="M8283.5823,4895 L8423.5823,4895" style="stroke-width:var(--lw-5);" />
        
        <path d="M8283.5823,5695 L8423.5823,5695" style="stroke-width:var(--lw-5);" />
        
        <path d="M8283.5823,5695 L8423.5823,5695" style="stroke-width:var(--lw-5);" />
        
        <path d="M8423.5823,4395 L9753.0823,4395 L9753.0823,6195" style="stroke-width:var(--lw-5);" />
        
        <path d="M8423.5823,4295 L9853.0823,4295 L9853.0823,6195" style="stroke-width:var(--lw-5);" />
        
        <path d="M10553.0823,8340 L10553.0823,6335" style="stroke-width:var(--lw-5);" />
        
        <path d="M3563.5823,9184.5969 L5803.5823,9184.5969" style="stroke-width:var(--lw-5);" />
        
        <path d="M3563.5823,9284.5969 L5803.5823,9284.5969" style="stroke-width:var(--lw-5);" />
        
        <path d="M6183.5823,9184.5969 L6939.2936,9184.5969" style="stroke-width:var(--lw-5);" />
        
        <path d="M6183.5823,9284.5969 L6839.2936,9284.5969" style="stroke-width:var(--lw-5);" />
        
        <path d="M6939.2936,9184.5969 L6939.2937,11645" style="stroke-width:var(--lw-5);" />
        
        <path d="M6839.2936,9284.5969 L6839.2937,11645" style="stroke-width:var(--lw-5);" />
        
        <path d="M9753.0823,8480 L9753.0823,11645" style="stroke-width:var(--lw-5);" />
        
        <path d="M9853.0823,8480 L9853.0823,11645" style="stroke-width:var(--lw-5);" />
        
        <path d="M8423.5823,7890 L10101.2285,7890" style="stroke-width:var(--lw-1);" />
        
        <path d="M8423.5823,6780 L10101.2285,6780" style="stroke-width:var(--lw-1);" />
        
        <path d="M10101.2285,7890 L10101.2285,6780" style="stroke-width:var(--lw-1);" />
        
        <path d="M8423.5823,6780 L8673.5823,6687.0806" style="stroke-width:var(--lw-1);" />
        
        <path d="M8423.5823,6780 L8673.5823,6872.9194" style="stroke-width:var(--lw-1);" />
        
        <path d="M2068.5823,965 L2068.5823,5955" style="stroke-width:var(--lw-5);" />
        
        <path d="M1968.5823,965 L1968.5823,5955" style="stroke-width:var(--lw-5);" />
        
        <path d="M4918.5822,965 L4918.5821,2905.0002" style="stroke-width:var(--lw-5);" />
        
        <path d="M5018.5822,965 L5018.5821,2805.0002" style="stroke-width:var(--lw-5);" />
        
        <path d="M5018.5821,2905.0002 L5018.5821,2905.0002 Z" style="stroke-width:var(--lw-5);" />
        
        <path d="M5058.5821,2905.0002 L5058.5821,2905.0002 Z" style="stroke-width:var(--lw-5);" />
        
        <path d="M4918.5821,2905.0002 L8088.5823,2905.0002" style="stroke-width:var(--lw-5);" />
        
        <path d="M5018.5821,2805.0002 L8088.5823,2805.0002" style="stroke-width:var(--lw-5);" />
        
        <path d="M3423.5823,6695 L163.5823,6695" style="stroke-width:var(--lw-5);" />
        
        <path d="M3423.5823,6595 L2673.5823,6595" style="stroke-width:var(--lw-5);" />
        
        <path d="M2573.5823,6595 L163.5823,6595" style="stroke-width:var(--lw-5);" />
        
        <path d="M8395.4573,7230 L8395.4573,8340.0002" style="stroke-width:var(--lw-5);" />
        
        <path d="M8283.5823,7230 L8283.5823,8340" style="stroke-width:var(--lw-5);" />
        
        <path d="M3423.5823,8480.0002 L3563.5823,8480.0002 L3563.5823,8340.0002 L3423.5823,8340.0002 Z" style="stroke-width:var(--lw-6);" />
        
        <path d="M8283.5823,8480.0002 L8423.5823,8480.0002 L8423.5823,8340.0002 L8283.5823,8340.0002 Z" style="stroke-width:var(--lw-6);" />
        
        <path d="M163.5823,8195 L303.5823,8195 L303.5823,8055 L163.5823,8055 Z" style="stroke-width:var(--lw-6);" />
        
        <path d="M8283.5823,3750.0002 L8423.5823,3750.0002 L8423.5823,3610.0002 L8283.5823,3610.0002 Z" style="stroke-width:var(--lw-6);" />
        
        <path d="M3423.5823,3750.0002 L3563.5823,3750.0002 L3563.5823,3610.0002 L3423.5823,3610.0002 Z" style="stroke-width:var(--lw-6);" />
        
        <path d="M5043.5823,3750.0002 L5183.5823,3750.0002 L5183.5823,3610.0002 L5043.5823,3610.0002 Z" style="stroke-width:var(--lw-6);" />
        
        <path d="M6663.5823,3750.0002 L6803.5823,3750.0002 L6803.5823,3610.0002 L6663.5823,3610.0002 Z" style="stroke-width:var(--lw-6);" />
        
        <path d="M8283.5823,11645 L8423.5823,11645 L8423.5823,11505 L8283.5823,11505 Z" style="stroke-width:var(--lw-6);" />
        
        <path d="M8283.5823,6335 L8423.5823,6335 L8423.5823,6195 L8283.5823,6195 Z" style="stroke-width:var(--lw-6);" />
        
        <path d="M3563.5823,3750.0002 L8283.5823,3750.0002" style="stroke-width:var(--lw-5);" />
        
        <path d="M3563.5823,3610.0002 L8283.5823,3610.0002" style="stroke-width:var(--lw-5);" />
        
        <path d="M8088.5823,3575 L8088.5823,3610.0002" style="stroke-width:var(--lw-5);" />
        
        <path d="M3423.5823,1110.0002 L3563.5823,1110.0002 L3563.5823,970.0002 L3423.5823,970.0002 Z" style="stroke-width:var(--lw-6);" />
        
        <path d="M3423.5823,6090.0002 L3563.5823,6090.0002 L3563.5823,5950.0002 L3423.5823,5950.0002 Z" style="stroke-width:var(--lw-6);" />
        
        <path d="M3423.5823,7826 L3563.5823,7826 L3563.5823,7686 L3423.5823,7686 Z" style="stroke-width:var(--lw-6);" />
        
        <path d="M2673.5823,6335 L2673.5823,6595" style="stroke-width:var(--lw-5);" />
        
        <path d="M2573.5823,6335 L2573.5823,6595" style="stroke-width:var(--lw-5);" />
        
        <path d="M8283.5823,4395 L8423.5823,4395 L8423.5823,4255 L8283.5823,4255 Z" style="stroke-width:var(--lw-6);" />
        
        <path d="M4918.5821,3610.0002 L4918.5821,2905.0002" style="stroke-width:var(--lw-5);" />
        
        <path d="M5018.5821,3610.0002 L5018.5821,2905.0002" style="stroke-width:var(--lw-5);" />
        
        <path d="M163.5823,9184.5969 L3423.5823,9184.5969" style="stroke-width:var(--lw-5);" />
        
        <path d="M163.5823,9284.5969 L3423.5823,9284.5969" style="stroke-width:var(--lw-5);" />
        
        <path d="M6323.5823,8390.0002 L8283.5823,8390" style="stroke-width:var(--lw-1);" />
        
        <path d="M8283.5823,8440 L7253.5823,8440 L7253.5823,8390.0001 L8283.5823,8390.0001 Z" style="stroke-width:var(--lw-1);" />
        
        <path d="M7353.5823,8390.0001 L6323.5823,8390.0001 L6323.5823,8340.0002 L7353.5823,8340.0002 Z" style="stroke-width:var(--lw-1);" />
        
        <path d="M5923.5823,3750.0002 L6663.5823,3750.0002 L6663.5823,3720.9575 L5923.5823,3720.9575 Z" style="stroke-width:var(--lw-1);" />
        
        <path d="M5183.5823,3720.9575 L5923.5823,3720.9575 L5923.5823,3691.9148 L5183.5823,3691.9148 Z" style="stroke-width:var(--lw-1);" />
        
        <path d="M7543.5823,3750.0002 L6803.5823,3750.0002 L6803.5823,3720.9575 L7543.5823,3720.9575 Z" style="stroke-width:var(--lw-1);" />
        
        <path d="M8283.5823,3720.9575 L7543.5823,3720.9575 L7543.5823,3691.9148 L8283.5823,3691.9148 Z" style="stroke-width:var(--lw-1);" />
        
        <path d="M2623.5823,3750.0002 L2068.5823,3750.0002" style="stroke-width:var(--lw-5);" />
        
        <path d="M5663.6847,8480.0002 L5803.6847,8480.0002 L5803.6847,8340.0002 L5663.6847,8340.0002 Z" style="stroke-width:var(--lw-6);" />
        
        <path d="M6183.5823,8480.0002 L6323.5823,8480.0002 L6323.5823,8340.0002 L6183.5823,8340.0002 Z" style="stroke-width:var(--lw-6);" />
        
        <path d="M3423.5823,8195 L3563.5823,8195 L3563.5823,8055 L3423.5823,8055 Z" style="stroke-width:var(--lw-6);" />
        
        <path d="M8283.5823,5695 L8283.5823,6195" style="stroke-width:var(--lw-5);" />
        
        <path d="M8283.5823,7230 L8395.4573,7230" style="stroke-width:var(--lw-5);" />
        
        <path d="M8365.0132,7230 L8365.0132,7008.7747 L8314.0264,7008.7747 L8314.0264,7230" style="stroke-width:var(--lw-1);" />
        
        <path d="M5663.5823,8480.0002 L5523.5823,8480.0002 L5523.5823,8340.0002 L5663.5823,8340.0002 Z" style="stroke-width:var(--lw-5);" />
        
        <path d="M2068.5823,3750.0002 L2623.5823,3750.0002 L2623.5823,3610.0002 L2068.5823,3610.0002" style="stroke-width:var(--lw-5);" />
        
        <path d="M6823.5823,6093.3342 L6823.5823,5293.3342 L5023.5823,5293.3342 L5023.5823,6093.3342 Z" style="stroke-width:var(--lw-3);" />
        
        <path d="M8423.5823,5745 L9753.0823,5745" style="stroke-width:var(--lw-3);" />
        
        <path d="M2068.5823,1650 L4318.5822,1650" style="stroke-width:var(--lw-3);" />
        
        <line x1="3718.5823" y1="1747.2693" x2="3268.5823" y2="1747.2693" style="stroke-width:var(--lw-3);" />
        
        <line x1="3268.5823" y1="1747.2693" x2="3268.5823" y2="1922.2693" style="stroke-width:var(--lw-3);" />
        
        <path d="M3268.5823,1922.2693 A225,225 339.3738 0 0 3718.5823,1922.2693" style="stroke-width:var(--lw-3);" />
        
        <line x1="3718.5823" y1="1922.2693" x2="3718.5823" y2="1747.2693" style="stroke-width:var(--lw-3);" />
        
        <path d="M3218.5823,1922.2693 A275,275 249.3738 0 0 3768.5823,1922.2693" style="stroke-width:var(--lw-3);" />
        
        <circle cx="761.6768" cy="7534.2968" r="446.6695" style="stroke-width:var(--lw-3);" />
        
        <text x="0" dx="0" y="0" dy="200" font-size="var(--dxf-big-font)" line-height="1.1" fill="var(--text-color)" transform="translate(8389.5426,10015.8969) translate(0,100) scale(1,-1)" text-anchor="middle">20</text>
        
        <text x="0" dx="0" y="0" dy="200" font-size="var(--dxf-big-font)" line-height="1.1" fill="var(--text-color)" transform="translate(2683.7466,2203.9751) translate(0,100) scale(1,-1)" text-anchor="middle">19</text>
        
        <text x="0" dx="0" y="0" dy="200" font-size="var(--dxf-big-font)" line-height="1.1" fill="var(--text-color)" transform="translate(8875.0645,5289.9084) translate(0,100) scale(1,-1)" text-anchor="middle">21</text>
        
        <text x="0" dx="0" y="0" dy="200" font-size="var(--dxf-big-font)" line-height="1.1" fill="var(--text-color)" transform="translate(6743.4386,3239.9775) translate(0,100) scale(1,-1)" text-anchor="middle">22</text>
        
        <path d="M4318.5822,1650 L4318.5822,3610.0002" style="stroke-width:var(--lw-3);" />
        
        <g>
            
            <line x1="5023.5823" y1="4650.0002" x2="5023.5823" y2="3750.0002" style="stroke-width:var(--lw-3);" />
            
            <line x1="5923.5823" y1="4650.0002" x2="5923.5823" y2="3750.0002" style="stroke-width:var(--lw-3);" />
            
            <line x1="4123.5823" y1="4650.0002" x2="5023.5823" y2="4650.0002" style="stroke-width:var(--lw-3);" />
            
            <line x1="5023.5823" y1="3750.0002" x2="4123.5823" y2="3750.0002" style="stroke-width:var(--lw-3);" />
            
            <line x1="4123.5823" y1="3750.0002" x2="4123.5823" y2="4650.0002" style="stroke-width:var(--lw-3);" />
            
            <line x1="4273.5823" y1="4650.0002" x2="4273.5823" y2="3900.0002" style="stroke-width:var(--lw-3);" />
            
            <line x1="4273.5823" y1="3900.0002" x2="5023.5823" y2="3900.0002" style="stroke-width:var(--lw-3);" />
            
            <path d="M5023.5823,4650.0002 L5923.5823,4650.0002" style="stroke-width:var(--lw-3);" />
            
            <path d="M5023.5823,3900.0002 L5923.5823,3900.0002" style="stroke-width:var(--lw-3);" />
            
            <path d="M5023.5823,3750.0002 L5923.5823,3750.0002" style="stroke-width:var(--lw-3);" />
            
            <line x1="7723.5823" y1="4650.0002" x2="6823.5823" y2="4650.0002" style="stroke-width:var(--lw-3);" />
            
            <line x1="6823.5823" y1="4650.0002" x2="6823.5823" y2="3750.0002" style="stroke-width:var(--lw-3);" />
            
            <line x1="6823.5823" y1="3750.0002" x2="7723.5823" y2="3750.0002" style="stroke-width:var(--lw-3);" />
            
            <line x1="7723.5823" y1="3750.0002" x2="7723.5823" y2="4650.0002" style="stroke-width:var(--lw-3);" />
            
            <line x1="7573.5823" y1="4650.0002" x2="7573.5823" y2="3900.0002" style="stroke-width:var(--lw-3);" />
            
            <line x1="7573.5823" y1="3900.0002" x2="6823.5823" y2="3900.0002" style="stroke-width:var(--lw-3);" />
            
            <path d="M5923.5823,4650.0002 L6823.5823,4650.0002" style="stroke-width:var(--lw-3);" />
            
            <path d="M5923.5823,3900.0002 L6823.5823,3900.0002" style="stroke-width:var(--lw-3);" />
            
            <path d="M5923.5823,3750.0002 L6823.5823,3750.0002" style="stroke-width:var(--lw-3);" />
        </g>
        
        <path d="M2673.5823,5955 L3423.5823,5955" style="stroke-width:var(--lw-3);" />
        
        <path d="M2068.5823,5355 L2668.5823,5355" style="stroke-width:var(--lw-3);" />
        
        <path d="M2673.5823,6595 L3423.5823,5955" style="stroke-width:var(--lw-3);" />
        
        <path d="M3423.5823,6595 L2673.5823,5955" style="stroke-width:var(--lw-3);" />
        
        <path d="M7723.5823,3750.0002 L8283.5823,3750.0002 L8283.5823,4255 L7723.5823,4255 Z" style="stroke-width:var(--lw-3);" />
        
        <path d="M3563.5823,3750.0002 L4123.5823,3750.0002 L4123.5823,4255 L3563.5823,4255 Z" style="stroke-width:var(--lw-3);" />
        
        <text x="0" dx="0" y="0" dy="200" font-size="var(--dxf-big-font)" line-height="1.1" fill="var(--text-color)" transform="translate(2096.0918,7680.3) translate(0,100) scale(1,-1)" text-anchor="middle">20</text>
        
        <line x1="4325.8982" y1="8240.0002" x2="4775.8982" y2="8240.0002" style="stroke-width:var(--lw-3);" />
        
        <line x1="4775.8982" y1="8240.0002" x2="4775.8982" y2="8065.0002" style="stroke-width:var(--lw-3);" />
        
        <path d="M4775.8982,8065.0002 A225,225 159.3738 0 0 4325.8982,8065.0002" style="stroke-width:var(--lw-3);" />
        
        <line x1="4325.8982" y1="8065.0002" x2="4325.8982" y2="8240.0002" style="stroke-width:var(--lw-3);" />
        
        <path d="M4825.8982,8065.0002 A275,275 69.3738 0 0 4275.8982,8065.0002" style="stroke-width:var(--lw-3);" />
        
        <path d="M2668.5823,5955 L2668.5823,5355" style="stroke-width:var(--lw-3);" />
        
        <path d="M2068.5823,5955 L2668.5823,5355" style="stroke-width:var(--lw-3);" />
        
        <path d="M2668.5823,5955 L2068.5823,5355" style="stroke-width:var(--lw-3);" />
        
        <path d="M6939.2936,9184.5969 L6939.2936,8480" style="stroke-width:var(--lw-3);" />
        
        <path d="M6939.2936,8480 L6183.5823,8480" style="stroke-width:var(--lw-3);" />
        
        <path d="M6939.2936,8480 L6183.5823,9184.5969" style="stroke-width:var(--lw-3);" />
        
        <path d="M6939.2936,9184.5969 L6183.5823,8480" style="stroke-width:var(--lw-3);" />
        
        <path d="M5523.5823,8480.0002 L5523.5823,9184.5969" style="stroke-width:var(--lw-3);" />
        
        <path d="M5523.5823,9184.5969 L5803.6847,8480.0002" style="stroke-width:var(--lw-3);" />
        
        <path d="M5803.6847,9184.5969 L5523.5823,8480.0002" style="stroke-width:var(--lw-3);" />
        
        <path d="M2668.5823,5355 L2668.5823,4755" style="stroke-width:var(--lw-3);" />
        
        <path d="M2068.5823,5355 L2668.5823,4755" style="stroke-width:var(--lw-3);" />
        
        <path d="M2668.5823,5355 L2068.5823,4755" style="stroke-width:var(--lw-3);" />
        
        <path d="M2068.5823,4755 L2668.5823,4755" style="stroke-width:var(--lw-3);" />
        
        <circle cx="1571.1291" cy="8461.8274" r="446.6695" style="stroke-width:var(--lw-3);" />
        
        <text x="0" dx="0" y="0" dy="200" font-size="var(--dxf-big-font)" line-height="1.1" fill="var(--text-color)" transform="translate(5958.8732,6501.8914) translate(0,100) scale(1,-1)" text-anchor="middle">18</text>
        
        <path d="M9052.9509,4692.3918 L9052.9509,4394.8918 L8687.9509,4394.8918 L8687.9509,4692.3918 A182.5,182.5 0 0 0 9052.9509,4692.3918" style="stroke-width:var(--lw-3);" />
        
        <path d="M8283.5823,4895 L8383.5823,4895 L8383.5823,4945 L8283.5823,4945 Z" style="stroke-width:var(--lw-1);" />
        
        <path d="M8283.5823,5645 L8383.5823,5645 L8383.5823,5695 L8283.5823,5695 Z" style="stroke-width:var(--lw-1);" />
        
        <path d="M8283.5823,4945 L7583.5823,4945" style="stroke-width:var(--lw-1);" />
        
        <path d="M8283.5839,5645 A700,700 0 0,1 7583.5823,4945" style="stroke-width:var(--lw-1);" />
        
        <path d="M3563.5823,7686 L3463.5823,7686 L3463.5823,7636 L3563.5823,7636 Z" style="stroke-width:var(--lw-1);" />
        
        <path d="M3563.5823,6936 L3463.5823,6936 L3463.5823,6886 L3563.5823,6886 Z" style="stroke-width:var(--lw-1);" />
        
        <path d="M3563.5823,7636 L4263.5823,7636" style="stroke-width:var(--lw-1);" />
        
        <path d="M3563.5807,6936 A700,700 0 0,1 4263.5823,7636" style="stroke-width:var(--lw-1);" />
        
        <path d="M3423.5823,3610.0002 L3423.5823,3710.0002 L3373.5823,3710.0002 L3373.5823,3610.0002 Z" style="stroke-width:var(--lw-1);" />
        
        <path d="M2673.5823,3610.0002 L2673.5823,3710.0002 L2623.5823,3710.0002 L2623.5823,3610.0002 Z" style="stroke-width:var(--lw-1);" />
        
        <path d="M3373.5823,3610.0002 L3373.5823,2910.0002" style="stroke-width:var(--lw-1);" />
        
        <path d="M2673.5823,3610.0018 A700,700 0 0,1 3373.5823,2910.0002" style="stroke-width:var(--lw-1);" />
        
        <path d="M2468.5823,2790 L2068.5823,3610.0002" style="stroke-width:var(--lw-3);" />
        
        <path d="M2468.5823,3610.0002 L2068.5823,2790" style="stroke-width:var(--lw-3);" />
    </g>
</svg>