<svg xmlns="http://www.w3.org/2000/svg" width="12024.5mm" height="15038.365mm" viewBox="-16.0001 -15054.365 12056.5 15070.365" version="1.1" class="svg-drawing">
    <g transform="scale(1,-1)">
        
        <a class="svg-link" href="/rooms/03-19-muzykalnaya"><path d="M3010,3773.3652 L5859.9998,3773.3652 L5859.9998,1128.3651 L3010,1128.3651 Z" style="stroke-width:0.001;" class="svg-area" data-area="19"/></a>
        
        
        <a class="svg-link" href="/rooms/03-21-sanuzel"><path d="M9364.9999,6358.3651 L10694.4999,6358.3651 L10694.4999,4558.3651 L9364.9999,4558.3651 Z" style="stroke-width:0.001;" class="svg-area" data-area="21"/></a>
        
        
        <a class="svg-link" href="/rooms/03-18-studiya"><path d="M4504.9999,9347.962 L6744.9999,9347.962 L6745.1024,8643.3652 L6464.9999,8643.3652 L6464.9999,8503.3652 L9224.9999,8503.3652 L9224.9999,3913.3652 L3010,3913.3652 L3010,6118.3651 L3614.9999,6118.3651 L3614.9999,6758.3651 L4364.9999,6758.3651 L4364.9999,6113.3652 L4504.9999,6113.3652 L4504.9999,9347.962" style="stroke-width:0.001;" class="svg-area" data-area="18"/></a>

        
        <path d="M3410,2953.3651 L3010,2953.3651 L3010,3773.3652 L3410,3773.3652 Z" style="stroke-width:var(--lw-3);" />
        
        <circle cx="9811.8685" cy="6122.9605" r="192.5431" style="stroke-width:var(--lw-3);" />
        
        <path d="M4504.9999,8503.3652 L6464.9999,8503.3652" style="stroke-width:var(--lw-3);" />
        
        <path d="M6745.1024,10043.3651 L7124.9999,10043.3651 L7124.9999,8503.3651 L6745.1024,8503.3651 Z" style="stroke-width:var(--lw-6);" />
        
        <path d="M6864.9999,9923.3651 L7004.9999,9923.3651 L7004.9999,8623.3651 L6864.9999,8623.3651 Z" style="stroke-width:var(--lw-6);" />
        
        <path d="M2324.9999,6498.3651 L3614.9999,6498.3651 L3614.9999,6118.3651 L2324.9999,6118.3651 Z" style="stroke-width:var(--lw-6);" />
        
        <path d="M2444.9999,6378.3651 L3494.9999,6378.3651 L3494.9999,6238.3651 L2444.9999,6238.3651 Z" style="stroke-width:var(--lw-6);" />
        
        <path d="M9029.9999,3738.3651 L9409.9999,3738.3651 L9409.9999,2308.3651 L9029.9999,2308.3651 Z" style="stroke-width:var(--lw-6);" />
        
        <path d="M9149.9999,3618.3651 L9289.9999,3618.3651 L9289.9999,2428.3651 L9149.9999,2428.3651 Z" style="stroke-width:var(--lw-6);" />
        
        <path d="M724.9999,10678.3651 L6564.9999,10678.3651 L6564.9999,12198.3651 L12024.4999,12198.3651 L12024.4999,1738.3651 L7189.9999,1738.3651 L7189.9999,738.3651 L1679.9999,738.3651 L1679.9999,5908.3651 L724.9999,5908.3651 Z" style="stroke-width:var(--lw-6);" />
        
        <path d="M1104.9999,10248.3651 L6995.0001,10248.3651 L6995,11808.3651" style="stroke-width:var(--lw-6);" />
        
        <path d="M11594.4999,11808.3651 L11594.4999,2168.3651 L6760,2168.365 L6760,1128.3651" style="stroke-width:var(--lw-6);" />
        
        <path d="M6994.9999,11808.3651 L11594.4999,11808.3651" style="stroke-width:var(--lw-6);" />
        
        <path d="M1104.9999,6338.3651 L2109.9999,6338.3651 L2109.9999,1128.3651" style="stroke-width:var(--lw-6);" />
        
        <path d="M1104.9999,6338.3651 L1104.9999,10248.3651" style="stroke-width:var(--lw-6);" />
        
        <path d="M2109.9999,1128.3651 L6760,1128.3651" style="stroke-width:var(--lw-6);" />
        
        <line x1="9364.9999" y1="7603.3651" x2="9564.9999" y2="7603.3651" style="stroke-width:var(--lw-1);" />
        
        <line x1="9564.9999" y1="8503.3651" x2="9564.9999" y2="7603.3651" style="stroke-width:var(--lw-1);" />
        
        <line x1="9564.9999" y1="7603.3651" x2="9764.9999" y2="7603.3651" style="stroke-width:var(--lw-1);" />
        
        <line x1="9764.9999" y1="8503.3651" x2="9764.9999" y2="7603.3651" style="stroke-width:var(--lw-1);" />
        
        <line x1="9764.9999" y1="7603.3651" x2="9964.9999" y2="7603.3651" style="stroke-width:var(--lw-1);" />
        
        <line x1="9964.9999" y1="8503.3651" x2="9964.9999" y2="7603.3651" style="stroke-width:var(--lw-1);" />
        
        <line x1="9964.9999" y1="7603.3651" x2="10164.9999" y2="7603.3651" style="stroke-width:var(--lw-1);" />
        
        <line x1="10164.9999" y1="8503.3651" x2="10164.9999" y2="7603.3651" style="stroke-width:var(--lw-1);" />
        
        <line x1="10164.9999" y1="7603.3651" x2="10364.9999" y2="7603.3651" style="stroke-width:var(--lw-1);" />
        
        <line x1="10364.9999" y1="8503.3651" x2="10364.9999" y2="7603.3651" style="stroke-width:var(--lw-1);" />
        
        <line x1="10364.9999" y1="7603.3651" x2="10564.9999" y2="7603.3651" style="stroke-width:var(--lw-1);" />
        
        <line x1="10564.9999" y1="7603.3651" x2="10566.326" y2="7603.3651" style="stroke-width:var(--lw-1);" />
        
        <line x1="10566.326" y1="7603.3651" x2="10566.326" y2="7393.3651" style="stroke-width:var(--lw-1);" />
        
        <line x1="10566.326" y1="8503.3651" x2="10566.326" y2="7603.3651" style="stroke-width:var(--lw-1);" />
        
        <line x1="10566.326" y1="6498.3651" x2="10566.326" y2="7393.3651" style="stroke-width:var(--lw-1);" />
        
        <line x1="10566.326" y1="7393.3651" x2="10366.326" y2="7393.3651" style="stroke-width:var(--lw-1);" />
        
        <line x1="10366.326" y1="6498.3651" x2="10366.326" y2="7393.3651" style="stroke-width:var(--lw-1);" />
        
        <line x1="10366.326" y1="7393.3651" x2="10166.326" y2="7393.3651" style="stroke-width:var(--lw-1);" />
        
        <line x1="10166.326" y1="6498.3651" x2="10166.326" y2="7393.3651" style="stroke-width:var(--lw-1);" />
        
        <line x1="10166.326" y1="7393.3651" x2="9966.326" y2="7393.3651" style="stroke-width:var(--lw-1);" />
        
        <line x1="9966.326" y1="6498.3651" x2="9966.326" y2="7393.3651" style="stroke-width:var(--lw-1);" />
        
        <line x1="9966.326" y1="7393.3651" x2="9766.326" y2="7393.3651" style="stroke-width:var(--lw-1);" />
        
        <line x1="9766.326" y1="6498.3651" x2="9766.326" y2="7393.3651" style="stroke-width:var(--lw-1);" />
        
        <line x1="9766.326" y1="7393.3651" x2="9566.326" y2="7393.3651" style="stroke-width:var(--lw-1);" />
        
        <line x1="9566.326" y1="6498.3651" x2="9566.326" y2="7393.3651" style="stroke-width:var(--lw-1);" />
        
        <line x1="9566.326" y1="7393.3651" x2="9366.326" y2="7393.3651" style="stroke-width:var(--lw-1);" />
        
        <path d="M4364.9999,6253.3652 L4364.9999,6758.3651" style="stroke-width:var(--lw-5);" />
        
        <path d="M4364.9999,6858.3651 L4364.9999,7049.3651" style="stroke-width:var(--lw-5);" />
        
        <path d="M4364.9999,7849.3651 L4364.9999,10248.3651" style="stroke-width:var(--lw-5);" />
        
        <path d="M4504.9999,6253.3652 L4504.9999,7049.3651" style="stroke-width:var(--lw-5);" />
        
        <path d="M4504.9999,7849.3651 L4504.9999,10248.3651" style="stroke-width:var(--lw-5);" />
        
        <path d="M4364.9999,7049.3651 L4504.9999,7049.3651" style="stroke-width:var(--lw-5);" />
        
        <path d="M11594.4999,8503.3651 L9364.9999,8503.3651" style="stroke-width:var(--lw-5);" />
        
        <path d="M11594.4999,8643.3651 L9224.9999,8643.3651" style="stroke-width:var(--lw-5);" />
        
        <path d="M9364.9999,6498.3651 L9364.9999,8503.3651" style="stroke-width:var(--lw-5);" />
        
        <path d="M11594.4999,6498.3651 L9224.9999,6498.3651" style="stroke-width:var(--lw-5);" />
        
        <path d="M11594.4999,6358.3651 L10794.4999,6358.3651" style="stroke-width:var(--lw-5);" />
        
        <path d="M10694.4999,6358.3651 L9364.9999,6358.3651" style="stroke-width:var(--lw-5);" />
        
        <path d="M9364.9999,6358.3651 L9364.9999,5858.3651" style="stroke-width:var(--lw-5);" />
        
        <path d="M9364.9999,5058.3651 L9364.9999,3738.3651" style="stroke-width:var(--lw-5);" />
        
        <path d="M9224.9999,5058.3651 L9224.9999,3773.3652" style="stroke-width:var(--lw-5);" />
        
        <path d="M9224.9999,5058.3651 L9364.9999,5058.3651" style="stroke-width:var(--lw-5);" />
        
        <path d="M9224.9999,5858.3651 L9364.9999,5858.3651" style="stroke-width:var(--lw-5);" />
        
        <path d="M9224.9999,5858.3651 L9364.9999,5858.3651" style="stroke-width:var(--lw-5);" />
        
        <path d="M9364.9999,4558.3651 L10694.4999,4558.3651 L10694.4999,6358.3651" style="stroke-width:var(--lw-5);" />
        
        <path d="M9364.9999,4458.3651 L10794.4999,4458.3651 L10794.4999,6358.3651" style="stroke-width:var(--lw-5);" />
        
        <path d="M11494.4999,8503.3651 L11494.4999,6498.3651" style="stroke-width:var(--lw-5);" />
        
        <path d="M4504.9999,9347.962 L6744.9999,9347.962" style="stroke-width:var(--lw-5);" />
        
        <path d="M4504.9999,9447.962 L6744.9999,9447.962" style="stroke-width:var(--lw-5);" />
        
        <path d="M7124.9999,9347.962 L7880.7113,9347.962" style="stroke-width:var(--lw-5);" />
        
        <path d="M7124.9999,9447.962 L7780.7113,9447.962" style="stroke-width:var(--lw-5);" />
        
        <path d="M7880.7113,9347.962 L7880.7113,11808.3651" style="stroke-width:var(--lw-5);" />
        
        <path d="M7780.7113,9447.962 L7780.7113,11808.3651" style="stroke-width:var(--lw-5);" />
        
        <path d="M10694.5,8643.3651 L10694.4999,11808.3651" style="stroke-width:var(--lw-5);" />
        
        <path d="M10794.5,8643.3651 L10794.4999,11808.3651" style="stroke-width:var(--lw-5);" />
        
        <path d="M9364.9999,8053.3651 L11042.6461,8053.3651" style="stroke-width:var(--lw-1);" />
        
        <path d="M9364.9999,6943.3651 L11042.6461,6943.3651" style="stroke-width:var(--lw-1);" />
        
        <path d="M11042.6461,8053.3651 L11042.6461,6943.3651" style="stroke-width:var(--lw-1);" />
        
        <path d="M9364.9999,6943.3651 L9615,6850.4457" style="stroke-width:var(--lw-1);" />
        
        <path d="M9364.9999,6943.3651 L9615,7036.2845" style="stroke-width:var(--lw-1);" />
        
        <path d="M3010,1128.3651 L3010,6118.3651" style="stroke-width:var(--lw-5);" />
        
        <path d="M2910,1128.3651 L2910,6118.3651" style="stroke-width:var(--lw-5);" />
        
        <path d="M5859.9998,1128.3651 L5859.9998,3068.3652" style="stroke-width:var(--lw-5);" />
        
        <path d="M5959.9998,1128.3651 L5959.9998,2968.3652" style="stroke-width:var(--lw-5);" />
        
        <path d="M5959.9998,3068.3652 L5959.9998,3068.3652 Z" style="stroke-width:var(--lw-5);" />
        
        <path d="M5999.9998,3068.3652 L5999.9998,3068.3652 Z" style="stroke-width:var(--lw-5);" />
        
        <path d="M5859.9998,3068.3652 L9029.9999,3068.3652" style="stroke-width:var(--lw-5);" />
        
        <path d="M5959.9998,2968.3652 L9029.9999,2968.3652" style="stroke-width:var(--lw-5);" />
        
        <path d="M4364.9999,6858.3651 L1104.9999,6858.3651" style="stroke-width:var(--lw-5);" />
        
        <path d="M4364.9999,6758.3651 L3614.9999,6758.3651" style="stroke-width:var(--lw-5);" />
        
        <path d="M3514.9999,6758.3651 L1104.9999,6758.3651" style="stroke-width:var(--lw-5);" />
        
        <path d="M9336.8749,7393.3651 L9336.8749,8503.3652" style="stroke-width:var(--lw-5);" />
        
        <path d="M9224.9999,7393.3651 L9224.9999,8503.3651" style="stroke-width:var(--lw-5);" />
        
        <path d="M4364.9999,8643.3652 L4504.9999,8643.3652 L4504.9999,8503.3652 L4364.9999,8503.3652 Z" style="stroke-width:var(--lw-6);" />
        
        <path d="M9224.9999,8643.3652 L9364.9999,8643.3652 L9364.9999,8503.3652 L9224.9999,8503.3652 Z" style="stroke-width:var(--lw-6);" />
        
        <path d="M1104.9999,8358.3651 L1244.9999,8358.3651 L1244.9999,8218.3651 L1104.9999,8218.3651 Z" style="stroke-width:var(--lw-6);" />
        
        <path d="M9224.9999,3913.3652 L9364.9999,3913.3652 L9364.9999,3773.3652 L9224.9999,3773.3652 Z" style="stroke-width:var(--lw-6);" />
        
        <path d="M4364.9999,3913.3652 L4504.9999,3913.3652 L4504.9999,3773.3652 L4364.9999,3773.3652 Z" style="stroke-width:var(--lw-6);" />
        
        <path d="M5984.9999,3913.3652 L6124.9999,3913.3652 L6124.9999,3773.3652 L5984.9999,3773.3652 Z" style="stroke-width:var(--lw-6);" />
        
        <path d="M7604.9999,3913.3652 L7744.9999,3913.3652 L7744.9999,3773.3652 L7604.9999,3773.3652 Z" style="stroke-width:var(--lw-6);" />
        
        <path d="M9224.9999,11808.3651 L9364.9999,11808.3651 L9364.9999,11668.3651 L9224.9999,11668.3651 Z" style="stroke-width:var(--lw-6);" />
        
        <path d="M9224.9999,6498.3651 L9364.9999,6498.3651 L9364.9999,6358.3651 L9224.9999,6358.3651 Z" style="stroke-width:var(--lw-6);" />
        
        <path d="M4504.9999,3913.3652 L9224.9999,3913.3652" style="stroke-width:var(--lw-5);" />
        
        <path d="M4504.9999,3773.3652 L9224.9999,3773.3652" style="stroke-width:var(--lw-5);" />
        
        <path d="M9029.9999,3738.3651 L9029.9999,3773.3652" style="stroke-width:var(--lw-5);" />
        
        <path d="M4364.9999,1273.3652 L4504.9999,1273.3652 L4504.9999,1133.3652 L4364.9999,1133.3652 Z" style="stroke-width:var(--lw-6);" />
        
        <path d="M4364.9999,6253.3652 L4504.9999,6253.3652 L4504.9999,6113.3652 L4364.9999,6113.3652 Z" style="stroke-width:var(--lw-6);" />
        
        <path d="M4364.9999,7989.3651 L4504.9999,7989.3651 L4504.9999,7849.3651 L4364.9999,7849.3651 Z" style="stroke-width:var(--lw-6);" />
        
        <path d="M3614.9999,6498.3651 L3614.9999,6758.3651" style="stroke-width:var(--lw-5);" />
        
        <path d="M3514.9999,6498.3651 L3514.9999,6758.3651" style="stroke-width:var(--lw-5);" />
        
        <path d="M9224.9999,4558.3651 L9364.9999,4558.3651 L9364.9999,4418.3651 L9224.9999,4418.3651 Z" style="stroke-width:var(--lw-6);" />
        
        <path d="M5859.9998,3773.3652 L5859.9998,3068.3652" style="stroke-width:var(--lw-5);" />
        
        <path d="M5959.9998,3773.3652 L5959.9998,3068.3652" style="stroke-width:var(--lw-5);" />
        
        <path d="M1104.9999,9347.962 L4364.9999,9347.962" style="stroke-width:var(--lw-5);" />
        
        <path d="M1104.9999,9447.962 L4364.9999,9447.962" style="stroke-width:var(--lw-5);" />
        
        <path d="M7264.9999,8553.3652 L9225,8553.3651" style="stroke-width:var(--lw-1);" />
        
        <path d="M9224.9999,8603.3651 L8195,8603.3651 L8195,8553.3652 L9224.9999,8553.3652 Z" style="stroke-width:var(--lw-1);" />
        
        <path d="M8295,8553.3652 L7264.9999,8553.3652 L7264.9999,8503.3652 L8295,8503.3652 Z" style="stroke-width:var(--lw-1);" />
        
        <path d="M6864.9999,3913.3652 L7604.9999,3913.3652 L7604.9999,3884.3225 L6864.9999,3884.3225 Z" style="stroke-width:var(--lw-1);" />
        
        <path d="M6124.9999,3884.3225 L6864.9999,3884.3225 L6864.9999,3855.2798 L6124.9999,3855.2798 Z" style="stroke-width:var(--lw-1);" />
        
        <path d="M8484.9999,3913.3652 L7744.9999,3913.3652 L7744.9999,3884.3225 L8484.9999,3884.3225 Z" style="stroke-width:var(--lw-1);" />
        
        <path d="M9224.9999,3884.3225 L8484.9999,3884.3225 L8484.9999,3855.2798 L9224.9999,3855.2798 Z" style="stroke-width:var(--lw-1);" />
        
        <path d="M3564.9999,3913.3652 L3010,3913.3652" style="stroke-width:var(--lw-5);" />
        
        <path d="M6605.1024,8643.3652 L6745.1024,8643.3652 L6745.1024,8503.3652 L6605.1024,8503.3652 Z" style="stroke-width:var(--lw-6);" />
        
        <path d="M7124.9999,8643.3652 L7264.9999,8643.3652 L7264.9999,8503.3652 L7124.9999,8503.3652 Z" style="stroke-width:var(--lw-6);" />
        
        <path d="M4364.9999,8358.3651 L4504.9999,8358.3651 L4504.9999,8218.3651 L4364.9999,8218.3651 Z" style="stroke-width:var(--lw-6);" />
        
        <path d="M9224.9999,5858.3651 L9224.9999,6358.3651" style="stroke-width:var(--lw-5);" />
        
        <path d="M9224.9999,7393.3651 L9336.8749,7393.3651" style="stroke-width:var(--lw-5);" />
        
        <path d="M9306.4309,7393.3651 L9306.4309,7172.1398 L9255.444,7172.1398 L9255.444,7393.3651" style="stroke-width:var(--lw-1);" />
        
        <path d="M6604.9999,8643.3652 L6464.9999,8643.3652 L6464.9999,8503.3652 L6604.9999,8503.3652 Z" style="stroke-width:var(--lw-5);" />
        
        <path d="M3010,3913.3652 L3564.9999,3913.3652 L3564.9999,3773.3652 L3010,3773.3652" style="stroke-width:var(--lw-5);" />
        
        <path d="M7764.9999,6256.6993 L7764.9999,5456.6993 L5964.9999,5456.6993 L5964.9999,6256.6993 Z" style="stroke-width:var(--lw-3);" />
        
        <path d="M9364.9999,5908.3651 L10694.4999,5908.3651" style="stroke-width:var(--lw-3);" />
        
        <path d="M3010,1813.3651 L5259.9998,1813.3651" style="stroke-width:var(--lw-3);" />
        
        <line x1="4660" y1="1910.6344" x2="4210" y2="1910.6344" style="stroke-width:var(--lw-3);" />
        
        <line x1="4210" y1="1910.6344" x2="4210" y2="2085.6344" style="stroke-width:var(--lw-3);" />
        
        <path d="M4210,2085.6344 A225,225 339.3738 0 0 4660,2085.6344" style="stroke-width:var(--lw-3);" />
        
        <line x1="4660" y1="2085.6344" x2="4660" y2="1910.6344" style="stroke-width:var(--lw-3);" />
        
        <path d="M4160,2085.6344 A275,275 249.3738 0 0 4710,2085.6344" style="stroke-width:var(--lw-3);" />
        
        <circle cx="1703.0945" cy="7697.6619" r="446.6695" style="stroke-width:var(--lw-3);" />
        
        <text x="0" dx="0" y="0" dy="200" font-size="var(--dxf-big-font)" line-height="1.1" fill="var(--text-color)" transform="translate(9330.9603,10179.1381) translate(0,100) scale(1,-1)" text-anchor="middle">20</text>
        
        <text x="0" dx="0" y="0" dy="200" font-size="var(--dxf-big-font)" line-height="1.1" fill="var(--text-color)" transform="translate(3625.1643,2367.2191) translate(0,100) scale(1,-1)" text-anchor="middle">19</text>
        
        <text x="0" dx="0" y="0" dy="200" font-size="var(--dxf-big-font)" line-height="1.1" fill="var(--text-color)" transform="translate(9816.4821,5455.0931) translate(0,100) scale(1,-1)" text-anchor="middle">21</text>
        
        <text x="0" dx="0" y="0" dy="200" font-size="var(--dxf-big-font)" line-height="1.1" fill="var(--text-color)" transform="translate(7684.8563,3405.1622) translate(0,100) scale(1,-1)" text-anchor="middle">22</text>
        
        <path d="M5259.9998,1813.3651 L5259.9998,3773.3652" style="stroke-width:var(--lw-3);" />
        
        <g>
            
            <line x1="5964.9999" y1="4813.3652" x2="5964.9999" y2="3913.3652" style="stroke-width:var(--lw-3);" />
            
            <line x1="6864.9999" y1="4813.3652" x2="6864.9999" y2="3913.3652" style="stroke-width:var(--lw-3);" />
            
            <line x1="5064.9999" y1="4813.3652" x2="5964.9999" y2="4813.3652" style="stroke-width:var(--lw-3);" />
            
            <line x1="5964.9999" y1="3913.3652" x2="5064.9999" y2="3913.3652" style="stroke-width:var(--lw-3);" />
            
            <line x1="5064.9999" y1="3913.3652" x2="5064.9999" y2="4813.3652" style="stroke-width:var(--lw-3);" />
            
            <line x1="5214.9999" y1="4813.3652" x2="5214.9999" y2="4063.3652" style="stroke-width:var(--lw-3);" />
            
            <line x1="5214.9999" y1="4063.3652" x2="5964.9999" y2="4063.3652" style="stroke-width:var(--lw-3);" />
            
            <path d="M5964.9999,4813.3652 L6864.9999,4813.3652" style="stroke-width:var(--lw-3);" />
            
            <path d="M5964.9999,4063.3652 L6864.9999,4063.3652" style="stroke-width:var(--lw-3);" />
            
            <path d="M5964.9999,3913.3652 L6864.9999,3913.3652" style="stroke-width:var(--lw-3);" />
            
            <line x1="8664.9999" y1="4813.3652" x2="7764.9999" y2="4813.3652" style="stroke-width:var(--lw-3);" />
            
            <line x1="7764.9999" y1="4813.3652" x2="7764.9999" y2="3913.3652" style="stroke-width:var(--lw-3);" />
            
            <line x1="7764.9999" y1="3913.3652" x2="8664.9999" y2="3913.3652" style="stroke-width:var(--lw-3);" />
            
            <line x1="8664.9999" y1="3913.3652" x2="8664.9999" y2="4813.3652" style="stroke-width:var(--lw-3);" />
            
            <line x1="8514.9999" y1="4813.3652" x2="8514.9999" y2="4063.3652" style="stroke-width:var(--lw-3);" />
            
            <line x1="8514.9999" y1="4063.3652" x2="7764.9999" y2="4063.3652" style="stroke-width:var(--lw-3);" />
            
            <path d="M6864.9999,4813.3652 L7764.9999,4813.3652" style="stroke-width:var(--lw-3);" />
            
            <path d="M6864.9999,4063.3652 L7764.9999,4063.3652" style="stroke-width:var(--lw-3);" />
            
            <path d="M6864.9999,3913.3652 L7764.9999,3913.3652" style="stroke-width:var(--lw-3);" />
        </g>
        
        <path d="M3614.9999,6118.3651 L4364.9999,6118.3651" style="stroke-width:var(--lw-3);" />
        
        <path d="M3010,5518.3651 L3609.9999,5518.3651" style="stroke-width:var(--lw-3);" />
        
        <path d="M3614.9999,6758.3651 L4364.9999,6118.3651" style="stroke-width:var(--lw-3);" />
        
        <path d="M4364.9999,6758.3651 L3614.9999,6118.3651" style="stroke-width:var(--lw-3);" />
        
        <path d="M8664.9999,3913.3652 L9224.9999,3913.3652 L9224.9999,4418.3651 L8664.9999,4418.3651 Z" style="stroke-width:var(--lw-3);" />
        
        <path d="M4504.9999,3913.3652 L5064.9999,3913.3652 L5064.9999,4418.3651 L4504.9999,4418.3651 Z" style="stroke-width:var(--lw-3);" />
        
        <text x="0" dx="0" y="0" dy="200" font-size="var(--dxf-big-font)" line-height="1.1" fill="var(--text-color)" transform="translate(3037.5095,7843.5412) translate(0,100) scale(1,-1)" text-anchor="middle">20</text>
        
        <line x1="5267.3159" y1="8403.3652" x2="5717.3159" y2="8403.3652" style="stroke-width:var(--lw-3);" />
        
        <line x1="5717.3159" y1="8403.3652" x2="5717.3159" y2="8228.3652" style="stroke-width:var(--lw-3);" />
        
        <path d="M5717.3159,8228.3652 A225,225 159.3738 0 0 5267.3159,8228.3652" style="stroke-width:var(--lw-3);" />
        
        <line x1="5267.3159" y1="8228.3652" x2="5267.3159" y2="8403.3652" style="stroke-width:var(--lw-3);" />
        
        <path d="M5767.3159,8228.3652 A275,275 69.3738 0 0 5217.3159,8228.3652" style="stroke-width:var(--lw-3);" />
        
        <path d="M3609.9999,6118.3651 L3609.9999,5518.3651" style="stroke-width:var(--lw-3);" />
        
        <path d="M3010,6118.3651 L3609.9999,5518.3651" style="stroke-width:var(--lw-3);" />
        
        <path d="M3609.9999,6118.3651 L3010,5518.3651" style="stroke-width:var(--lw-3);" />
        
        <path d="M7880.7113,9347.962 L7880.7113,8643.3651" style="stroke-width:var(--lw-3);" />
        
        <path d="M7880.7113,8643.3651 L7124.9999,8643.3651" style="stroke-width:var(--lw-3);" />
        
        <path d="M7880.7113,8643.3651 L7124.9999,9347.962" style="stroke-width:var(--lw-3);" />
        
        <path d="M7880.7113,9347.962 L7124.9999,8643.3651" style="stroke-width:var(--lw-3);" />
        
        <path d="M6464.9999,8643.3652 L6464.9999,9347.962" style="stroke-width:var(--lw-3);" />
        
        <path d="M6464.9999,9347.962 L6745.1024,8643.3652" style="stroke-width:var(--lw-3);" />
        
        <path d="M6745.1024,9347.962 L6464.9999,8643.3652" style="stroke-width:var(--lw-3);" />
        
        <path d="M3609.9999,5518.3651 L3609.9999,4918.3651" style="stroke-width:var(--lw-3);" />
        
        <path d="M3010,5518.3651 L3609.9999,4918.3651" style="stroke-width:var(--lw-3);" />
        
        <path d="M3609.9999,5518.3651 L3010,4918.3651" style="stroke-width:var(--lw-3);" />
        
        <path d="M3010,4918.3651 L3609.9999,4918.3651" style="stroke-width:var(--lw-3);" />
        
        <circle cx="2512.5467" cy="8625.1925" r="446.6695" style="stroke-width:var(--lw-3);" />
        
        <text x="0" dx="0" y="0" dy="200" font-size="var(--dxf-big-font)" line-height="1.1" fill="var(--text-color)" transform="translate(6900.2909,6665.1332) translate(0,100) scale(1,-1)" text-anchor="middle">18</text>
        
        <path d="M9994.3685,4855.7568 L9994.3685,4558.2568 L9629.3685,4558.2568 L9629.3685,4855.7568 A182.5,182.5 0 0 0 9994.3685,4855.7568" style="stroke-width:var(--lw-3);" />
        
        <path d="M9224.9999,5058.3651 L9324.9999,5058.3651 L9324.9999,5108.3651 L9224.9999,5108.3651 Z" style="stroke-width:var(--lw-1);" />
        
        <path d="M9224.9999,5808.3651 L9324.9999,5808.3651 L9324.9999,5858.3651 L9224.9999,5858.3651 Z" style="stroke-width:var(--lw-1);" />
        
        <path d="M9224.9999,5108.3651 L8524.9999,5108.3651" style="stroke-width:var(--lw-1);" />
        
        <path d="M9225.0016,5808.3651 A700,700 0 0,1 8524.9999,5108.3651" style="stroke-width:var(--lw-1);" />
        
        <path d="M4504.9999,7849.3651 L4404.9999,7849.3651 L4404.9999,7799.3651 L4504.9999,7799.3651 Z" style="stroke-width:var(--lw-1);" />
        
        <path d="M4504.9999,7099.3651 L4404.9999,7099.3651 L4404.9999,7049.3651 L4504.9999,7049.3651 Z" style="stroke-width:var(--lw-1);" />
        
        <path d="M4504.9999,7799.3651 L5204.9999,7799.3651" style="stroke-width:var(--lw-1);" />
        
        <path d="M4504.9983,7099.3651 A700,700 0 0,1 5204.9999,7799.3651" style="stroke-width:var(--lw-1);" />
        
        <path d="M4364.9999,3773.3652 L4364.9999,3873.3652 L4314.9999,3873.3652 L4314.9999,3773.3652 Z" style="stroke-width:var(--lw-1);" />
        
        <path d="M3614.9999,3773.3652 L3614.9999,3873.3652 L3564.9999,3873.3652 L3564.9999,3773.3652 Z" style="stroke-width:var(--lw-1);" />
        
        <path d="M4314.9999,3773.3652 L4314.9999,3073.3652" style="stroke-width:var(--lw-1);" />
        
        <path d="M3614.9999,3773.3669 A700,700 0 0,1 4314.9999,3073.3652" style="stroke-width:var(--lw-1);" />
        
        <path d="M3410,2953.3651 L3010,3773.3652" style="stroke-width:var(--lw-3);" />
        
        <path d="M3410,3773.3652 L3010,2953.3651" style="stroke-width:var(--lw-3);" />

        <path d="M6564.9999,15038.365 L-0.0001,15038.365 L-0.0001,10678.3651 L6564.9999,10678.3651 Z" style="stroke-width:var(--lw-1);" />
        
        <path d="M7189.9999,0 L9879.9999,0 L9879.9999,1738.3651 L7189.9999,1738.3651 Z" style="stroke-width:var(--lw-1);" />
    </g>
</svg>