<svg id="fasad" class="svg-drawing" xmlns="http://www.w3.org/2000/svg" viewBox="0 -10 1169.35 1020.79">
  <defs>
    <style>
      .cls-1,.cls-2,.cls-3{fill:none;stroke-linecap:round;stroke-miterlimit:10;}.cls-1{stroke-width:var(--lw-6)}.cls-2{stroke-width:var(--lw-1)}.cls-3{stroke-width:var(--lw-3)}
    </style>
  </defs>
  <path class="cls-1" d="M73.22 954.53H1095.5m-427.96 13.72H846.6m-179.06 13.72H846.6M156.71 363.1v632.59m510.83-631.88v631.88m179.06-286.5v286.5m34.65-286.5v286.5M156.71 417.05H0V157.36h230.56M73.22 417.05v578.49"/>
  <path class="cls-2" d="M667.54 428.89h427.96m-427.96 17.4h46.8m275.25 0h105.91m-284.73 0h82.47m-225.7 17.41h46.8m275.25 0h105.91m-284.73 0h82.47m-225.7 17.48h46.8m275.25 0h105.91m-284.73 0h82.47m-225.7 17.41h46.8m275.25 0h105.91m-284.73 0h82.47m-225.7 17.49h46.8m275.25 0h105.91m-284.73 0h82.47m-225.7 17.4h46.8m275.25 0h105.91m-284.73 0h82.47m-225.7 17.49h46.8m275.25 0h105.91m-284.73 0h82.47m-225.7 17.4h46.8m275.25 0h105.91m-284.73 0h82.47m-225.7 17.49h427.96m-427.96 17.4h427.96m-186.73 17.41h186.73m-186.73 17.49h186.73m-186.73 17.4h186.73m-186.73 17.49h186.73m-186.73 17.4h186.73m-186.73 17.49h186.73m-427.96 17.4H846.6m34.65 0h214.25m-427.96 17.49H846.6m142.99 0h105.91m-214.25 0h11.99m-225.7 17.41H846.6m142.99 0h105.91m-214.25 0h11.99m-225.7 17.4h47.74m274.31 0h105.91m-284.34 0h35.44m34.65 0h11.99m-225.7 17.49h47.74m274.31 0h105.91m-284.34 0h35.44m34.65 0h11.99m-225.7 17.4h47.74m274.31 0h105.91m-284.34 0h35.44m34.65 0h11.99m-225.7 17.49h47.74m274.31 0h105.91m-284.34 0h35.44m34.65 0h11.99m-225.7 17.4h47.74m274.31 0h105.91m-284.34 0h35.44m34.65 0h11.99m-225.7 17.49h47.74m274.31 0h105.91m-284.34 0h35.44m34.65 0h11.99m-225.7 17.41h47.74m165.97 0h214.25m-284.34 0h35.44M667.54 899.8h47.74m165.97 0h214.25m-284.34 0h35.44m-179.06 17.41h47.74m165.97 0h214.25m-284.34 0h35.44m-179.06 17.4h47.74m165.97 0h214.25m-284.34 0h35.44M667.54 952.1h47.74m165.97 0h214.25m-284.34 0h35.44m-158.36 2.43v-2.43m0-17.41v-17.41m0-17.48v-17.41m0-17.48V847.5m0-17.48v-17.41m0-17.41v-17.48m0-17.41v-17.48m0-17.41v-16.15m0-96.13v-9.88m0-17.4v-17.41m0-17.48v-17.41m0-17.48v-17.41m0-17.41v-17.48m0-17.41v-17.48m34.88 331.42v-17.48m0-17.41v-16.15m0-270.5v-9.8m0 184.17v-9.88m0-17.4v-.63m34.89 175.08v-17.48m0-17.41v-16.15m0-270.5v-9.8m0 184.17v-9.88m0-17.4v-.63m34.89 175.08v-17.48m0-17.41v-16.15m0-270.5v-9.8m0 184.17v-9.88m0-17.4v-.63m34.8 369.3v-2.43m0-17.41v-17.41m0-17.48v-17.41m0-17.48V847.5m0-17.48v-17.41m0-17.41v-17.48m0-17.41v-17.48m0-17.41v-16.15m0-96.13v-9.88m0-17.4v-17.41m0-17.48v-17.41m0-17.48v-17.41m0-17.41v-17.48m0-17.41v-17.48m34.89 184.25v-9.88m0-17.4v-17.41m0-17.48v-17.41m0-17.48v-17.41m0-17.41v-17.48m0-17.41v-17.48m34.89 525.64v-2.43m0-17.41v-17.41m0-17.48v-17.41m0-443.62v-9.8m0 296.37v-16.15m0-96.05v-9.88m0-17.4v-.63m34.88 369.3v-2.43m0-17.41v-17.41m0-17.48v-17.41m0-443.62v-9.8m0 296.37v-17.4m0-17.41v-17.48m0-17.41v-17.48m0-17.41v-17.41m0-17.48v-.55m34.89 369.22v-2.43m0-17.41v-17.41m0-17.48v-17.41m0-443.62v-9.8m0 296.37v-17.4m0-17.41v-17.48m0-17.41v-17.48m0-17.41v-17.41m0-17.48v-.55m34.81 369.22v-2.43m0-17.41v-17.41m0-17.48v-17.41m0-17.48V847.5m0-17.48v-17.41m0-17.41v-17.48m0-17.41v-17.48m0-17.41v-17.4m0-17.49v-17.4m0-17.49v-17.41m0-17.4v-17.49m0-17.4v-17.49m0-17.4v-17.41m0-17.49v-17.4m0-17.49v-17.4m0-17.41v-17.48m34.88 525.56v-2.43m0-17.41v-17.41m0-17.48v-17.41m0-17.48V847.5m0-17.48v-17.41m0-17.41v-17.48m0-17.41v-17.48m0-17.41v-17.4m0-17.49v-17.4m0-17.49v-17.41m0-17.4v-17.49m0-17.4v-17.49m0-17.4v-17.41m0-17.49v-17.4m0-17.49v-17.4m0-17.41v-17.48m34.89 525.56v-2.43m0-17.41v-17.41m0-17.48v-17.41m0-17.48V847.5m0-17.48v-17.41m0-17.41v-17.48m0-17.41v-17.48m0-17.41v-17.4m0-17.49v-17.4m0-17.49v-17.41m0-17.4v-17.49m0-17.4v-17.49m0-17.4v-17.41m0-17.49v-17.4m0-17.49v-17.4m0-17.41v-17.48m-401 523.13v-17.41m0-17.41V899.8m0-17.41v-17.48m0-17.41v-17.48m0-17.41V795.2m0-17.48v-17.41m0-17.48v-17.41m0-122.16v-17.4m0-17.41v-17.48m0-17.41v-17.48m0-17.41v-17.41m0-17.48v-17.41m0-17.48v-11.76m34.81 534.97v-17.41m0-17.41V899.8m0-17.41v-17.48m0-17.41v-17.48m0-17.41V795.2m0-17.48v-17.41m0-17.48v-17.41m0-122.16v-17.4m0-17.41v-17.48m0-17.41v-17.48m0-17.41v-17.41m0-17.48v-17.41m0-17.48v-11.76m34.89 345.93v-2.75m0-17.48v-17.41m0-296.45v-11.92m0 186.21v-17.4m34.88 177.2v-2.75m0-17.48v-17.41m0-296.45v-11.92m0 186.21v-17.4m34.89 177.2v-2.75m0-17.48v-17.41m0-296.45v-11.92m0 186.21v-17.4m34.89 366.24v-17.41m0-17.41V899.8m0-17.41v-17.48m0-17.41v-17.48m0-17.41V795.2m0-17.48v-17.41m0-17.48v-17.41m0-122.16v-17.4m0-17.41v-17.48m0-17.41v-17.48m0-17.41v-17.41m0-17.48v-17.41m0-17.48v-11.76m34.88 186.13v-17.4m0-17.41v-17.48m0-17.41v-17.48m0-17.41v-17.41m0-17.48v-17.41m0-17.48v-11.76m34.81 534.97v-17.41m0-17.41V899.8m0-17.41v-3.29m0-450.13v-11.92m0 310.33v-2.04m0-17.4v-17.41m0-17.48v-17.41m0-17.48v-17.41m0-17.41v-17.48m34.89 366.24v-17.41m0-17.41V899.8m0-17.41v-3.29m0-450.13v-11.92m0 310.33v-2.04m0-17.4v-17.41m0-17.48v-17.41m0-17.48v-17.41m0-17.41v-17.48m34.88 366.24v-17.41m0-17.41V899.8m0-17.41v-3.29m0-450.13v-11.92m0 310.33v-2.04m0-17.4v-17.41m0-17.48v-17.41m0-17.48v-17.41m0-17.41v-17.48m34.89 366.24v-17.41m0-17.41V899.8m0-17.41v-17.48m0-17.41v-17.48m0-17.41V795.2m0-17.48v-17.41m0-17.48v-17.41m0-17.4v-17.49m0-17.4v-17.49m0-17.41v-17.4m0-17.49v-17.4m0-17.49v-17.4m0-17.41v-17.49m0-17.4v-17.49m0-17.4v-17.41m0-17.48v-11.84m34.88 534.97v-17.41m0-17.41V899.8m0-17.41v-17.48m0-17.41v-17.48m0-17.41V795.2m0-17.48v-17.41m0-17.48v-17.41m0-17.4v-17.49m0-17.4v-17.49m0-17.41v-17.4m0-17.49v-17.4m0-17.49v-17.4m0-17.41v-17.49m0-17.4v-17.49m0-17.4v-17.41m0-17.48v-11.84m34.81 534.97v-17.41m0-17.41V899.8m0-17.41v-17.48m0-17.41v-17.48m0-17.41V795.2m0-17.48v-17.41m0-17.48v-17.41m0-17.4v-17.49m0-17.4v-17.49m0-17.41v-17.4m0-17.49v-17.4m0-17.49v-17.4m0-17.41v-17.49m0-17.4v-17.49m0-17.4v-17.41m0-17.48v-11.84"/>
  <path class="cls-1" d="M1095.5 417.05v578.64M0 1000.79h1169.35M0 995.69h1169.35"/>
  <path class="cls-2" d="M410.64 149.76h2.11m-22.89 17.48h43.67m-64.36 17.41h85.13m-105.91 17.48h126.69m-147.46 17.41h168.23m-189.01 17.48h209.79m-230.56 17.41H537.4m-272.11 17.49h292.89m-313.66 17.4h334.36m-355.14 17.41h375.91m-396.68 17.48h417.46m-438.16 17.41H641.2M161.5 359.1h500.48m-505.27 17.41h510.83M156.71 394h510.83m-510.83 17.4h510.83m-510.83 17.49h142.06m226.72 0h142.05m-510.83 17.4h142.06m226.72 0h142.05M156.71 463.7h142.06m226.72 0h142.05m-510.83 17.48h142.06m226.72 0h142.05m-510.83 17.41h142.06m226.72 0h142.05m-510.83 17.49h142.06m226.72 0h142.05m-510.83 17.4h142.06m226.72 0h142.05m-510.83 17.49h142.06m226.72 0h142.05m-510.83 17.4h142.06m226.72 0h142.05m-510.83 17.49h142.06m226.72 0h142.05m-510.83 17.4h142.06m226.72 0h142.05m-510.83 17.41h142.06m226.72 0h142.05m-510.83 17.49h510.83m-510.83 17.4h510.83m-510.83 17.49h510.83m-510.83 17.4h510.83m-510.83 17.49h510.83m-510.83 17.4h510.83m-510.83 17.49h142.06m227.03 0h141.74m-510.83 17.41h142.06m227.03 0h141.74m-510.83 17.4h142.06m227.03 0h141.74m-510.83 17.49h142.06m227.03 0h141.74m-510.83 17.4h142.06m227.03 0h141.74m-510.83 17.49h142.06m227.03 0h141.74m-510.83 17.4h142.06m227.03 0h141.74m-510.83 17.49h142.06m227.03 0h141.74m-510.83 17.41h142.06m227.03 0h141.74M156.71 899.8h142.06m227.03 0h141.74m-510.83 17.41h142.06m227.03 0h141.74m-510.83 17.4h510.83M156.71 952.1h510.83m-502.36 2.43v-2.43m0-17.41v-17.41m0-17.48v-17.41m0-17.48V847.5m0-17.48v-17.41m0-17.41v-17.48m0-17.41v-17.48m0-17.41v-17.4m0-17.49v-17.4m0-17.49v-17.41m0-17.4v-17.49m0-17.4v-17.49m0-17.4v-17.41m0-17.49v-17.4m0-17.49v-17.4m0-17.41v-17.48m0-17.41v-17.49m0-17.4v-17.41m34.89 595.27v-2.43m0-17.41v-17.41m0-17.48v-17.41m0-17.48V847.5m0-17.48v-17.41m0-17.41v-17.48m0-17.41v-17.48m0-17.41v-17.4m0-17.49v-17.4m0-17.49v-17.41m0-17.4v-17.49m0-17.4v-17.49m0-17.4v-17.41m0-17.49v-17.4m0-17.49v-17.4m0-17.41v-17.48m0-17.41v-17.49m0-17.4v-17.41m0-17.48V326.8m34.88 627.73v-2.43m0-17.41v-17.41m0-17.48v-17.41m0-17.48V847.5m0-17.48v-17.41m0-17.41v-17.48m0-17.41v-17.48m0-17.41v-17.4m0-17.49v-17.4m0-17.49v-17.41m0-17.4v-17.49m0-17.4v-17.49m0-17.4v-17.41m0-17.49v-17.4m0-17.49v-17.4m0-17.41v-17.48m0-17.41v-17.49m0-17.4v-17.41m0-17.48v-17.41m0-17.48v-9.41m34.81 657.05v-2.43m0-17.41v-17.41m0-17.48v-17.41m0-17.48V847.5m0-17.48v-17.41m0-17.41v-17.48m0-17.41v-17.48m0-17.41v-17.4m0-17.49v-17.4m0-17.49v-17.41m0-17.4v-17.49m0-17.4v-17.49m0-17.4v-17.41m0-17.49v-17.4m0-17.49v-17.4m0-17.41v-17.48m0-17.41v-17.49m0-17.4v-17.41m0-17.48v-17.41m0-17.48v-17.41m0-17.41v-3.92m34.89 686.38v-2.43m0-17.41v-7.37m0-515.84v-17.41m0-17.48v-17.41m0-17.4v-17.49m0-17.4V289.4m0-17.41v-17.4m0 470.75v-17.4m0-17.41v-17.48m0-17.41v-17.48m34.88 316.37v-2.43m0-17.41v-7.37m0-515.84v-17.41m0-17.48v-17.41m0-17.4v-17.49m0-17.4V289.4m0-17.41v-17.4m0-17.49v-17.4m0 505.64v-17.4m0-17.41v-17.48m0-17.41v-17.48m34.89 316.37v-2.43m0-17.41v-7.37m0-515.84v-17.41m0-17.48v-17.41m0-17.4v-17.49m0-17.4V289.4m0-17.41v-17.4m0-17.49v-17.4m0-17.49v-17.4m0 540.53v-17.4m0-17.41v-17.48m0-17.41v-17.48m34.88 316.37v-2.43m0-17.41v-7.37m0-515.84v-17.41m0-17.48v-17.41m0-17.4v-17.49m0-17.4V289.4m0-17.41v-17.4m0-17.49v-17.4m0-17.49v-17.4m0-17.41v-16.39m0 574.33v-17.4m0-17.41v-17.48m0-17.41v-17.48m34.81 316.37v-2.43m0-17.41v-7.37m0-515.84v-17.41m0-17.48v-17.41m0-17.4v-17.49m0-17.4V289.4m0-17.41v-17.4m0-17.49v-17.4m0-17.49v-17.4m0 540.53v-17.4m0-17.41v-17.48m0-17.41v-17.48M479 954.53v-2.43m0-17.41v-7.37m0-515.84v-17.41m0-17.48v-17.41m0-17.4v-17.49m0-17.4V289.4m0-17.41v-17.4m0-17.49v-17.4m0 505.64v-17.4m0-17.41v-17.48m0-17.41v-17.48m34.89 316.37v-2.43m0-17.41v-7.37m0-515.84v-17.41m0-17.48v-17.41m0-17.4v-17.49m0-17.4V289.4m0-17.41v-17.4m0-17.49v-2.27m0 490.51v-17.4m0-17.41v-17.48m0-17.41v-17.48m34.88 316.37v-2.43m0-17.41v-17.41m0-17.48v-17.41m0-17.48V847.5m0-17.48v-17.41m0-17.41v-17.48m0-17.41v-17.48m0-17.41v-17.4m0-17.49v-17.4m0-17.49v-17.41m0-17.4v-17.49m0-17.4v-17.49m0-17.4v-17.41m0-17.49v-17.4m0-17.49v-17.4m0-17.41v-17.48m0-17.41v-17.49m0-17.4v-17.41m0-17.48v-17.41m0-17.48v-17.41m0-17.41v-7.99m34.89 690.45v-2.43m0-17.41v-17.41m0-17.48v-17.41m0-17.48V847.5m0-17.48v-17.41m0-17.41v-17.48m0-17.41v-17.48m0-17.41v-17.4m0-17.49v-17.4m0-17.49v-17.41m0-17.4v-17.49m0-17.4v-17.49m0-17.4v-17.41m0-17.49v-17.4m0-17.49v-17.4m0-17.41v-17.48m0-17.41v-17.49m0-17.4v-17.41m0-17.48v-17.41m0-17.48V293.4m34.81 661.13v-2.43m0-17.41v-17.41m0-17.48v-17.41m0-17.48V847.5m0-17.48v-17.41m0-17.41v-17.48m0-17.41v-17.48m0-17.41v-17.4m0-17.49v-17.4m0-17.49v-17.41m0-17.4v-17.49m0-17.4v-17.49m0-17.4v-17.41m0-17.49v-17.4m0-17.49v-17.4m0-17.41v-17.48m0-17.41v-17.49m0-17.4v-17.41m0-17.48v-17.41m34.88 630.16v-2.43m0-17.41v-17.41m0-17.48v-17.41m0-17.48V847.5m0-17.48v-17.41m0-17.41v-17.48m0-17.41v-17.48m0-17.41v-17.4m0-17.49v-17.4m0-17.49v-17.41m0-17.4v-17.49m0-17.4v-17.49m0-17.4v-17.41m0-17.49v-17.4m0-17.49v-17.4m0-17.41v-17.48m0-17.41v-17.49m0-17.4v-17.41M182.58 952.1v-17.41m0-17.41V899.8m0-17.41v-17.48m0-17.41v-17.48m0-17.41V795.2m0-17.48v-17.41m0-17.48v-17.41m0-17.4v-17.49m0-17.4v-17.49m0-17.41v-17.4m0-17.49v-17.4m0-17.49v-17.4m0-17.41v-17.49m0-17.4v-17.49m0-17.4v-17.41m0-17.48v-17.41m0-17.49v-17.4m0-17.41v-17.48m34.89 610.32v-17.41m0-17.41V899.8m0-17.41v-17.48m0-17.41v-17.48m0-17.41V795.2m0-17.48v-17.41m0-17.48v-17.41m0-17.4v-17.49m0-17.4v-17.49m0-17.41v-17.4m0-17.49v-17.4m0-17.49v-17.4m0-17.41v-17.49m0-17.4v-17.49m0-17.4v-17.41m0-17.48v-17.41m0-17.49v-17.4m0-17.41v-17.48m0-17.41v-12.23m34.89 639.96v-17.41m0-17.41V899.8m0-17.41v-17.48m0-17.41v-17.48m0-17.41V795.2m0-17.48v-17.41m0-17.48v-17.41m0-17.4v-17.49m0-17.4v-17.49m0-17.41v-17.4m0-17.49v-17.4m0-17.49v-17.4m0-17.41v-17.49m0-17.4v-17.49m0-17.4v-17.41m0-17.48v-17.41m0-17.49v-17.4m0-17.41v-17.48m0-17.41v-17.48m0-17.41v-6.67m34.88 669.29v-17.41m0-17.41V899.8m0-17.41v-17.48m0-17.41v-17.48m0-17.41V795.2m0-17.48v-17.41m0-17.48v-17.41m0-17.4v-17.49m0-17.4v-17.49m0-17.41v-17.4m0-17.49v-17.4m0-17.49v-17.4m0-17.41v-17.49m0-17.4v-17.49m0-17.4v-17.41m0-17.48v-17.41m0-17.49v-17.4m0-17.41v-17.48m0-17.41v-17.48m0-17.41v-17.41m0-17.48v-1.02m34.89 698.53v-17.41m0-510.12v-13.09m0-17.41v-17.48m0-17.41v-17.4m0-17.49v-17.4m0-17.49v-17.41m0-17.4V237.1m0 490.28v-2.04m0-17.4v-17.41m0-17.48v-17.41m0-17.48v-13.65m34.81 327.59v-17.41m0-510.12v-13.09m0-17.41v-17.48m0-17.41v-17.4m0-17.49v-17.4m0-17.49v-17.41m0-17.4V237.1m0-17.4v-17.49m0 525.17v-2.04m0-17.4v-17.41m0-17.48v-17.41m0-17.48v-13.65m34.88 327.59v-17.41m0-510.12v-13.09m0-17.41v-17.48m0-17.41v-17.4m0-17.49v-17.4m0-17.49v-17.41m0-17.4V237.1m0-17.4v-17.49m0-17.4V167.4m0 559.98v-2.04m0-17.4v-17.41m0-17.48v-17.41m0-17.48v-13.65m34.89 327.59v-17.41m0-510.12v-13.09m0-17.41v-17.48m0-17.41v-17.4m0-17.49v-17.4m0-17.49v-17.41m0-17.4V237.1m0-17.4v-17.49m0-17.4V167.4m0 559.98v-2.04m0-17.4v-17.41m0-17.48v-17.41m0-17.48v-13.65M461.6 952.1v-17.41m0-510.12v-13.09m0-17.41v-17.48m0-17.41v-17.4m0-17.49v-17.4m0-17.49v-17.41m0-17.4V237.1m0-17.4v-17.49m0 525.17v-2.04m0-17.4v-17.41m0-17.48v-17.41m0-17.48v-13.65m34.88 327.59v-17.41m0-510.12v-13.09m0-17.41v-17.48m0-17.41v-17.4m0-17.49v-17.4m0-17.49v-17.41m0-17.4V237.1m0 490.28v-2.04m0-17.4v-17.41m0-17.48v-17.41m0-17.48v-13.65m34.81 327.59v-17.41m0-17.41V899.8m0-17.41v-17.48m0-17.41v-17.48m0-17.41V795.2m0-17.48v-17.41m0-17.48v-17.41m0-17.4v-17.49m0-17.4v-17.49m0-17.41v-17.4m0-17.49v-17.4m0-17.49v-17.4m0-17.41v-17.49m0-17.4v-17.49m0-17.4v-17.41m0-17.48v-17.41m0-17.49v-17.4m0-17.41v-17.48m0-17.41v-17.48m0-17.41v-17.41m0-17.48v-5.18m34.89 702.69v-17.41m0-17.41V899.8m0-17.41v-17.48m0-17.41v-17.48m0-17.41V795.2m0-17.48v-17.41m0-17.48v-17.41m0-17.4v-17.49m0-17.4v-17.49m0-17.41v-17.4m0-17.49v-17.4m0-17.49v-17.4m0-17.41v-17.49m0-17.4v-17.49m0-17.4v-17.41m0-17.48v-17.41m0-17.49v-17.4m0-17.41v-17.48m0-17.41v-17.48m0-17.41v-10.74m34.88 673.36v-17.41m0-17.41V899.8m0-17.41v-17.48m0-17.41v-17.48m0-17.41V795.2m0-17.48v-17.41m0-17.48v-17.41m0-17.4v-17.49m0-17.4v-17.49m0-17.41v-17.4m0-17.49v-17.4m0-17.49v-17.4m0-17.41v-17.49m0-17.4v-17.49m0-17.4v-17.41m0-17.48v-17.41m0-17.49v-17.4m0-17.41v-17.48m0-17.41v-16.39m34.89 644.12v-17.41m0-17.41V899.8m0-17.41v-17.48m0-17.41v-17.48m0-17.41V795.2m0-17.48v-17.41m0-17.48v-17.41m0-17.4v-17.49m0-17.4v-17.49m0-17.41v-17.4m0-17.49v-17.4m0-17.49v-17.4m0-17.41v-17.49m0-17.4v-17.49m0-17.4v-17.41m0-17.48v-17.41m0-17.49v-17.4m0-17.41v-17.48M410.64 149.76h2.11m-22.89 17.48h43.67m-64.36 17.41h85.13m-105.91 17.48h126.69m-147.46 17.41h168.23m-189.01 17.48h209.79m-230.56 17.41H537.4m-272.11 17.49h292.89m-313.66 17.4h334.36m-355.14 17.41h375.91m-396.68 17.48h417.46m-438.16 17.41H641.2M161.5 359.1h500.48m-505.27 17.41h510.83M156.71 394h510.83m-510.83 17.4h510.83m-510.83 17.49h142.06m226.72 0h142.05m-510.83 17.4h142.06m226.72 0h142.05M156.71 463.7h142.06m226.72 0h142.05m-510.83 17.48h142.06m226.72 0h142.05m-510.83 17.41h142.06m226.72 0h142.05m-510.83 17.49h142.06m226.72 0h142.05m-510.83 17.4h142.06m226.72 0h142.05m-510.83 17.49h142.06m226.72 0h142.05m-510.83 17.4h142.06m226.72 0h142.05m-510.83 17.49h142.06m226.72 0h142.05m-510.83 17.4h142.06m226.72 0h142.05m-510.83 17.41h142.06m226.72 0h142.05m-510.83 17.49h510.83m-510.83 17.4h510.83m-510.83 17.49h510.83m-510.83 17.4h510.83m-510.83 17.49h510.83m-510.83 17.4h510.83m-510.83 17.49h142.06m227.03 0h141.74m-510.83 17.41h142.06m227.03 0h141.74m-510.83 17.4h142.06m227.03 0h141.74m-510.83 17.49h142.06m227.03 0h141.74m-510.83 17.4h142.06m227.03 0h141.74m-510.83 17.49h142.06m227.03 0h141.74m-510.83 17.4h142.06m227.03 0h141.74m-510.83 17.49h142.06m227.03 0h141.74m-510.83 17.41h142.06m227.03 0h141.74M156.71 899.8h142.06m227.03 0h141.74m-510.83 17.41h142.06m227.03 0h141.74m-510.83 17.4h510.83M156.71 952.1h510.83m-502.36 2.43v-2.43m0-17.41v-17.41m0-17.48v-17.41m0-17.48V847.5m0-17.48v-17.41m0-17.41v-17.48m0-17.41v-17.48m0-17.41v-17.4m0-17.49v-17.4m0-17.49v-17.41m0-17.4v-17.49m0-17.4v-17.49m0-17.4v-17.41m0-17.49v-17.4m0-17.49v-17.4m0-17.41v-17.48m0-17.41v-17.49m0-17.4v-17.41m34.89 595.27v-2.43m0-17.41v-17.41m0-17.48v-17.41m0-17.48V847.5m0-17.48v-17.41m0-17.41v-17.48m0-17.41v-17.48m0-17.41v-17.4m0-17.49v-17.4m0-17.49v-17.41m0-17.4v-17.49m0-17.4v-17.49m0-17.4v-17.41m0-17.49v-17.4m0-17.49v-17.4m0-17.41v-17.48m0-17.41v-17.49m0-17.4v-17.41m0-17.48V326.8m34.88 627.73v-2.43m0-17.41v-17.41m0-17.48v-17.41m0-17.48V847.5m0-17.48v-17.41m0-17.41v-17.48m0-17.41v-17.48m0-17.41v-17.4m0-17.49v-17.4m0-17.49v-17.41m0-17.4v-17.49m0-17.4v-17.49m0-17.4v-17.41m0-17.49v-17.4m0-17.49v-17.4m0-17.41v-17.48m0-17.41v-17.49m0-17.4v-17.41m0-17.48v-17.41m0-17.48v-9.41m34.81 657.05v-2.43m0-17.41v-17.41m0-17.48v-17.41m0-17.48V847.5m0-17.48v-17.41m0-17.41v-17.48m0-17.41v-17.48m0-17.41v-17.4m0-17.49v-17.4m0-17.49v-17.41m0-17.4v-17.49m0-17.4v-17.49m0-17.4v-17.41m0-17.49v-17.4m0-17.49v-17.4m0-17.41v-17.48m0-17.41v-17.49m0-17.4v-17.41m0-17.48v-17.41m0-17.48v-17.41m0-17.41v-3.92m34.89 686.38v-2.43m0-17.41v-7.37m0-515.84v-17.41m0-17.48v-17.41m0-17.4v-17.49m0-17.4V289.4m0-17.41v-17.4m0 470.75v-17.4m0-17.41v-17.48m0-17.41v-17.48m34.88 316.37v-2.43m0-17.41v-7.37m0-515.84v-17.41m0-17.48v-17.41m0-17.4v-17.49m0-17.4V289.4m0-17.41v-17.4m0-17.49v-17.4m0 505.64v-17.4m0-17.41v-17.48m0-17.41v-17.48m34.89 316.37v-2.43m0-17.41v-7.37m0-515.84v-17.41m0-17.48v-17.41m0-17.4v-17.49m0-17.4V289.4m0-17.41v-17.4m0-17.49v-17.4m0-17.49v-17.4m0 540.53v-17.4m0-17.41v-17.48m0-17.41v-17.48m34.88 316.37v-2.43m0-17.41v-7.37m0-515.84v-17.41m0-17.48v-17.41m0-17.4v-17.49m0-17.4V289.4m0-17.41v-17.4m0-17.49v-17.4m0-17.49v-17.4m0-17.41v-16.39m0 574.33v-17.4m0-17.41v-17.48m0-17.41v-17.48m34.81 316.37v-2.43m0-17.41v-7.37m0-515.84v-17.41m0-17.48v-17.41m0-17.4v-17.49m0-17.4V289.4m0-17.41v-17.4m0-17.49v-17.4m0-17.49v-17.4m0 540.53v-17.4m0-17.41v-17.48m0-17.41v-17.48M479 954.53v-2.43m0-17.41v-7.37m0-515.84v-17.41m0-17.48v-17.41m0-17.4v-17.49m0-17.4V289.4m0-17.41v-17.4m0-17.49v-17.4m0 505.64v-17.4m0-17.41v-17.48m0-17.41v-17.48m34.89 316.37v-2.43m0-17.41v-7.37m0-515.84v-17.41m0-17.48v-17.41m0-17.4v-17.49m0-17.4V289.4m0-17.41v-17.4m0-17.49v-2.27m0 490.51v-17.4m0-17.41v-17.48m0-17.41v-17.48m34.88 316.37v-2.43m0-17.41v-17.41m0-17.48v-17.41m0-17.48V847.5m0-17.48v-17.41m0-17.41v-17.48m0-17.41v-17.48m0-17.41v-17.4m0-17.49v-17.4m0-17.49v-17.41m0-17.4v-17.49m0-17.4v-17.49m0-17.4v-17.41m0-17.49v-17.4m0-17.49v-17.4m0-17.41v-17.48m0-17.41v-17.49m0-17.4v-17.41m0-17.48v-17.41m0-17.48v-17.41m0-17.41v-7.99m34.89 690.45v-2.43m0-17.41v-17.41m0-17.48v-17.41m0-17.48V847.5m0-17.48v-17.41m0-17.41v-17.48m0-17.41v-17.48m0-17.41v-17.4m0-17.49v-17.4m0-17.49v-17.41m0-17.4v-17.49m0-17.4v-17.49m0-17.4v-17.41m0-17.49v-17.4m0-17.49v-17.4m0-17.41v-17.48m0-17.41v-17.49m0-17.4v-17.41m0-17.48v-17.41m0-17.48V293.4m34.81 661.13v-2.43m0-17.41v-17.41m0-17.48v-17.41m0-17.48V847.5m0-17.48v-17.41m0-17.41v-17.48m0-17.41v-17.48m0-17.41v-17.4m0-17.49v-17.4m0-17.49v-17.41m0-17.4v-17.49m0-17.4v-17.49m0-17.4v-17.41m0-17.49v-17.4m0-17.49v-17.4m0-17.41v-17.48m0-17.41v-17.49m0-17.4v-17.41m0-17.48v-17.41m34.88 630.16v-2.43m0-17.41v-17.41m0-17.48v-17.41m0-17.48V847.5m0-17.48v-17.41m0-17.41v-17.48m0-17.41v-17.48m0-17.41v-17.4m0-17.49v-17.4m0-17.49v-17.41m0-17.4v-17.49m0-17.4v-17.49m0-17.4v-17.41m0-17.49v-17.4m0-17.49v-17.4m0-17.41v-17.48m0-17.41v-17.49m0-17.4v-17.41M182.58 952.1v-17.41m0-17.41V899.8m0-17.41v-17.48m0-17.41v-17.48m0-17.41V795.2m0-17.48v-17.41m0-17.48v-17.41m0-17.4v-17.49m0-17.4v-17.49m0-17.41v-17.4m0-17.49v-17.4m0-17.49v-17.4m0-17.41v-17.49m0-17.4v-17.49m0-17.4v-17.41m0-17.48v-17.41m0-17.49v-17.4m0-17.41v-17.48m34.89 610.32v-17.41m0-17.41V899.8m0-17.41v-17.48m0-17.41v-17.48m0-17.41V795.2m0-17.48v-17.41m0-17.48v-17.41m0-17.4v-17.49m0-17.4v-17.49m0-17.41v-17.4m0-17.49v-17.4m0-17.49v-17.4m0-17.41v-17.49m0-17.4v-17.49m0-17.4v-17.41m0-17.48v-17.41m0-17.49v-17.4m0-17.41v-17.48m0-17.41v-12.23m34.89 639.96v-17.41m0-17.41V899.8m0-17.41v-17.48m0-17.41v-17.48m0-17.41V795.2m0-17.48v-17.41m0-17.48v-17.41m0-17.4v-17.49m0-17.4v-17.49m0-17.41v-17.4m0-17.49v-17.4m0-17.49v-17.4m0-17.41v-17.49m0-17.4v-17.49m0-17.4v-17.41m0-17.48v-17.41m0-17.49v-17.4m0-17.41v-17.48m0-17.41v-17.48m0-17.41v-6.67m34.88 669.29v-17.41m0-17.41V899.8m0-17.41v-17.48m0-17.41v-17.48m0-17.41V795.2m0-17.48v-17.41m0-17.48v-17.41m0-17.4v-17.49m0-17.4v-17.49m0-17.41v-17.4m0-17.49v-17.4m0-17.49v-17.4m0-17.41v-17.49m0-17.4v-17.49m0-17.4v-17.41m0-17.48v-17.41m0-17.49v-17.4m0-17.41v-17.48m0-17.41v-17.48m0-17.41v-17.41m0-17.48v-1.02m34.89 698.53v-17.41m0-510.12v-13.09m0-17.41v-17.48m0-17.41v-17.4m0-17.49v-17.4m0-17.49v-17.41m0-17.4V237.1m0 490.28v-2.04m0-17.4v-17.41m0-17.48v-17.41m0-17.48v-13.65m34.81 327.59v-17.41m0-510.12v-13.09m0-17.41v-17.48m0-17.41v-17.4m0-17.49v-17.4m0-17.49v-17.41m0-17.4V237.1m0-17.4v-17.49m0 525.17v-2.04m0-17.4v-17.41m0-17.48v-17.41m0-17.48v-13.65m34.88 327.59v-17.41m0-510.12v-13.09m0-17.41v-17.48m0-17.41v-17.4m0-17.49v-17.4m0-17.49v-17.41m0-17.4V237.1m0-17.4v-17.49m0-17.4V167.4m0 559.98v-2.04m0-17.4v-17.41m0-17.48v-17.41m0-17.48v-13.65m34.89 327.59v-17.41m0-510.12v-13.09m0-17.41v-17.48m0-17.41v-17.4m0-17.49v-17.4m0-17.49v-17.41m0-17.4V237.1m0-17.4v-17.49m0-17.4V167.4m0 559.98v-2.04m0-17.4v-17.41m0-17.48v-17.41m0-17.48v-13.65M461.6 952.1v-17.41m0-510.12v-13.09m0-17.41v-17.48m0-17.41v-17.4m0-17.49v-17.4m0-17.49v-17.41m0-17.4V237.1m0-17.4v-17.49m0 525.17v-2.04m0-17.4v-17.41m0-17.48v-17.41m0-17.48v-13.65m34.88 327.59v-17.41m0-510.12v-13.09m0-17.41v-17.48m0-17.41v-17.4m0-17.49v-17.4m0-17.49v-17.41m0-17.4V237.1m0 490.28v-2.04m0-17.4v-17.41m0-17.48v-17.41m0-17.48v-13.65m34.81 327.59v-17.41m0-17.41V899.8m0-17.41v-17.48m0-17.41v-17.48m0-17.41V795.2m0-17.48v-17.41m0-17.48v-17.41m0-17.4v-17.49m0-17.4v-17.49m0-17.41v-17.4m0-17.49v-17.4m0-17.49v-17.4m0-17.41v-17.49m0-17.4v-17.49m0-17.4v-17.41m0-17.48v-17.41m0-17.49v-17.4m0-17.41v-17.48m0-17.41v-17.48m0-17.41v-17.41m0-17.48v-5.18m34.89 702.69v-17.41m0-17.41V899.8m0-17.41v-17.48m0-17.41v-17.48m0-17.41V795.2m0-17.48v-17.41m0-17.48v-17.41m0-17.4v-17.49m0-17.4v-17.49m0-17.41v-17.4m0-17.49v-17.4m0-17.49v-17.4m0-17.41v-17.49m0-17.4v-17.49m0-17.4v-17.41m0-17.48v-17.41m0-17.49v-17.4m0-17.41v-17.48m0-17.41v-17.48m0-17.41v-10.74m34.88 673.36v-17.41m0-17.41V899.8m0-17.41v-17.48m0-17.41v-17.48m0-17.41V795.2m0-17.48v-17.41m0-17.48v-17.41m0-17.4v-17.49m0-17.4v-17.49m0-17.41v-17.4m0-17.49v-17.4m0-17.49v-17.4m0-17.41v-17.49m0-17.4v-17.49m0-17.4v-17.41m0-17.48v-17.41m0-17.49v-17.4m0-17.41v-17.48m0-17.41v-16.39m34.89 644.12v-17.41m0-17.41V899.8m0-17.41v-17.48m0-17.41v-17.48m0-17.41V795.2m0-17.48v-17.41m0-17.48v-17.41m0-17.4v-17.49m0-17.4v-17.49m0-17.41v-17.4m0-17.49v-17.4m0-17.49v-17.4m0-17.41v-17.49m0-17.4v-17.49m0-17.4v-17.41m0-17.48v-17.41m0-17.49v-17.4m0-17.41v-17.48M846.6 725.34h34.65m-34.65 17.49h34.65m-34.65 17.41h34.65m-34.65 17.4h34.65m-34.65 17.49h34.65m-34.65 17.4h34.65m-34.65 17.49h34.65m-34.65 17.4h34.65m-34.65 17.49h34.65m-34.65 17.41h34.65M846.6 899.8h34.65m-34.65 17.41h34.65m-34.65 17.4h34.65M846.6 952.1h34.65m-18.66 2.43v-2.43m0-17.41v-17.41m0-17.48v-17.41m0-17.48V847.5m0-17.48v-17.41m0-17.41v-17.48m0-17.41v-17.48m0-17.41v-16.15m17.48 242.83v-17.41m0-17.41V899.8m0-17.41v-17.48m0-17.41v-17.48m0-17.41V795.2m0-17.48v-17.41m0-17.48v-17.41M73.22 428.89h83.49m-83.49 17.4h83.49M73.22 463.7h83.49m-83.49 17.48h83.49m-83.49 17.41h83.49m-83.49 17.49h83.49m-83.49 17.4h83.49m-83.49 17.49h83.49m-83.49 17.4h83.49m-83.49 17.49h83.49m-83.49 17.4h83.49m-83.49 17.41h83.49m-83.49 17.49h83.49m-83.49 17.4h83.49m-83.49 17.49h83.49m-83.49 17.4h83.49m-83.49 17.49h83.49m-83.49 17.4h83.49m-83.49 17.49h83.49m-83.49 17.41h83.49m-83.49 17.4h83.49m-83.49 17.49h83.49m-83.49 17.4h83.49m-83.49 17.49h83.49m-83.49 17.4h83.49m-83.49 17.49h83.49m-83.49 17.41h83.49M73.22 899.8h83.49m-83.49 17.41h83.49m-83.49 17.4h83.49M73.22 952.1h83.49m-61.3 2.43v-2.43m0-17.41v-17.41m0-17.48v-17.41m0-17.48V847.5m0-17.48v-17.41m0-17.41v-17.48m0-17.41v-17.48m0-17.41v-17.4m0-17.49v-17.4m0-17.49v-17.41m0-17.4v-17.49m0-17.4v-17.49m0-17.4v-17.41m0-17.49v-17.4m0-17.49v-17.4m0-17.41v-17.48m34.88 525.56v-2.43m0-17.41v-17.41m0-17.48v-17.41m0-17.48V847.5m0-17.48v-17.41m0-17.41v-17.48m0-17.41v-17.48m0-17.41v-17.4m0-17.49v-17.4m0-17.49v-17.41m0-17.4v-17.49m0-17.4v-17.49m0-17.4v-17.41m0-17.49v-17.4m0-17.49v-17.4m0-17.41v-17.48M78 952.1v-17.41m0-17.41V899.8m0-17.41v-17.48m0-17.41v-17.48m0-17.41V795.2m0-17.48v-17.41m0-17.48v-17.41m0-17.4v-17.49m0-17.4v-17.49m0-17.41v-17.4m0-17.49v-17.4m0-17.49v-17.4m0-17.41v-17.49m0-17.4v-17.49m0-17.4v-17.41m0-17.48v-11.84m34.89 534.97v-17.41m0-17.41V899.8m0-17.41v-17.48m0-17.41v-17.48m0-17.41V795.2m0-17.48v-17.41m0-17.48v-17.41m0-17.4v-17.49m0-17.4v-17.49m0-17.41v-17.4m0-17.49v-17.4m0-17.49v-17.4m0-17.41v-17.49m0-17.4v-17.49m0-17.4v-17.41m0-17.48v-11.84m34.89 534.97v-17.41m0-17.41V899.8m0-17.41v-17.48m0-17.41v-17.48m0-17.41V795.2m0-17.48v-17.41m0-17.48v-17.41m0-17.4v-17.49m0-17.4v-17.49m0-17.41v-17.4m0-17.49v-17.4m0-17.49v-17.4m0-17.41v-17.49m0-17.4v-17.49m0-17.4v-17.41m0-17.48v-11.84"/>
  <path class="cls-1" d="M667.54 417.05h501.81M557.71 0h136.41"/>
  <path class="cls-2" d="M230.56 80.05h119.4m477.2 0h34.8m-631.4 17.41h119.4m477.2 0h34.8m-631.4 17.48h119.4m477.2 0h34.8m-631.4 17.41h119.4m477.2 0h34.8m-631.4 17.41h119.4m477.2 0h34.8m-631.4 17.48h119.4m477.2 0h34.8m-631.4 17.41h107.25m489.35 0h34.8m-631.4 17.48h86.47m510.13 0h34.8m-631.4 17.41h65.7m530.9 0h34.8m-631.4 17.48h44.92m551.68 0h34.8m-631.4 17.41h24.23m572.37 0h34.8m-631.4 17.49h3.45m593.15 0h34.8m-34.8 17.4h34.8m-34.8 17.41h34.8m-627.01-35.6v-16.62m0-17.41v-17.48m0-17.41v-17.4m0-17.49v-17.41m0-17.48v-17.41m0-17.48V80.13m34.81 156.89v-17.4m0-17.49v-17.4m0-17.41v-17.48m0-17.41v-17.49m0-17.4V80.13m34.89 122.08v-17.48m0-17.41v-17.41m0-17.48v-17.41m0-17.48V80.13m34.88 87.11v-17.4m0-17.41v-17.49m0-17.4V80.05M827.7 306.81V289.4m0-17.48v-17.41m0-17.49v-17.4m0-17.41v-17.48m0-17.41v-17.48m0-17.41v-17.41m0-17.48V80.13M252.36 254.51v-17.49m0-17.4v-17.41m0-17.48v-17.41m0-17.48v-17.41m0-17.41V97.54m0-17.41v-3.29m34.88 142.7v-17.41m0-17.4v-17.49m0-17.4v-17.49m0-17.41v-17.4m0-17.49v-3.21m34.89 107.89v-17.41m0-17.48v-17.41m0-17.41V97.54m0-17.41v-3.29m523.06 238.75v-8.78m0-17.41v-17.48m0-17.41v-17.49m0-17.4v-17.41m0-17.48v-17.41m0-17.48v-17.41m0-17.41V97.54m0-17.41v-3.29"/>
  <path class="cls-1" d="M557.71 0 83.02 398.7m328.72-249.81L92.51 417.05m-9.49-18.35H0m83.02 0v18.35m328.72-294.42L740.45 398.7m168.31 290.34v-75.9H667.54m225.7 114.24h96.35V879.1h-96.35V727.38h0zm0-288.61h96.35v146.46h-96.35V438.77h0zm-178.9 0h96.43v146.46h-96.43V438.77h0zm455.01 556.92v5.1M0 995.69v5.1"/>
  <path class="cls-3" d="M298.77 424.57h226.72v199.86H298.77V424.57h0z"/>
  <path class="cls-3" d="M307 478.52v-45.71h67.26"/>
  <path class="cls-1" d="m861.96 140.82 307.39 257.88M861.96 76.84h-34.81v238.75h34.81V76.84h0zM546.73 50.02h57.94v82.02h-57.94V50.02h0zm158.28 0h-57.85v82.02h57.85V50.02h0zM298.77 424.57h226.72v199.86H298.77V424.57h0zm.31 302.81H525.8v199.94H299.08V727.38h0zm368.46-38.34h241.22v20.15H667.54v-20.15h0zm47.74 74.02h95.88v191.39h-95.88V763.06h0z"/>
  <path class="cls-3" d="M379.75 786.89h64.68m5.48 0h67.35m197.08-348.12h96.43v146.46h-96.43V438.77h0z"/>
  <path class="cls-3" d="M722.58 447h79.96v130h-79.96V447h0zm170.66-8.23h96.35v146.46h-96.35V438.77h0z"/>
  <path class="cls-3" d="M901.47 447h79.89v130h-79.89V447h0zm-8.23 280.38h96.35V879.1h-96.35V727.38h0z"/>
  <path class="cls-3" d="M901.47 735.62h79.89v135.25h-79.89V735.62h0zM546.73 50.02h57.94v82.02h-57.94V50.02h0z"/>
  <path class="cls-3" d="M552.22 55.51h46.96v71.04h-46.96V55.51h0zm94.94-5.49h57.85v82.02h-57.85V50.02h0z"/>
  <path class="cls-3" d="M652.65 55.51h46.88v71.04h-46.88V55.51h0z"/>
  <path class="cls-1" d="m411.74 148.89 319.22 268.16m-381-340.21v97.62m0-17.1h20.38m-20.38-80.52h-119.4v197.9m938.79 123.96h-428.9m428.9 18.35V398.7m-428.9 0v18.35M694.12 0l133.04 111.57"/>
  <path class="cls-3" d="M374.26 484.09V616.2m5.49-183.39v45.71m0 5.57V616.2m64.68-183.39v45.71m0 5.57V616.2m5.48-183.39v45.71m0 5.57V616.2M307 432.81h67.26m5.49 0h64.68m5.48 0h67.35M307 478.52h67.26m5.49 0h64.68m5.48 0h67.35M307 484.09h67.26m5.49 0h64.68m5.48 0h67.35m-137.51-51.28h64.68m5.48 0h67.35v45.71m0 5.57V616.2h-67.35m-5.48 0h-64.68m-5.49 0H307V484.09m0-51.28v45.71m0 5.57V616.2m67.26-183.39v45.71m-75.49 248.86h226.72v199.94H298.77V727.38h0z"/>
  <rect class="svg-trigger" x="0" y="0" width="1169" height="1020"></rect>
  <a class="svg-link" href="/rooms/"><path class="svg-door" d="M715.28 763.06h95.88v191.39h-95.88V763.06h0z"/></a>
  <path class="cls-3" d="M307 781.4v-45.78h67.26m5.49 0h64.68m5.48 0h67.35v45.78m0 5.49v132.2h-67.35m-5.48 0h-64.68m-5.49 0H307v-132.2m0-51.27v45.79m0 5.48v132.2m67.26-183.47v45.79m0 5.48v132.2m5.49-183.47v45.79m0 5.48v132.2m64.68-183.47v45.79m0 5.48v132.2m5.48-183.47v45.79m0 5.48v132.2M307 735.62h67.26m5.49 0h64.68m5.48 0h67.35M307 781.41h67.26m5.49 0h64.68m5.48 0h67.35M307 786.89h67.26M729 885.84V776.86h27.36m13.72 0v108.98m0 13.72v41.25m-13.72-163.95v108.98m0 13.72v41.25M729 899.56h27.36m13.72 0h27.36M729 885.84h27.36m13.72 0h27.36"/>
  <path class="cls-3" d="M770.08 776.86h27.36v108.98m0 13.73v41.24h-27.36m-13.72 0H729v-41.24"/>
  <rect x="545" y="50" width="60" height="80" class="penis-trigger" fill="transparent"/>
  <g transform="scale(0.3) translate(1150,1580)" class="penis">
    <path d="M 184.426 356.148 C 182.315 336.437 181.65 315.288 174.18 296.721 C 168.703 283.106 160.419 270.781 152.869 258.197 C 149.186 252.06 147.335 244.989 144.262 238.525 C 134.081 217.11 123.865 195.427 120.902 171.721 C 119.941 164.029 114.386 135.423 115.984 121.721 C 119.158 94.507 140.22 68.76 163.115 55.328 C 174.404 48.705 188.599 46.666 201.23 44.672 C 212.265 42.93 219.568 42.798 231.967 42.623 C 234.972 42.581 238.221 41.439 240.984 42.623 C 251.887 47.296 263.39 51.817 272.131 59.836 C 280.424 67.444 284.885 78.405 290.574 88.115 C 298.95 102.412 300.112 120.395 300.41 136.475 C 301.005 168.594 290.165 199.025 288.115 231.148 C 286.587 255.09 284.303 278.846 285.656 302.869 C 285.925 307.651 282.059 315.361 286.475 317.213 C 291.061 319.136 294.034 310.649 298.361 308.197 C 310.508 301.314 331.24 299.377 344.672 302.869 C 359.927 306.835 368.151 309.804 380.328 322.131 C 385.787 327.657 389.281 334.835 393.443 341.393 C 407.829 364.062 414.079 374.539 416.393 400 C 417.26 409.538 417.274 420.454 411.066 428.689 C 406.112 435.261 386.734 436.481 379.098 439.754 C 361.655 447.229 342.994 453.309 323.361 450 C 310.169 447.777 295.154 440.743 282.787 435.246 C 276.918 432.638 270.37 431.219 265.164 427.459 C 260.299 423.945 256.715 418.855 253.279 413.934 C 251.595 411.521 252.632 407.054 250 405.738 C 248.045 404.761 250.271 410.126 250 412.295 C 249.312 417.8 249.908 423.887 247.131 428.689 C 243.068 435.715 236.71 441.297 230.328 446.311 C 222.088 452.785 198.382 454.379 192.213 454.918 C 167.042 457.118 148.233 451.566 128.689 433.607 C 126.147 431.271 123.11 421.909 122.131 417.623 C 117.074 395.493 124.821 363.156 148.361 353.689 C 164.159 347.335 183.214 350.09 198.77 354.918"></path>
    <path d="M 115.984 131.967 C 158.069 142.879 196.254 149.294 240.164 144.672 C 248.935 143.749 257.852 141.556 265.574 137.295 C 278.198 130.33 290.255 120.549 302.459 112.705"></path>
    <path d="M 209.016 43.443 C 211.371 76.401 226.83 115.221 220.082 146.721"></path>
    <path d="M 359.016 326.229 C 368.903 311.02 379.564 299.292 395.082 290.164"></path>
    <path d="M 378.689 359.426 C 385.981 360.549 393.466 359.241 400.82 359.836 C 418.91 361.3 436.885 363.935 454.918 365.984"></path>
    <path d="M 321.721 418.852 C 341.232 433.484 366.827 454.303 377.459 476.229 C 379.326 480.079 379.686 484.503 381.148 488.525"></path>
    <path d="M 136.475 420.492 C 126.836 424.941 118.21 424.033 107.787 425.41 C 106.2 425.62 95.074 428.185 93.443 430.328 C 89.817 435.093 87.978 440.983 85.246 446.311"></path>
    <path d="M 198.77 433.607 C 203.042 447.349 206.886 461.412 213.525 474.18"></path>
    <path d="M 161.066 381.148 C 153.825 375.41 147.776 367.709 139.344 363.934 C 123.878 357.01 106.831 354.371 90.574 349.59"></path>
    <path d="M 284.426 373.361 C 286.475 370.902 287.58 367.116 290.574 365.984 C 299.295 362.687 308.88 362.432 318.033 360.656"></path>
    <path d="M 352.049 394.262 C 361.749 402.049 371.448 409.836 381.148 417.623"></path>
  </g>
</svg>