<svg xmlns="http://www.w3.org/2000/svg" width="2219.71mm" height="1545.1033mm" viewBox="722.5823 -2136.0 2251.71 1577.1033" version="1.1" class="svg-drawing">
    <g transform="scale(1,-1)">
        
        <line x1="968.5823" y1="2120" x2="1768.5823" y2="2120" style="stroke-width:var(--lw-1);stroke-dasharray:1rem" />
        
        <line x1="938.6905" y1="800.0553" x2="1291.6453" y2="800.0553" style="stroke-width:var(--lw-3);" />
        
        <line x1="1000.6337" y1="975" x2="1000.6337" y2="1115.8965" style="stroke-width:var(--lw-3);" />
        
        <line x1="1291.1761" y1="800.0553" x2="1000.6337" y2="834.1035" style="stroke-width:var(--lw-3);" />
        
        <line x1="1000.6337" y1="975" x2="1000.6337" y2="834.1035" style="stroke-width:var(--lw-3);" />
        
        <line x1="1291.1761" y1="1149.9447" x2="1000.6337" y2="1115.8965" style="stroke-width:var(--lw-3);" />
        
        <line x1="1291.1761" y1="808.982" x2="1000.6337" y2="843.0303" style="stroke-width:var(--lw-3);" />
        
        <line x1="1291.1761" y1="1141.018" x2="1000.6337" y2="1106.9698" style="stroke-width:var(--lw-3);" />
        
        <line x1="938.474" y1="1149.9447" x2="1291.6453" y2="1149.9447" style="stroke-width:var(--lw-3);" />
        
        <path d="M938.6905,800.0553 L938.474,1149.9447" style="stroke-width:var(--lw-3);" />
        
        <line x1="1987.2193" y1="654.9283" x2="1987.2193" y2="593.5532" style="stroke-width:var(--lw-3);" />
        
        <line x1="1987.2193" y1="593.5532" x2="1587.2193" y2="593.5532" style="stroke-width:var(--lw-3);" />
        
        <line x1="1587.2193" y1="593.5532" x2="1587.2193" y2="654.9283" style="stroke-width:var(--lw-3);" />
        
        <line x1="1587.2193" y1="654.9283" x2="1987.2193" y2="654.9283" style="stroke-width:var(--lw-3);" />
        
        <path d="M2543.2923,852.3999 A105.0308,105.0308 0 1,1 2523.2923,852.3999" style="stroke-width:var(--lw-3);" />
        
        <path d="M2543.2923,847.9482 A109.463,109.463 0 1,1 2523.2923,847.9482" style="stroke-width:var(--lw-3);" />
        
        <line x1="2465.459" y1="683.8913" x2="2465.459" y2="698.8913" style="stroke-width:var(--lw-3);" />
        
        <line x1="2443.2923" y1="683.8913" x2="2473.2923" y2="683.8913" style="stroke-width:var(--lw-3);" />
        
        <line x1="2451.1256" y1="683.8913" x2="2451.1256" y2="698.8913" style="stroke-width:var(--lw-3);" />
        
        <line x1="2443.2923" y1="625.8038" x2="2443.2923" y2="683.8913" style="stroke-width:var(--lw-3);" />
        
        <line x1="2473.2923" y1="683.8913" x2="2473.2923" y2="625.8038" style="stroke-width:var(--lw-3);" />
        
        <line x1="2548.2923" y1="654.6826" x2="2548.2923" y2="684.6826" style="stroke-width:var(--lw-3);" />
        
        <line x1="2518.2923" y1="684.6826" x2="2518.2923" y2="654.6826" style="stroke-width:var(--lw-3);" />
        
        <line x1="2548.2923" y1="684.6826" x2="2518.2923" y2="684.6826" style="stroke-width:var(--lw-3);" />
        
        <line x1="2540.459" y1="684.6826" x2="2540.459" y2="710.3492" style="stroke-width:var(--lw-3);" />
        
        <line x1="2526.1256" y1="684.6826" x2="2526.1256" y2="724.6826" style="stroke-width:var(--lw-3);" />
        
        <line x1="2540.459" y1="710.3492" x2="2621.7923" y2="710.3492" style="stroke-width:var(--lw-3);" />
        
        <line x1="2621.7923" y1="724.6826" x2="2621.7923" y2="710.3492" style="stroke-width:var(--lw-3);" />
        
        <line x1="2526.1256" y1="724.6826" x2="2621.7923" y2="724.6826" style="stroke-width:var(--lw-3);" />
        
        <line x1="2623.2923" y1="625.8038" x2="2623.2923" y2="683.8913" style="stroke-width:var(--lw-3);" />
        
        <line x1="2593.2923" y1="683.8913" x2="2593.2923" y2="625.8038" style="stroke-width:var(--lw-3);" />
        
        <line x1="2623.2923" y1="683.8913" x2="2593.2923" y2="683.8913" style="stroke-width:var(--lw-3);" />
        
        <line x1="2601.1256" y1="683.8913" x2="2601.1256" y2="698.8913" style="stroke-width:var(--lw-3);" />
        
        <line x1="2615.459" y1="683.8913" x2="2615.459" y2="698.8913" style="stroke-width:var(--lw-3);" />
        
        <path d="M2543.2923,665.2277 A10,10 0 0,1 2523.2923,665.2277" style="stroke-width:var(--lw-3);" />
        
        <path d="M2543.2923,956.9535 A10,10 0 0,1 2523.2923,956.9535" style="stroke-width:var(--lw-3);" />
        
        <line x1="2523.2923" y1="665.2277" x2="2523.2923" y2="956.9535" style="stroke-width:var(--lw-3);" />
        
        <line x1="2543.2923" y1="665.2277" x2="2543.2923" y2="956.9535" style="stroke-width:var(--lw-3);" />
        
        <path d="M2523.2923,665.2277 A10,10 0 0,1 2543.2923,665.2277" style="stroke-width:var(--lw-3);" />
        
        <path d="M2533.2923,765.0045 A15,15 0 0,1 2518.2923,750.0045" style="stroke-width:var(--lw-3);" />
        
        <path d="M2548.2923,750.0045 A15,15 0 0,1 2533.2923,765.0045" style="stroke-width:var(--lw-3);" />
        
        <line x1="2533.2923" y1="765.0045" x2="2533.2923" y2="765.0045" style="stroke-width:var(--lw-3);" />
        
        <line x1="2518.2923" y1="575.1033" x2="2518.2923" y2="750.0045" style="stroke-width:var(--lw-3);" />
        
        <line x1="2548.2923" y1="574.8967" x2="2548.2923" y2="750.0045" style="stroke-width:var(--lw-3);" />
        
        <line x1="2548.2923" y1="574.8967" x2="2518.2923" y2="575.1033" style="stroke-width:var(--lw-3);" />
        
        <line x1="2423.2923" y1="625.8038" x2="2493.2923" y2="625.8038" style="stroke-width:var(--lw-3);" />
        
        <line x1="2493.2923" y1="625.8038" x2="2493.2923" y2="575.8038" style="stroke-width:var(--lw-3);" />
        
        <line x1="2493.2923" y1="575.8038" x2="2423.2923" y2="575.8038" style="stroke-width:var(--lw-3);" />
        
        <line x1="2423.2923" y1="575.8038" x2="2423.2923" y2="625.8038" style="stroke-width:var(--lw-3);" />
        
        <line x1="2423.2923" y1="713.8913" x2="2493.2923" y2="713.8913" style="stroke-width:var(--lw-3);" />
        
        <line x1="2493.2923" y1="713.8913" x2="2493.2923" y2="698.8913" style="stroke-width:var(--lw-3);" />
        
        <line x1="2493.2923" y1="698.8913" x2="2423.2923" y2="698.8913" style="stroke-width:var(--lw-3);" />
        
        <line x1="2423.2923" y1="698.8913" x2="2423.2923" y2="713.8913" style="stroke-width:var(--lw-3);" />
        
        <line x1="2643.2923" y1="713.8913" x2="2573.2923" y2="713.8913" style="stroke-width:var(--lw-3);" />
        
        <line x1="2573.2923" y1="713.8913" x2="2573.2923" y2="698.8913" style="stroke-width:var(--lw-3);" />
        
        <line x1="2573.2923" y1="698.8913" x2="2643.2923" y2="698.8913" style="stroke-width:var(--lw-3);" />
        
        <line x1="2643.2923" y1="698.8913" x2="2643.2923" y2="713.8913" style="stroke-width:var(--lw-3);" />
        
        <line x1="2643.2923" y1="625.8038" x2="2573.2923" y2="625.8038" style="stroke-width:var(--lw-3);" />
        
        <line x1="2573.2923" y1="625.8038" x2="2573.2923" y2="575.8038" style="stroke-width:var(--lw-3);" />
        
        <line x1="2573.2923" y1="575.8038" x2="2643.2923" y2="575.8038" style="stroke-width:var(--lw-3);" />
        
        <line x1="2643.2923" y1="575.8038" x2="2643.2923" y2="625.8038" style="stroke-width:var(--lw-3);" />
        
        <line x1="1273.4255" y1="720.8841" x2="1273.6921" y2="723.0581" style="stroke-width:var(--lw-3);" />
        
        <line x1="1273.6921" y1="723.0581" x2="1274.4986" y2="725.8012" style="stroke-width:var(--lw-3);" />
        
        <line x1="1274.4986" y1="725.8012" x2="1275.3641" y2="727.7563" style="stroke-width:var(--lw-3);" />
        
        <line x1="1275.3641" y1="727.7563" x2="1276.6345" y2="730.3081" style="stroke-width:var(--lw-3);" />
        
        <line x1="1276.6345" y1="730.3081" x2="1278.3346" y2="732.6888" style="stroke-width:var(--lw-3);" />
        
        <line x1="1278.3346" y1="732.6888" x2="1278.4967" y2="732.8724" style="stroke-width:var(--lw-3);" />
        
        <line x1="1278.4967" y1="732.8724" x2="1278.8666" y2="733.5192" style="stroke-width:var(--lw-3);" />
        
        <line x1="1278.8666" y1="733.5192" x2="1279.4886" y2="734.4599" style="stroke-width:var(--lw-3);" />
        
        <line x1="1279.4886" y1="734.4599" x2="1280.1895" y2="735.3878" style="stroke-width:var(--lw-3);" />
        
        <line x1="1280.1895" y1="735.3878" x2="1280.9686" y2="736.2988" style="stroke-width:var(--lw-3);" />
        
        <line x1="1280.9686" y1="736.2988" x2="1281.8243" y2="737.189" style="stroke-width:var(--lw-3);" />
        
        <line x1="1281.8243" y1="737.189" x2="1282.7548" y2="738.0544" style="stroke-width:var(--lw-3);" />
        
        <line x1="1282.7548" y1="738.0544" x2="1283.7572" y2="738.8913" style="stroke-width:var(--lw-3);" />
        
        <line x1="1283.7572" y1="738.8913" x2="1284.8284" y2="739.696" style="stroke-width:var(--lw-3);" />
        
        <line x1="1284.8284" y1="739.696" x2="1285.9644" y2="740.465" style="stroke-width:var(--lw-3);" />
        
        <line x1="1285.9644" y1="740.465" x2="1287.1608" y2="741.1952" style="stroke-width:var(--lw-3);" />
        
        <line x1="1287.1608" y1="741.1952" x2="1288.4126" y2="741.8838" style="stroke-width:var(--lw-3);" />
        
        <line x1="1288.4126" y1="741.8838" x2="1289.7146" y2="742.5281" style="stroke-width:var(--lw-3);" />
        
        <line x1="1289.7146" y1="742.5281" x2="1291.061" y2="743.1262" style="stroke-width:var(--lw-3);" />
        
        <line x1="1291.061" y1="743.1262" x2="1292.4459" y2="743.6763" style="stroke-width:var(--lw-3);" />
        
        <line x1="1292.4459" y1="743.6763" x2="1293.8632" y2="744.177" style="stroke-width:var(--lw-3);" />
        
        <line x1="1293.8632" y1="744.177" x2="1295.3067" y2="744.6276" style="stroke-width:var(--lw-3);" />
        
        <line x1="1295.3067" y1="744.6276" x2="1296.7702" y2="745.0274" style="stroke-width:var(--lw-3);" />
        
        <line x1="1296.7702" y1="745.0274" x2="1298.2474" y2="745.3764" style="stroke-width:var(--lw-3);" />
        
        <line x1="1298.2474" y1="745.3764" x2="1299.7324" y2="745.675" style="stroke-width:var(--lw-3);" />
        
        <line x1="1299.7324" y1="745.675" x2="1301.2195" y2="745.9239" style="stroke-width:var(--lw-3);" />
        
        <line x1="1301.2195" y1="745.9239" x2="1302.703" y2="746.1239" style="stroke-width:var(--lw-3);" />
        
        <line x1="1302.703" y1="746.1239" x2="1304.1777" y2="746.2764" style="stroke-width:var(--lw-3);" />
        
        <line x1="1304.1777" y1="746.2764" x2="1305.6389" y2="746.383" style="stroke-width:var(--lw-3);" />
        
        <line x1="1305.6389" y1="746.383" x2="1307.0819" y2="746.4456" style="stroke-width:var(--lw-3);" />
        
        <line x1="1307.0819" y1="746.4456" x2="1308.5029" y2="746.4659" style="stroke-width:var(--lw-3);" />
        
        <line x1="1308.5029" y1="746.4659" x2="1309.9239" y2="746.4456" style="stroke-width:var(--lw-3);" />
        
        <line x1="1309.9239" y1="746.4456" x2="1311.3669" y2="746.383" style="stroke-width:var(--lw-3);" />
        
        <line x1="1311.3669" y1="746.383" x2="1312.8281" y2="746.2764" style="stroke-width:var(--lw-3);" />
        
        <line x1="1312.8281" y1="746.2764" x2="1314.3028" y2="746.1239" style="stroke-width:var(--lw-3);" />
        
        <line x1="1314.3028" y1="746.1239" x2="1315.7863" y2="745.9239" style="stroke-width:var(--lw-3);" />
        
        <line x1="1315.7863" y1="745.9239" x2="1317.2734" y2="745.675" style="stroke-width:var(--lw-3);" />
        
        <line x1="1317.2734" y1="745.675" x2="1318.7584" y2="745.3764" style="stroke-width:var(--lw-3);" />
        
        <line x1="1318.7584" y1="745.3764" x2="1320.2356" y2="745.0274" style="stroke-width:var(--lw-3);" />
        
        <line x1="1320.2356" y1="745.0274" x2="1321.6991" y2="744.6276" style="stroke-width:var(--lw-3);" />
        
        <line x1="1321.6991" y1="744.6276" x2="1323.1426" y2="744.177" style="stroke-width:var(--lw-3);" />
        
        <line x1="1323.1426" y1="744.177" x2="1324.5599" y2="743.6763" style="stroke-width:var(--lw-3);" />
        
        <line x1="1324.5599" y1="743.6763" x2="1325.9448" y2="743.1262" style="stroke-width:var(--lw-3);" />
        
        <line x1="1325.9448" y1="743.1262" x2="1327.2912" y2="742.5281" style="stroke-width:var(--lw-3);" />
        
        <line x1="1327.2912" y1="742.5281" x2="1328.5932" y2="741.8838" style="stroke-width:var(--lw-3);" />
        
        <line x1="1328.5932" y1="741.8838" x2="1329.845" y2="741.1952" style="stroke-width:var(--lw-3);" />
        
        <line x1="1329.845" y1="741.1952" x2="1331.0414" y2="740.465" style="stroke-width:var(--lw-3);" />
        
        <line x1="1331.0414" y1="740.465" x2="1332.1774" y2="739.696" style="stroke-width:var(--lw-3);" />
        
        <line x1="1332.1774" y1="739.696" x2="1333.2486" y2="738.8913" style="stroke-width:var(--lw-3);" />
        
        <line x1="1333.2486" y1="738.8913" x2="1334.251" y2="738.0544" style="stroke-width:var(--lw-3);" />
        
        <line x1="1334.251" y1="738.0544" x2="1335.1815" y2="737.189" style="stroke-width:var(--lw-3);" />
        
        <line x1="1335.1815" y1="737.189" x2="1336.0373" y2="736.2988" style="stroke-width:var(--lw-3);" />
        
        <line x1="1336.0373" y1="736.2988" x2="1336.8163" y2="735.3878" style="stroke-width:var(--lw-3);" />
        
        <line x1="1336.8163" y1="735.3878" x2="1337.5172" y2="734.4599" style="stroke-width:var(--lw-3);" />
        
        <line x1="1337.5172" y1="734.4599" x2="1338.1392" y2="733.5192" style="stroke-width:var(--lw-3);" />
        
        <line x1="1338.1392" y1="733.5192" x2="1338.5091" y2="732.8724" style="stroke-width:var(--lw-3);" />
        
        <line x1="1338.5091" y1="732.8724" x2="1338.6712" y2="732.6888" style="stroke-width:var(--lw-3);" />
        
        <line x1="1338.6712" y1="732.6888" x2="1340.3713" y2="730.3081" style="stroke-width:var(--lw-3);" />
        
        <line x1="1340.3713" y1="730.3081" x2="1341.6417" y2="727.7563" style="stroke-width:var(--lw-3);" />
        
        <line x1="1341.6417" y1="727.7563" x2="1342.5072" y2="725.8012" style="stroke-width:var(--lw-3);" />
        
        <line x1="1342.5072" y1="725.8012" x2="1343.3137" y2="723.0581" style="stroke-width:var(--lw-3);" />
        
        <line x1="1343.3137" y1="723.0581" x2="1343.5803" y2="720.8841" style="stroke-width:var(--lw-3);" />
        
        <line x1="1343.5803" y1="720.8841" x2="1343.8554" y2="718.0546" style="stroke-width:var(--lw-3);" />
        
        <line x1="1343.8554" y1="718.0546" x2="1343.5803" y2="715.2252" style="stroke-width:var(--lw-3);" />
        
        <line x1="1343.5803" y1="715.2252" x2="1343.4682" y2="714.5456" style="stroke-width:var(--lw-3);" />
        
        <line x1="1343.4682" y1="714.5456" x2="1343.4668" y2="714.5057" style="stroke-width:var(--lw-3);" />
        
        <line x1="1343.4668" y1="714.5057" x2="1343.36" y2="713.4872" style="stroke-width:var(--lw-3);" />
        
        <line x1="1343.36" y1="713.4872" x2="1342.8818" y2="710.4257" style="stroke-width:var(--lw-3);" />
        
        <line x1="1342.8818" y1="710.4257" x2="1342.2546" y2="708.1292" style="stroke-width:var(--lw-3);" />
        
        <line x1="1342.2546" y1="708.1292" x2="1341.4727" y2="705.4695" style="stroke-width:var(--lw-3);" />
        
        <line x1="1341.4727" y1="705.4695" x2="1340.5708" y2="703.2611" style="stroke-width:var(--lw-3);" />
        
        <line x1="1340.5708" y1="703.2611" x2="1339.3415" y2="700.7918" style="stroke-width:var(--lw-3);" />
        
        <line x1="1339.3415" y1="700.7918" x2="1338.1868" y2="698.7482" style="stroke-width:var(--lw-3);" />
        
        <line x1="1338.1868" y1="698.7482" x2="1336.6032" y2="696.5307" style="stroke-width:var(--lw-3);" />
        
        <line x1="1336.6032" y1="696.5307" x2="1335.2362" y2="694.7256" style="stroke-width:var(--lw-3);" />
        
        <line x1="1335.2362" y1="694.7256" x2="1333.4096" y2="692.8013" style="stroke-width:var(--lw-3);" />
        
        <line x1="1333.4096" y1="692.8013" x2="1331.8862" y2="691.2995" style="stroke-width:var(--lw-3);" />
        
        <line x1="1331.8862" y1="691.2995" x2="1329.9338" y2="689.688" style="stroke-width:var(--lw-3);" />
        
        <line x1="1329.9338" y1="689.688" x2="1328.3206" y2="688.5416" style="stroke-width:var(--lw-3);" />
        
        <line x1="1328.3206" y1="688.5416" x2="1326.3548" y2="687.2416" style="stroke-width:var(--lw-3);" />
        
        <line x1="1326.3548" y1="687.2416" x2="1324.285" y2="686.1329" style="stroke-width:var(--lw-3);" />
        
        <line x1="1324.285" y1="686.1329" x2="1323.0881" y2="685.5392" style="stroke-width:var(--lw-3);" />
        
        <line x1="1323.0881" y1="685.5392" x2="1322.9745" y2="685.4841" style="stroke-width:var(--lw-3);" />
        
        <line x1="1322.9745" y1="685.4841" x2="1322.2954" y2="685.1112" style="stroke-width:var(--lw-3);" />
        
        <line x1="1322.2954" y1="685.1112" x2="1321.8489" y2="684.8351" style="stroke-width:var(--lw-3);" />
        
        <line x1="1321.8489" y1="684.8351" x2="1321.511" y2="684.5599" style="stroke-width:var(--lw-3);" />
        
        <line x1="1321.511" y1="684.5599" x2="1320.9169" y2="684.0276" style="stroke-width:var(--lw-3);" />
        
        <line x1="1320.9169" y1="684.0276" x2="1320.7108" y2="683.7887" style="stroke-width:var(--lw-3);" />
        
        <line x1="1320.7108" y1="683.7887" x2="1320.1756" y2="683.1069" style="stroke-width:var(--lw-3);" />
        
        <line x1="1320.1756" y1="683.1069" x2="1320.0175" y2="682.8428" style="stroke-width:var(--lw-3);" />
        
        <line x1="1320.0175" y1="682.8428" x2="1319.6332" y2="682.1296" style="stroke-width:var(--lw-3);" />
        
        <line x1="1319.6332" y1="682.1296" x2="1319.5006" y2="681.7888" style="stroke-width:var(--lw-3);" />
        
        <line x1="1319.5006" y1="681.7888" x2="1319.2854" y2="681.1555" style="stroke-width:var(--lw-3);" />
        
        <line x1="1319.2854" y1="681.1555" x2="1319.1937" y2="680.7202" style="stroke-width:var(--lw-3);" />
        
        <line x1="1319.1937" y1="680.7202" x2="1319.1133" y2="680.2422" style="stroke-width:var(--lw-3);" />
        
        <line x1="1319.1133" y1="680.2422" x2="1319.1154" y2="679.7445" style="stroke-width:var(--lw-3);" />
        
        <line x1="1319.1154" y1="679.7445" x2="1319.1588" y2="678.7437" style="stroke-width:var(--lw-3);" />
        
        <line x1="1319.1588" y1="678.7437" x2="1320.2022" y2="673.0853" style="stroke-width:var(--lw-3);" />
        
        <line x1="1320.2022" y1="673.0853" x2="1320.9163" y2="669.0085" style="stroke-width:var(--lw-3);" />
        
        <line x1="1320.9163" y1="669.0085" x2="1321.558" y2="665.1522" style="stroke-width:var(--lw-3);" />
        
        <line x1="1321.558" y1="665.1522" x2="1322.128" y2="661.52" style="stroke-width:var(--lw-3);" />
        
        <line x1="1322.128" y1="661.52" x2="1322.6276" y2="658.1117" style="stroke-width:var(--lw-3);" />
        
        <line x1="1322.6276" y1="658.1117" x2="1323.0584" y2="654.9276" style="stroke-width:var(--lw-3);" />
        
        <line x1="1323.0584" y1="654.9276" x2="1323.2952" y2="653" style="stroke-width:var(--lw-3);" />
        
        <line x1="1323.2952" y1="653" x2="1323.9513" y2="653" style="stroke-width:var(--lw-3);" />
        
        <line x1="1323.9513" y1="653" x2="1324.1022" y2="649.9009" style="stroke-width:var(--lw-3);" />
        
        <line x1="1324.1022" y1="649.9009" x2="1324.229" y2="646.8007" style="stroke-width:var(--lw-3);" />
        
        <line x1="1324.229" y1="646.8007" x2="1324.3318" y2="643.6996" style="stroke-width:var(--lw-3);" />
        
        <line x1="1324.3318" y1="643.6996" x2="1324.4105" y2="640.5978" style="stroke-width:var(--lw-3);" />
        
        <line x1="1324.4105" y1="640.5978" x2="1324.4105" y2="640.2243" style="stroke-width:var(--lw-3);" />
        
        <line x1="1324.4105" y1="640.2243" x2="1324.4481" y2="639.5669" style="stroke-width:var(--lw-3);" />
        
        <line x1="1324.4481" y1="639.5669" x2="1324.5093" y2="637.7113" style="stroke-width:var(--lw-3);" />
        
        <line x1="1324.5093" y1="637.7113" x2="1324.514" y2="636.1057" style="stroke-width:var(--lw-3);" />
        
        <line x1="1324.514" y1="636.1057" x2="1324.5131" y2="636.0486" style="stroke-width:var(--lw-3);" />
        
        <line x1="1324.5131" y1="636.0486" x2="1324.5121" y2="635.9919" style="stroke-width:var(--lw-3);" />
        
        <line x1="1324.5121" y1="635.9919" x2="1324.5111" y2="635.9356" style="stroke-width:var(--lw-3);" />
        
        <line x1="1324.5111" y1="635.9356" x2="1324.5099" y2="635.8796" style="stroke-width:var(--lw-3);" />
        
        <line x1="1324.5099" y1="635.8796" x2="1324.5083" y2="635.8059" style="stroke-width:var(--lw-3);" />
        
        <line x1="1324.5083" y1="635.8059" x2="1324.5064" y2="635.7328" style="stroke-width:var(--lw-3);" />
        
        <line x1="1324.5064" y1="635.7328" x2="1324.5045" y2="635.6604" style="stroke-width:var(--lw-3);" />
        
        <line x1="1324.5045" y1="635.6604" x2="1324.5024" y2="635.5887" style="stroke-width:var(--lw-3);" />
        
        <line x1="1324.5024" y1="635.5887" x2="1324.3763" y2="634.1255" style="stroke-width:var(--lw-3);" />
        
        <line x1="1324.3763" y1="634.1255" x2="1324.0306" y2="631.9412" style="stroke-width:var(--lw-3);" />
        
        <line x1="1324.0306" y1="631.9412" x2="1323.8433" y2="631.3153" style="stroke-width:var(--lw-3);" />
        
        <line x1="1323.8433" y1="631.3153" x2="1322.8997" y2="628.4388" style="stroke-width:var(--lw-3);" />
        
        <line x1="1322.8997" y1="628.4388" x2="1322.0677" y2="626.9216" style="stroke-width:var(--lw-3);" />
        
        <line x1="1322.0677" y1="626.9216" x2="1321.1796" y2="625.2839" style="stroke-width:var(--lw-3);" />
        
        <line x1="1321.1796" y1="625.2839" x2="1320.5664" y2="624.525" style="stroke-width:var(--lw-3);" />
        
        <line x1="1320.5664" y1="624.525" x2="1324.4005" y2="624.3928" style="stroke-width:var(--lw-3);" />
        
        <line x1="1324.4005" y1="624.3928" x2="1324.4105" y2="623.4022" style="stroke-width:var(--lw-3);" />
        
        <line x1="1324.4105" y1="623.4022" x2="1324.3318" y2="620.3005" style="stroke-width:var(--lw-3);" />
        
        <line x1="1324.3318" y1="620.3005" x2="1324.229" y2="617.1994" style="stroke-width:var(--lw-3);" />
        
        <line x1="1324.229" y1="617.1994" x2="1324.1022" y2="614.0991" style="stroke-width:var(--lw-3);" />
        
        <line x1="1324.1022" y1="614.0991" x2="1323.9513" y2="611" style="stroke-width:var(--lw-3);" />
        
        <line x1="1323.9513" y1="611" x2="1282.1089" y2="611" style="stroke-width:var(--lw-3);" />
        
        <line x1="1282.1089" y1="611" x2="1282.1089" y2="575" style="stroke-width:var(--lw-3);" />
        
        <line x1="1282.1089" y1="575" x2="1281.9793" y2="575" style="stroke-width:var(--lw-3);" />
        
        <line x1="1281.9793" y1="575" x2="1281.5973" y2="575" style="stroke-width:var(--lw-3);" />
        
        <line x1="1281.5973" y1="575" x2="1280.9679" y2="575" style="stroke-width:var(--lw-3);" />
        
        <line x1="1280.9679" y1="575" x2="1280.0877" y2="575" style="stroke-width:var(--lw-3);" />
        
        <line x1="1280.0877" y1="575" x2="1278.9639" y2="575" style="stroke-width:var(--lw-3);" />
        
        <line x1="1278.9639" y1="575" x2="1277.6475" y2="575" style="stroke-width:var(--lw-3);" />
        
        <line x1="1277.6475" y1="575" x2="1276.04" y2="575" style="stroke-width:var(--lw-3);" />
        
        <line x1="1276.04" y1="575" x2="1274.1836" y2="575" style="stroke-width:var(--lw-3);" />
        
        <line x1="1274.1836" y1="575" x2="1272.2696" y2="575" style="stroke-width:var(--lw-3);" />
        
        <line x1="1272.2696" y1="575" x2="1270.1384" y2="575" style="stroke-width:var(--lw-3);" />
        
        <line x1="1270.1384" y1="575" x2="1267.927" y2="575" style="stroke-width:var(--lw-3);" />
        
        <line x1="1267.927" y1="575" x2="1265.6181" y2="575" style="stroke-width:var(--lw-3);" />
        
        <line x1="1265.6181" y1="575" x2="1263.2385" y2="575" style="stroke-width:var(--lw-3);" />
        
        <line x1="1263.2385" y1="575" x2="1260.816" y2="575" style="stroke-width:var(--lw-3);" />
        
        <line x1="1260.816" y1="575" x2="1258.3787" y2="575" style="stroke-width:var(--lw-3);" />
        
        <line x1="1258.3787" y1="575" x2="1255.9553" y2="575" style="stroke-width:var(--lw-3);" />
        
        <line x1="1255.9553" y1="575" x2="1253.5741" y2="575" style="stroke-width:var(--lw-3);" />
        
        <line x1="1253.5741" y1="575" x2="1251.2632" y2="575" style="stroke-width:var(--lw-3);" />
        
        <line x1="1251.2632" y1="575" x2="1249.0499" y2="575" style="stroke-width:var(--lw-3);" />
        
        <line x1="1249.0499" y1="575" x2="1246.9604" y2="575" style="stroke-width:var(--lw-3);" />
        
        <line x1="1246.9604" y1="575" x2="1245.0195" y2="575" style="stroke-width:var(--lw-3);" />
        
        <line x1="1245.0195" y1="575" x2="1243.2503" y2="575" style="stroke-width:var(--lw-3);" />
        
        <line x1="1243.2503" y1="575" x2="1241.6739" y2="575" style="stroke-width:var(--lw-3);" />
        
        <line x1="1241.6739" y1="575" x2="1240.2654" y2="575" style="stroke-width:var(--lw-3);" />
        
        <line x1="1240.2654" y1="575" x2="1239.1629" y2="575" style="stroke-width:var(--lw-3);" />
        
        <line x1="1239.1629" y1="575" x2="1238.2865" y2="575" style="stroke-width:var(--lw-3);" />
        
        <line x1="1238.2865" y1="575" x2="1237.6333" y2="575" style="stroke-width:var(--lw-3);" />
        
        <line x1="1237.6333" y1="575" x2="1237.2279" y2="575" style="stroke-width:var(--lw-3);" />
        
        <line x1="1237.2279" y1="575" x2="1237.1089" y2="575" style="stroke-width:var(--lw-3);" />
        
        <line x1="1237.1089" y1="575" x2="1237.1089" y2="615.5" style="stroke-width:var(--lw-3);" />
        
        <line x1="1237.1089" y1="615.5" x2="1237.1089" y2="656" style="stroke-width:var(--lw-3);" />
        
        <line x1="1237.1089" y1="656" x2="1237.2279" y2="656" style="stroke-width:var(--lw-3);" />
        
        <line x1="1237.2279" y1="656" x2="1237.6333" y2="656" style="stroke-width:var(--lw-3);" />
        
        <line x1="1237.6333" y1="656" x2="1238.2865" y2="656" style="stroke-width:var(--lw-3);" />
        
        <line x1="1238.2865" y1="656" x2="1239.1629" y2="656" style="stroke-width:var(--lw-3);" />
        
        <line x1="1239.1629" y1="656" x2="1240.2654" y2="656" style="stroke-width:var(--lw-3);" />
        
        <line x1="1240.2654" y1="656" x2="1241.6739" y2="656" style="stroke-width:var(--lw-3);" />
        
        <line x1="1241.6739" y1="656" x2="1243.2503" y2="656" style="stroke-width:var(--lw-3);" />
        
        <line x1="1243.2503" y1="656" x2="1245.0195" y2="656" style="stroke-width:var(--lw-3);" />
        
        <line x1="1245.0195" y1="656" x2="1246.9604" y2="656" style="stroke-width:var(--lw-3);" />
        
        <line x1="1246.9604" y1="656" x2="1249.0499" y2="656" style="stroke-width:var(--lw-3);" />
        
        <line x1="1249.0499" y1="656" x2="1251.2632" y2="656" style="stroke-width:var(--lw-3);" />
        
        <line x1="1251.2632" y1="656" x2="1253.5741" y2="656" style="stroke-width:var(--lw-3);" />
        
        <line x1="1253.5741" y1="656" x2="1255.9553" y2="656" style="stroke-width:var(--lw-3);" />
        
        <line x1="1255.9553" y1="656" x2="1258.3787" y2="656" style="stroke-width:var(--lw-3);" />
        
        <line x1="1258.3787" y1="656" x2="1260.816" y2="656" style="stroke-width:var(--lw-3);" />
        
        <line x1="1260.816" y1="656" x2="1263.2385" y2="656" style="stroke-width:var(--lw-3);" />
        
        <line x1="1263.2385" y1="656" x2="1265.6181" y2="656" style="stroke-width:var(--lw-3);" />
        
        <line x1="1265.6181" y1="656" x2="1267.927" y2="656" style="stroke-width:var(--lw-3);" />
        
        <line x1="1267.927" y1="656" x2="1270.1384" y2="656" style="stroke-width:var(--lw-3);" />
        
        <line x1="1270.1384" y1="656" x2="1272.2696" y2="656" style="stroke-width:var(--lw-3);" />
        
        <line x1="1272.2696" y1="656" x2="1274.1836" y2="656" style="stroke-width:var(--lw-3);" />
        
        <line x1="1274.1836" y1="656" x2="1276.04" y2="656" style="stroke-width:var(--lw-3);" />
        
        <line x1="1276.04" y1="656" x2="1277.6475" y2="656" style="stroke-width:var(--lw-3);" />
        
        <line x1="1277.6475" y1="656" x2="1278.9639" y2="656" style="stroke-width:var(--lw-3);" />
        
        <line x1="1278.9639" y1="656" x2="1280.0877" y2="656" style="stroke-width:var(--lw-3);" />
        
        <line x1="1280.0877" y1="656" x2="1280.9679" y2="656" style="stroke-width:var(--lw-3);" />
        
        <line x1="1280.9679" y1="656" x2="1281.5973" y2="656" style="stroke-width:var(--lw-3);" />
        
        <line x1="1281.5973" y1="656" x2="1281.9793" y2="656" style="stroke-width:var(--lw-3);" />
        
        <line x1="1281.9793" y1="656" x2="1282.1089" y2="656" style="stroke-width:var(--lw-3);" />
        
        <line x1="1282.1089" y1="656" x2="1282.1089" y2="653" style="stroke-width:var(--lw-3);" />
        
        <line x1="1282.1089" y1="653" x2="1293.7106" y2="653" style="stroke-width:var(--lw-3);" />
        
        <line x1="1293.7106" y1="653" x2="1293.9475" y2="654.9276" style="stroke-width:var(--lw-3);" />
        
        <line x1="1293.9475" y1="654.9276" x2="1294.3782" y2="658.1117" style="stroke-width:var(--lw-3);" />
        
        <line x1="1294.3782" y1="658.1117" x2="1294.8779" y2="661.52" style="stroke-width:var(--lw-3);" />
        
        <line x1="1294.8779" y1="661.52" x2="1295.4478" y2="665.1522" style="stroke-width:var(--lw-3);" />
        
        <line x1="1295.4478" y1="665.1522" x2="1296.0895" y2="669.0085" style="stroke-width:var(--lw-3);" />
        
        <line x1="1296.0895" y1="669.0085" x2="1296.8037" y2="673.0853" style="stroke-width:var(--lw-3);" />
        
        <line x1="1296.8037" y1="673.0853" x2="1297.847" y2="678.7437" style="stroke-width:var(--lw-3);" />
        
        <line x1="1297.847" y1="678.7437" x2="1297.8904" y2="679.7445" style="stroke-width:var(--lw-3);" />
        
        <line x1="1297.8904" y1="679.7445" x2="1297.8925" y2="680.2422" style="stroke-width:var(--lw-3);" />
        
        <line x1="1297.8925" y1="680.2422" x2="1297.8121" y2="680.7203" style="stroke-width:var(--lw-3);" />
        
        <line x1="1297.8121" y1="680.7203" x2="1297.7204" y2="681.1555" style="stroke-width:var(--lw-3);" />
        
        <line x1="1297.7204" y1="681.1555" x2="1297.5052" y2="681.7888" style="stroke-width:var(--lw-3);" />
        
        <line x1="1297.5052" y1="681.7888" x2="1297.3726" y2="682.1296" style="stroke-width:var(--lw-3);" />
        
        <line x1="1297.3726" y1="682.1296" x2="1296.9883" y2="682.8428" style="stroke-width:var(--lw-3);" />
        
        <line x1="1296.9883" y1="682.8428" x2="1296.8302" y2="683.1069" style="stroke-width:var(--lw-3);" />
        
        <line x1="1296.8302" y1="683.1069" x2="1296.295" y2="683.7887" style="stroke-width:var(--lw-3);" />
        
        <line x1="1296.295" y1="683.7887" x2="1296.0889" y2="684.0276" style="stroke-width:var(--lw-3);" />
        
        <line x1="1296.0889" y1="684.0276" x2="1295.4948" y2="684.5599" style="stroke-width:var(--lw-3);" />
        
        <line x1="1295.4948" y1="684.5599" x2="1295.1569" y2="684.8351" style="stroke-width:var(--lw-3);" />
        
        <line x1="1295.1569" y1="684.8351" x2="1294.7104" y2="685.1112" style="stroke-width:var(--lw-3);" />
        
        <line x1="1294.7104" y1="685.1112" x2="1294.0313" y2="685.4841" style="stroke-width:var(--lw-3);" />
        
        <line x1="1294.0313" y1="685.4841" x2="1293.9177" y2="685.5392" style="stroke-width:var(--lw-3);" />
        
        <line x1="1293.9177" y1="685.5392" x2="1292.7208" y2="686.1329" style="stroke-width:var(--lw-3);" />
        
        <line x1="1292.7208" y1="686.1329" x2="1290.651" y2="687.2416" style="stroke-width:var(--lw-3);" />
        
        <line x1="1290.651" y1="687.2416" x2="1288.6852" y2="688.5416" style="stroke-width:var(--lw-3);" />
        
        <line x1="1288.6852" y1="688.5416" x2="1287.072" y2="689.688" style="stroke-width:var(--lw-3);" />
        
        <line x1="1287.072" y1="689.688" x2="1285.1196" y2="691.2995" style="stroke-width:var(--lw-3);" />
        
        <line x1="1285.1196" y1="691.2995" x2="1283.5962" y2="692.8013" style="stroke-width:var(--lw-3);" />
        
        <line x1="1283.5962" y1="692.8013" x2="1281.7696" y2="694.7256" style="stroke-width:var(--lw-3);" />
        
        <line x1="1281.7696" y1="694.7256" x2="1280.4026" y2="696.5307" style="stroke-width:var(--lw-3);" />
        
        <line x1="1280.4026" y1="696.5307" x2="1278.8191" y2="698.7482" style="stroke-width:var(--lw-3);" />
        
        <line x1="1278.8191" y1="698.7482" x2="1277.6643" y2="700.7918" style="stroke-width:var(--lw-3);" />
        
        <line x1="1277.6643" y1="700.7918" x2="1276.435" y2="703.2611" style="stroke-width:var(--lw-3);" />
        
        <line x1="1276.435" y1="703.2611" x2="1275.5331" y2="705.4695" style="stroke-width:var(--lw-3);" />
        
        <line x1="1275.5331" y1="705.4695" x2="1274.7512" y2="708.1292" style="stroke-width:var(--lw-3);" />
        
        <line x1="1274.7512" y1="708.1292" x2="1274.124" y2="710.4257" style="stroke-width:var(--lw-3);" />
        
        <line x1="1274.124" y1="710.4257" x2="1273.6458" y2="713.4872" style="stroke-width:var(--lw-3);" />
        
        <line x1="1273.6458" y1="713.4872" x2="1273.539" y2="714.5057" style="stroke-width:var(--lw-3);" />
        
        <line x1="1273.539" y1="714.5057" x2="1273.5376" y2="714.5456" style="stroke-width:var(--lw-3);" />
        
        <line x1="1273.5376" y1="714.5456" x2="1273.4255" y2="715.2252" style="stroke-width:var(--lw-3);" />
        
        <line x1="1273.4255" y1="715.2252" x2="1273.1504" y2="718.0546" style="stroke-width:var(--lw-3);" />
        
        <line x1="1273.1504" y1="718.0546" x2="1273.4255" y2="720.8841" style="stroke-width:var(--lw-3);" />
        
        <line x1="738.5823" y1="1375" x2="938.5823" y2="1375" style="stroke-width:var(--lw-3);" />
        
        <line x1="938.5823" y1="1375" x2="938.5823" y2="575" style="stroke-width:var(--lw-4);" />
        
        <line x1="938.5823" y1="575" x2="738.5823" y2="575" style="stroke-width:var(--lw-3);" />
        
        <line x1="738.5823" y1="575" x2="738.5823" y2="1375" style="stroke-width:var(--lw-3);" />
        
        <line x1="1088.5823" y1="1875" x2="1088.5823" y2="1375" style="stroke-width:var(--lw-3);" />
        
        <line x1="738.5823" y1="1875" x2="738.5823" y2="1375" style="stroke-width:var(--lw-3);" />
        
        <line x1="1088.5823" y1="1375" x2="738.5823" y2="1375" style="stroke-width:var(--lw-3);" />
        
        <line x1="1088.5823" y1="1875" x2="738.5823" y2="1875" style="stroke-width:var(--lw-3);" />
        
        <line x1="1068.5823" y1="1855" x2="1068.5823" y2="1395" style="stroke-width:var(--lw-3);" />
        
        <line x1="1068.5823" y1="1395" x2="828.5823" y2="1395" style="stroke-width:var(--lw-3);" />
        
        <line x1="828.5823" y1="1395" x2="828.5823" y2="1605" style="stroke-width:var(--lw-3);" />
        
        <line x1="828.5823" y1="1645" x2="828.5823" y2="1855" style="stroke-width:var(--lw-3);" />
        
        <line x1="828.5823" y1="1855" x2="1068.5823" y2="1855" style="stroke-width:var(--lw-3);" />
        
        <line x1="1088.5823" y1="1875" x2="1088.5823" y2="1375" style="stroke-width:var(--lw-3);" />
        
        <line x1="1048.5823" y1="1375" x2="808.5823" y2="1375" style="stroke-width:var(--lw-3);" />
        
        <line x1="808.5823" y1="1375" x2="808.5823" y2="1605" style="stroke-width:var(--lw-3);" />
        
        <line x1="808.5823" y1="1645" x2="808.5823" y2="1875" style="stroke-width:var(--lw-3);" />
        
        <line x1="808.5823" y1="1875" x2="1048.5823" y2="1875" style="stroke-width:var(--lw-3);" />
        
        <line x1="778.5823" y1="1710" x2="778.5823" y2="1645" style="stroke-width:var(--lw-3);" />
        
        <line x1="778.5823" y1="1605" x2="778.5823" y2="1540" style="stroke-width:var(--lw-3);" />
        
        <line x1="778.5823" y1="1540" x2="738.5823" y2="1540" style="stroke-width:var(--lw-3);" />
        
        <line x1="738.5823" y1="1710" x2="778.5823" y2="1710" style="stroke-width:var(--lw-3);" />
        
        <line x1="878.5823" y1="1645" x2="878.5823" y2="1605" style="stroke-width:var(--lw-3);" />
        
        <line x1="878.5823" y1="1605" x2="743.5823" y2="1605" style="stroke-width:var(--lw-3);" />
        
        <line x1="743.5823" y1="1605" x2="743.5823" y2="1645" style="stroke-width:var(--lw-3);" />
        
        <line x1="743.5823" y1="1645" x2="878.5823" y2="1645" style="stroke-width:var(--lw-3);" />
        
        <line x1="2108.2923" y1="1420" x2="2108.2923" y2="575" style="stroke-width:var(--lw-3);" />
        
        <line x1="2058.2923" y1="2120" x2="2058.2923" y2="575" style="stroke-width:var(--lw-4);" />
        
        <line x1="2058.2923" y1="1420" x2="2108.2923" y2="1420" style="stroke-width:var(--lw-3);" />
        
        <line x1="1768.5823" y1="2120" x2="2958.2923" y2="2120" style="stroke-width:var(--lw-6);" />
        
        <line x1="2958.2923" y1="2120" x2="2958.2923" y2="575" style="stroke-width:var(--lw-6);" />
        
        <line x1="2958.2923" y1="575" x2="738.5823" y2="575" style="stroke-width:var(--lw-6);" />
        
        <line x1="738.5823" y1="575" x2="738.5823" y2="2120" style="stroke-width:var(--lw-6);" />
        
        <line x1="738.5823" y1="2120" x2="968.5823" y2="2120" style="stroke-width:var(--lw-6);" />
        
        <path d="M938.5823,1375 L738.5823,1375" style="stroke-width:var(--lw-4);" />
        
        <path d="M1291.1761,808.982 A166.4331,166.4331 0 0,1 1291.1761,1141.018" style="stroke-width:var(--lw-3);" />
        
        <path d="M1291.6453,800.0553 A175.3643,175.3643 0 0,1 1291.6453,1149.9447" style="stroke-width:var(--lw-3);" />
    </g>
</svg>