<svg xmlns="http://www.w3.org/2000/svg" width="3680.0001mm" height="3555mm" viewBox="-16.0 -3571.0 3712.0001 3587.0" version="1.1" class="svg-drawing">
    <g transform="scale(1,-1)">
        
        <path d="M700.0905,841.4213 L1041.5119,500" style="stroke-width:var(--lw-3);" />
        
        <path d="M0.0001,2870 L0,675" style="stroke-width:var(--lw-1);stroke-dasharray:1rem" />
        
        <path d="M3680.0001,139.9991 L3680.0001,0 L0.0001,0 L0.0001,675" style="stroke-width:var(--lw-6);" />
        
        <path d="M0.0001,2869.992 L0.0001,3555 L3680.0001,3555 L3680.0001,2539.9991" style="stroke-width:var(--lw-6);" />
        
        <path d="M3680.0001,1739.9991 L3680.0001,1040" style="stroke-width:var(--lw-6);" />
        
        <path d="M3680.0001,2539.9992 L3680.0001,1739.9991" style="stroke-width:var(--lw-1);stroke-dasharray:1rem" />
        
        <path d="M3680.0001,1040 L3680.0001,139.9991" style="stroke-width:var(--lw-1);stroke-dasharray:1rem" />
        
        <path d="M20.0001,772.5 L20.0001,2772.5 L110.0001,2772.5 L110.0001,772.5 Z" style="stroke-width:var(--lw-3);" />
        
        <line x1="1093.8737" y1="577.8757" x2="775.6757" y2="896.0737" style="stroke-width:var(--lw-3);" />
        
        <line x1="775.6757" y1="896.0737" x2="899.4194" y2="1019.8174" style="stroke-width:var(--lw-3);" />
        
        <path d="M899.4194,1019.8174 A225,225 41.0614 0 0 1217.6174,701.6193" style="stroke-width:var(--lw-3);" />
        
        <line x1="1217.6174" y1="701.6193" x2="1093.8737" y2="577.8757" style="stroke-width:var(--lw-3);" />
        
        <path d="M864.064,1055.1727 A275,275 41.0614 0 0 1252.9727,666.264" style="stroke-width:var(--lw-3);" />
        
        <line x1="474.9008" y1="660.6666" x2="828.0063" y2="307.5611" style="stroke-width:var(--lw-3);" />
        
        <line x1="828.0063" y1="307.5611" x2="791.215" y2="270.7698" style="stroke-width:var(--lw-3);" />
        
        <line x1="776.5212" y1="256.076" x2="739.73" y2="219.2847" style="stroke-width:var(--lw-3);" />
        
        <line x1="739.73" y1="219.2847" x2="386.6245" y2="572.3902" style="stroke-width:var(--lw-3);" />
        
        <line x1="386.6245" y1="572.3902" x2="423.4158" y2="609.1815" style="stroke-width:var(--lw-3);" />
        
        <line x1="438.1096" y1="623.8753" x2="474.9008" y2="660.6666" style="stroke-width:var(--lw-3);" />
        
        <line x1="261.5568" y1="800.428" x2="967.7678" y2="94.2171" style="stroke-width:var(--lw-3);" />
        
        <line x1="953.074" y1="79.5233" x2="246.863" y2="785.7342" style="stroke-width:var(--lw-3);" />
        
        <line x1="2875.0905" y1="3555" x2="2875.0905" y2="1335" style="stroke-width:var(--lw-3);" />
        
        <line x1="2875.0905" y1="1335" x2="1325.0905" y2="1335" style="stroke-width:var(--lw-3);" />
        
        <line x1="1325.0905" y1="1335" x2="1325.0905" y2="3555" style="stroke-width:var(--lw-3);" />
        
        <line x1="1325.0905" y1="3155" x2="525.0905" y2="3155" style="stroke-width:var(--lw-3);" />
        
        <line x1="525.0905" y1="3155" x2="525.0905" y2="3555" style="stroke-width:var(--lw-3);" />
        
        <line x1="3675.0905" y1="3155" x2="2875.0905" y2="3155" style="stroke-width:var(--lw-3);" />
        
        <line x1="1600.0905" y1="500" x2="2600.0905" y2="500" style="stroke-width:var(--lw-3);" />
        
        <line x1="2600.0905" y1="500" x2="2600.0905" y2="0" style="stroke-width:var(--lw-3);" />
        
        <path d="M1041.5119,500 L1600.0905,500" style="stroke-width:var(--lw-3);" />
        
        <line x1="200.0905" y1="0" x2="200.0905" y2="1400" style="stroke-width:var(--lw-3);" />
        
        <line x1="200.0905" y1="1400" x2="700.0905" y2="1400" style="stroke-width:var(--lw-3);" />
        
        <line x1="700.0905" y1="1400" x2="700.0905" y2="841.4213" style="stroke-width:var(--lw-3);" />
        
        <path d="M1600.0905,500 L1600.0905,0" style="stroke-width:var(--lw-1);stroke-dasharray:1rem" />
        
        <path d="M246.863,785.7342 L261.5568,800.428" style="stroke-width:var(--lw-3);" />
        
        <path d="M953.074,79.5233 L967.7678,94.2171" style="stroke-width:var(--lw-3);" />
        
        <line x1="2645.0905" y1="3015" x2="2685.0905" y2="2975" style="stroke-width:var(--lw-3);" />
        
        <line x1="2685.0905" y1="2975" x2="2795.0905" y2="2975" style="stroke-width:var(--lw-3);" />
        
        <line x1="2795.0905" y1="2975" x2="2795.0905" y2="3395" style="stroke-width:var(--lw-3);" />
        
        <line x1="2795.0905" y1="3395" x2="2165.0905" y2="3395" style="stroke-width:var(--lw-3);" />
        
        <line x1="2165.0905" y1="3395" x2="2165.0905" y2="3015" style="stroke-width:var(--lw-3);" />
        
        <line x1="2065.0905" y1="3015" x2="2645.0905" y2="3015" style="stroke-width:var(--lw-3);" />
        
        <line x1="2005.0905" y1="1385" x2="2825.0905" y2="1385" style="stroke-width:var(--lw-3);" />
        
        <line x1="2825.0905" y1="1385" x2="2825.0905" y2="2835" style="stroke-width:var(--lw-3);" />
        
        <line x1="2825.0905" y1="2835" x2="2645.0905" y2="3015" style="stroke-width:var(--lw-3);" />
        
        <line x1="2825.0905" y1="2835" x2="2645.0905" y2="2835" style="stroke-width:var(--lw-3);" />
        
        <line x1="2645.0905" y1="3015" x2="2645.0905" y2="2835" style="stroke-width:var(--lw-3);" />
        
        <line x1="1555.0905" y1="3015" x2="1515.0905" y2="2975" style="stroke-width:var(--lw-3);" />
        
        <line x1="1515.0905" y1="2975" x2="1405.0905" y2="2975" style="stroke-width:var(--lw-3);" />
        
        <line x1="1405.0905" y1="2975" x2="1405.0905" y2="3395" style="stroke-width:var(--lw-3);" />
        
        <line x1="1405.0905" y1="3395" x2="2035.0905" y2="3395" style="stroke-width:var(--lw-3);" />
        
        <line x1="2035.0905" y1="3395" x2="2035.0905" y2="3015" style="stroke-width:var(--lw-3);" />
        
        <line x1="2135.0905" y1="3015" x2="1555.0905" y2="3015" style="stroke-width:var(--lw-3);" />
        
        <line x1="2195.0905" y1="1385" x2="1375.0905" y2="1385" style="stroke-width:var(--lw-3);" />
        
        <line x1="1375.0905" y1="1385" x2="1375.0905" y2="2835" style="stroke-width:var(--lw-3);" />
        
        <line x1="1375.0905" y1="2835" x2="1555.0905" y2="3015" style="stroke-width:var(--lw-3);" />
        
        <line x1="1375.0905" y1="2835" x2="1555.0905" y2="2835" style="stroke-width:var(--lw-3);" />
        
        <line x1="1555.0905" y1="3015" x2="1555.0905" y2="2835" style="stroke-width:var(--lw-3);" />
        
        <path d="M38.9395,3527.2248 C33.0918,3514.1528 31.0625,3498.9716, 34.2338,3487.2168 M34.2338,3487.2168 C42.5965,3456.2195 87.1233,3449.0488, 129.3646,3452.4315 M129.3646,3452.4315 C149.5105,3454.0447 169.1366,3458.0584, 177.4955,3448.2969 M177.4955,3448.2969 C187.4211,3436.7058 181.4605,3405.6919, 168.0555,3391.7168 M168.0555,3391.7168 C136.7628,3359.0934 64.9027,3419.321, 34.2338,3396.4698 M34.2338,3396.4698 C7.3467,3376.4363 12.1186,3292.5494, 47.2125,3279.7951 M47.2125,3279.7951 C54.972,3276.975 64.2138,3277.6325, 73.1692,3279.7951 M73.1692,3279.7951 C95.9997,3285.3084 116.968,3300.6041, 138.0605,3292.7589 M138.0605,3292.7589 C161.068,3284.2014 184.2233,3248.1099, 173.5823,3229.9223 M173.5823,3229.9223 C167.9011,3220.2118 152.5861,3215.6049, 138.0605,3214.976 M138.0605,3214.976 C113.6019,3213.9169 91.381,3224.1363, 73.1692,3214.976 M73.1692,3214.976 C39.6235,3198.103 19.6797,3115.4781, 47.2125,3098.3009 M47.2125,3098.3009 C59.1706,3090.8405 80.0844,3095.7258, 99.1258,3098.3009 M99.1258,3098.3009 C116.8875,3100.703 133.02,3101.0949, 147.4032,3094.5311 M147.4032,3094.5311 C162.8253,3087.4932 176.2362,3072.4584, 179.4383,3053.6695 M179.4383,3053.6695 C184.562,3023.6055 163.5484,2983.93, 138.0605,2981.6262 M138.0605,2981.6262 C112.8816,2979.3504 83.3363,3013.5454, 60.1905,3007.5539 M60.1905,3007.5539 C33.5722,3000.6634 15.4176,2940.624, 34.2338,2916.8071 M34.2338,2916.8071 C42.4147,2906.4521 57.5842,2902.9442, 73.1692,2903.843 M73.1692,2903.843 C108.0207,2905.8528 144.9493,2929.899, 164.0171,2916.8071 M164.0171,2916.8071 C185.5665,2902.0115 184.3038,2839.7824, 164.0171,2813.0959 M164.0171,2813.0959 C141.1693,2783.0403 94.1909,2798.0681, 47.2125,2813.0959 " style="stroke-width:var(--lw-3);" />
        
        <path d="M38.9395,17.7751 C33.0918,30.8472 31.0625,46.0284, 34.2338,57.7832 M34.2338,57.7832 C42.5965,88.7805 87.1233,95.9512, 129.3646,92.5685 M129.3646,92.5685 C149.5105,90.9552 169.1366,86.9415, 177.4955,96.7031 M177.4955,96.7031 C187.4211,108.2942 181.4605,139.308, 168.0555,153.2831 M168.0555,153.2831 C136.7628,185.9066 64.9027,125.679, 34.2338,148.5302 M34.2338,148.5302 C7.3467,168.5637 12.1186,252.4506, 47.2125,265.2049 M47.2125,265.2049 C54.972,268.025 64.2138,267.3675, 73.1692,265.2049 M73.1692,265.2049 C95.9997,259.6916 116.968,244.3959, 138.0605,252.2411 M138.0605,252.2411 C161.068,260.7986 184.2233,296.8901, 173.5823,315.0777 M173.5823,315.0777 C167.9011,324.7882 152.5861,329.3951, 138.0605,330.024 M138.0605,330.024 C113.6019,331.0831 91.381,320.8637, 73.1692,330.024 M73.1692,330.024 C39.6235,346.897 19.6797,429.5219, 47.2125,446.6991 M47.2125,446.6991 C59.1706,454.1595 80.0844,449.2742, 99.1258,446.6991 M99.1258,446.6991 C116.8875,444.297 133.02,443.9051, 147.4032,450.4688 M147.4032,450.4688 C162.8253,457.5068 176.2362,472.5416, 179.4383,491.3305 M179.4383,491.3305 C184.562,521.3945 163.5484,561.07, 138.0605,563.3738 M138.0605,563.3738 C112.8816,565.6496 83.3363,531.4546, 60.1905,537.4461 M60.1905,537.4461 C33.5722,544.3365 15.4176,604.376, 34.2338,628.1929 M34.2338,628.1929 C42.4147,638.5479 57.5842,642.0558, 73.1692,641.157 M73.1692,641.157 C108.0207,639.1472 144.9493,615.101, 164.0171,628.1929 M164.0171,628.1929 C185.5665,642.9885 184.3038,705.2176, 164.0171,731.9041 M164.0171,731.9041 C141.1693,761.9597 94.1909,746.9319, 47.2125,731.9041 " style="stroke-width:var(--lw-3);" />
    </g>
</svg>