<svg xmlns="http://www.w3.org/2000/svg" width="2230.4128mm" height="2330mm" viewBox="-16.0 -2346.0 2262.4128 2362.0" version="1.1" class="svg-drawing">
    <g transform="scale(1,-1)">
        
        <path d="M535.0004,0 L1685.0004,0" style="stroke-width:var(--lw-1);stroke-dasharray:1rem" />
        
        <path d="M0.0009,1946.587 L0.0013,2330 L2229.7123,2330 L2229.9986,0" style="stroke-width:var(--lw-6);" />
        
        <path d="M535.0004,0 L265.0004,0 L265.0004,905 L0,905.0002 L0.0002,1146.587" style="stroke-width:var(--lw-6);" />
        
        <path d="M0.0009,1946.587 L0.0002,1146.587" style="stroke-width:var(--lw-1);stroke-dasharray:1rem" />
        
        <path d="M1685.0004,0 L2229.9986,0" style="stroke-width:var(--lw-6);" />
        
        <line x1="1629.7123" y1="1430" x2="1629.7123" y2="2330" style="stroke-width:var(--lw-4);" />
        
        <line x1="1679.7123" y1="1510" x2="1679.7123" y2="2330" style="stroke-width:var(--lw-4);" />
        
        <line x1="2229.7123" y1="1430" x2="1629.7123" y2="1430" style="stroke-width:var(--lw-4);" />
        
        <line x1="2229.7123" y1="1510" x2="1629.7123" y2="1510" style="stroke-width:var(--lw-4);" />
        
        <path d="M37.6911,1968.994 L37.6911,2293.994 L937.6911,2293.994 L937.6911,1968.994 Z" style="stroke-width:var(--lw-3);" />
        
        <path d="M860.0004,110 L1360.0004,110 L1360.0004,20 L860.0004,20 Z" style="stroke-width:var(--lw-3);" />
        
        <path d="M1629.9799,696.2735 L2229.9799,696.2735 L2229.9799,96.2735 L1629.9799,96.2735 Z" style="stroke-width:var(--lw-3);" />
        
        <line x1="2121.6247" y1="1852.1667" x2="2106.6247" y2="1852.1667" style="stroke-width:var(--lw-3);" />
        
        <line x1="2121.6247" y1="1830" x2="2121.6247" y2="1860" style="stroke-width:var(--lw-3);" />
        
        <line x1="2121.6247" y1="1837.8333" x2="2106.6247" y2="1837.8333" style="stroke-width:var(--lw-3);" />
        
        <line x1="2179.7123" y1="1830" x2="2121.6247" y2="1830" style="stroke-width:var(--lw-3);" />
        
        <line x1="2121.6247" y1="1860" x2="2179.7123" y2="1860" style="stroke-width:var(--lw-3);" />
        
        <line x1="2150.8335" y1="1935" x2="2120.8335" y2="1935" style="stroke-width:var(--lw-3);" />
        
        <line x1="2120.8335" y1="1905" x2="2150.8335" y2="1905" style="stroke-width:var(--lw-3);" />
        
        <line x1="2120.8335" y1="1935" x2="2120.8335" y2="1905" style="stroke-width:var(--lw-3);" />
        
        <line x1="2120.8335" y1="1927.1667" x2="2095.1668" y2="1927.1667" style="stroke-width:var(--lw-3);" />
        
        <line x1="2120.8335" y1="1912.8333" x2="2080.8335" y2="1912.8333" style="stroke-width:var(--lw-3);" />
        
        <line x1="2095.1668" y1="1927.1667" x2="2095.1668" y2="2008.5" style="stroke-width:var(--lw-3);" />
        
        <line x1="2080.8335" y1="2008.5" x2="2095.1668" y2="2008.5" style="stroke-width:var(--lw-3);" />
        
        <line x1="2080.8335" y1="1912.8333" x2="2080.8335" y2="2008.5" style="stroke-width:var(--lw-3);" />
        
        <line x1="2179.7123" y1="2010" x2="2121.6247" y2="2010" style="stroke-width:var(--lw-3);" />
        
        <line x1="2121.6247" y1="1980" x2="2179.7123" y2="1980" style="stroke-width:var(--lw-3);" />
        
        <line x1="2121.6247" y1="2010" x2="2121.6247" y2="1980" style="stroke-width:var(--lw-3);" />
        
        <line x1="2121.6247" y1="1987.8333" x2="2106.6247" y2="1987.8333" style="stroke-width:var(--lw-3);" />
        
        <line x1="2121.6247" y1="2002.1667" x2="2106.6247" y2="2002.1667" style="stroke-width:var(--lw-3);" />
        
        <path d="M2140.2883,1930 A10,10 0 0,1 2140.2883,1910" style="stroke-width:var(--lw-3);" />
        
        <path d="M2140.2883,1910 A10,10 0 0,1 2140.2883,1930" style="stroke-width:var(--lw-3);" />
        
        <path d="M2040.5115,1920 A15,15 0 0,1 2055.5115,1905" style="stroke-width:var(--lw-3);" />
        
        <path d="M2055.5115,1935 A15,15 0 0,1 2040.5115,1920" style="stroke-width:var(--lw-3);" />
        
        <line x1="2040.5115" y1="1920" x2="2040.5115" y2="1920" style="stroke-width:var(--lw-3);" />
        
        <line x1="2230.4128" y1="1905" x2="2055.5115" y2="1905" style="stroke-width:var(--lw-3);" />
        
        <line x1="2229.7123" y1="1935" x2="2055.5115" y2="1935" style="stroke-width:var(--lw-3);" />
        
        <line x1="2229.7123" y1="1935" x2="2229.7123" y2="1905" style="stroke-width:var(--lw-3);" />
        
        <line x1="2179.7123" y1="1810" x2="2179.7123" y2="1880" style="stroke-width:var(--lw-3);" />
        
        <line x1="2179.7123" y1="1880" x2="2229.7123" y2="1880" style="stroke-width:var(--lw-3);" />
        
        <line x1="2229.7123" y1="1880" x2="2229.7123" y2="1810" style="stroke-width:var(--lw-3);" />
        
        <line x1="2229.7123" y1="1810" x2="2179.7123" y2="1810" style="stroke-width:var(--lw-3);" />
        
        <line x1="2091.6247" y1="1810" x2="2091.6247" y2="1880" style="stroke-width:var(--lw-3);" />
        
        <line x1="2091.6247" y1="1880" x2="2106.6247" y2="1880" style="stroke-width:var(--lw-3);" />
        
        <line x1="2106.6247" y1="1880" x2="2106.6247" y2="1810" style="stroke-width:var(--lw-3);" />
        
        <line x1="2106.6247" y1="1810" x2="2091.6247" y2="1810" style="stroke-width:var(--lw-3);" />
        
        <line x1="2091.6247" y1="2030" x2="2091.6247" y2="1960" style="stroke-width:var(--lw-3);" />
        
        <line x1="2091.6247" y1="1960" x2="2106.6247" y2="1960" style="stroke-width:var(--lw-3);" />
        
        <line x1="2106.6247" y1="1960" x2="2106.6247" y2="2030" style="stroke-width:var(--lw-3);" />
        
        <line x1="2106.6247" y1="2030" x2="2091.6247" y2="2030" style="stroke-width:var(--lw-3);" />
        
        <line x1="2179.7123" y1="2030" x2="2179.7123" y2="1960" style="stroke-width:var(--lw-3);" />
        
        <line x1="2179.7123" y1="1960" x2="2229.7123" y2="1960" style="stroke-width:var(--lw-3);" />
        
        <line x1="2229.7123" y1="1960" x2="2229.7123" y2="2030" style="stroke-width:var(--lw-3);" />
        
        <line x1="2229.7123" y1="2030" x2="2179.7123" y2="2030" style="stroke-width:var(--lw-3);" />
        
        <path d="M1629.9799,1339.8702 L2229.9799,1339.8702 L2229.9799,739.8702 L1629.9799,739.8702 Z" style="stroke-width:var(--lw-3);" />
    </g>
</svg>