<svg xmlns="http://www.w3.org/2000/svg" width="5360mm" height="3555mm" viewBox="-16.0 -3571.0 5392.0 3587.0" version="1.1" class="svg-drawing">
    <g transform="scale(1,-1)">
        
        <path d="M2215,0 L3795,0" style="stroke-width:var(--lw-1);stroke-dasharray:1rem" />
        
        <path d="M815.0001,3555 L3390.0001,3555" style="stroke-width:var(--lw-1);stroke-dasharray:1rem" />
        
        <path d="M0,2870 L0,675" style="stroke-width:var(--lw-1);stroke-dasharray:1rem" />
        
        <path d="M3390,3555 L5360,3555 L5360,0 L3795,0" style="stroke-width:var(--lw-6);" />
        
        <path d="M2215,0 L0,0 L0,675" style="stroke-width:var(--lw-6);" />
        
        <path d="M0,2870 L0,3555 L815,3555" style="stroke-width:var(--lw-6);" />
        
        <line x1="4972.9907" y1="367.2662" x2="4972.9907" y2="567.2662" style="stroke-width:var(--lw-3);" />
        
        <line x1="4902.1174" y1="396.6306" x2="5043.5388" y2="538.052" style="stroke-width:var(--lw-3);" />
        
        <line x1="4872.7662" y1="467.5187" x2="5072.7662" y2="467.5" style="stroke-width:var(--lw-3);" />
        
        <line x1="4902.1373" y1="538.3893" x2="5043.5454" y2="396.9546" style="stroke-width:var(--lw-3);" />
        
        <path d="M2794.3115,3107.9496 A200,200 45 0 1 3090,2932.3259" style="stroke-width:var(--lw-3);" />
        
        <path d="M3090,3283.5734 A200,200 45 0 1 2794.3115,3107.9496" style="stroke-width:var(--lw-3);" />
        
        <path d="M2794.3115,2492.7242 A200,200 45 0 1 3090,2317.1005" style="stroke-width:var(--lw-3);" />
        
        <path d="M3090,2668.348 A200,200 45 0 1 2794.3115,2492.7242" style="stroke-width:var(--lw-3);" />
        
        <path d="M3090,1585 L3690,1585 L3690,2955 L4760,2955 L4760,935 L5360,935 L5360,3105 L5360,3555 L4760,3555 L4760,3555 L3090,3555 Z" style="stroke-width:var(--lw-3);" />
        
        <line x1="4606" y1="885" x2="4606" y2="50" style="stroke-width:var(--lw-3);" />
        
        <line x1="4606" y1="50" x2="5340" y2="50" style="stroke-width:var(--lw-3);" />
        
        <line x1="5340" y1="885" x2="4606" y2="885" style="stroke-width:var(--lw-3);" />
        
        <line x1="5340" y1="885" x2="5340" y2="50" style="stroke-width:var(--lw-3);" />
        
        <line x1="4282.2297" y1="3477.0376" x2="4331.4908" y2="3427.7765" style="stroke-width:var(--lw-3);" />
        
        <line x1="4331.4908" y1="3362.095" x2="4282.2297" y2="3312.8338" style="stroke-width:var(--lw-3);" />
        
        <line x1="4397.1723" y1="3362.095" x2="4446.4334" y2="3312.8338" style="stroke-width:var(--lw-3);" />
        
        <line x1="4446.4334" y1="3477.0376" x2="4397.1723" y2="3427.7765" style="stroke-width:var(--lw-3);" />
        
        <circle cx="4364.3315" cy="3394.9357" r="46.4438" style="stroke-width:var(--lw-3);" />
        
        <line x1="4118.5093" y1="3362.095" x2="4167.7704" y2="3312.8338" style="stroke-width:var(--lw-3);" />
        
        <line x1="4052.8278" y1="3362.095" x2="4003.5667" y2="3312.8338" style="stroke-width:var(--lw-3);" />
        
        <line x1="4118.5093" y1="3083.432" x2="4167.7704" y2="3034.1708" style="stroke-width:var(--lw-3);" />
        
        <line x1="4118.5093" y1="3149.1135" x2="4167.7704" y2="3198.3746" style="stroke-width:var(--lw-3);" />
        
        <line x1="4397.1723" y1="3083.432" x2="4446.4334" y2="3034.1708" style="stroke-width:var(--lw-3);" />
        
        <line x1="4397.1723" y1="3149.1135" x2="4446.4334" y2="3198.3746" style="stroke-width:var(--lw-3);" />
        
        <line x1="4003.5667" y1="3034.1708" x2="4052.8278" y2="3083.432" style="stroke-width:var(--lw-3);" />
        
        <circle cx="4085.6685" cy="3394.9357" r="46.4438" style="stroke-width:var(--lw-3);" />
        
        <circle cx="4085.6685" cy="3116.2727" r="46.4438" style="stroke-width:var(--lw-3);" />
        
        <circle cx="4364.3315" cy="3116.2727" r="46.4438" style="stroke-width:var(--lw-3);" />
        
        <line x1="4282.2297" y1="3034.1708" x2="4331.4908" y2="3083.432" style="stroke-width:var(--lw-3);" />
        
        <line x1="4003.5667" y1="3198.3746" x2="4052.8278" y2="3149.1135" style="stroke-width:var(--lw-3);" />
        
        <line x1="4167.7704" y1="3477.0376" x2="4118.5093" y2="3427.7765" style="stroke-width:var(--lw-3);" />
        
        <line x1="4003.5667" y1="3477.0376" x2="4052.8278" y2="3427.7765" style="stroke-width:var(--lw-3);" />
        
        <line x1="3946.337" y1="3534.2672" x2="3946.337" y2="2976.9412" style="stroke-width:var(--lw-3);" />
        
        <line x1="4503.663" y1="2976.9412" x2="4503.663" y2="3534.2672" style="stroke-width:var(--lw-3);" />
        
        <line x1="3946.337" y1="2976.9412" x2="4503.663" y2="2976.9412" style="stroke-width:var(--lw-3);" />
        
        <line x1="4282.2297" y1="3198.3746" x2="4331.4908" y2="3149.1135" style="stroke-width:var(--lw-3);" />
        
        <line x1="4990" y1="3185" x2="3460" y2="3185" style="stroke-width:var(--lw-1);stroke-dasharray:1rem" />
        
        <path d="M4990,3185 L4990,0" style="stroke-width:var(--lw-1);stroke-dasharray:1rem" />
        
        <path d="M3460,3185 L3460,3554.9161" style="stroke-width:var(--lw-1);stroke-dasharray:1rem" />
        
        <path d="M4798.7239,1870 L5298.7239,1870 L5298.7239,1420 L4798.7239,1420 Z" style="stroke-width:var(--lw-3);" />
        
        <path d="M4828.7239,1840 L5191.1693,1840 L5191.1693,1450 L4828.7239,1450 Z" style="stroke-width:var(--lw-3);" />
        
        <circle cx="5245.812" cy="1645" r="24.4023" style="stroke-width:var(--lw-3);" />
        
        <circle cx="5122.8676" cy="1645" r="24.4023" style="stroke-width:var(--lw-3);" />
        
        <path d="M850,2572.5 L1650,2572.5 L1650,972.5 L850,972.5 Z" style="stroke-width:var(--lw-3);" />
        
        <path d="M1000,972.5 L1000,722.5 L1500,722.5 L1500,972.5" style="stroke-width:var(--lw-3);" />
        
        <path d="M1650,1203.5587 L1900,1203.5587 L1900,1703.5587 L1650,1703.5587" style="stroke-width:var(--lw-3);" />
        
        <path d="M1650,1841.4413 L1900,1841.4413 L1900,2341.4413 L1650,2341.4413" style="stroke-width:var(--lw-3);" />
        
        <path d="M1000,2572.5 L1000,2822.5 L1500,2822.5 L1500,2572.5" style="stroke-width:var(--lw-3);" />
        
        <path d="M850,1203.5587 L600,1203.5587 L600,1703.5587 L850,1703.5587" style="stroke-width:var(--lw-3);" />
        
        <path d="M850,1841.4413 L600,1841.4413 L600,2341.4413 L850,2341.4413" style="stroke-width:var(--lw-3);" />
        
        <path d="M20,2672.5 L120,2672.5 L120,872.5 L20,872.5 Z" style="stroke-width:var(--lw-3);" />
        
        <path d="M3090,1585 L3690,1585" style="stroke-width:var(--lw-3);" />
        
        <path d="M143.91,3416.8307 C137.2374,3408.3494 127.9389,3400.4156, 117.9357,3395.9646 M117.9357,3395.9646 C97.3528,3386.8061 73.786,3392.3929, 66.968,3378.9943 M66.968,3378.9943 C60.156,3365.6077 70.063,3333.2694, 83.9572,3328.0834 M83.9572,3328.0834 C95.7977,3323.664 110.5337,3338.9632, 126.43,3345.0537 M126.43,3345.0537 C135.2872,3348.4471 144.5045,3348.9817, 151.9141,3345.0537 M151.9141,3345.0537 C165.202,3338.0094 172.6765,3316.6134, 168.9033,3302.6279 M168.9033,3302.6279 C163.4298,3282.3394 134.286,3277.646, 106.6381,3279.8601 M106.6381,3279.8601 C93.4521,3280.916 80.6064,3283.543, 75.1353,3277.1539 M75.1353,3277.1539 C68.6388,3269.5672 72.5401,3249.268, 81.314,3240.121 M81.314,3240.121 C101.7958,3218.7682 148.8299,3258.1885, 168.9033,3243.2318 M168.9033,3243.2318 C186.5016,3230.1195 183.3782,3175.2136, 160.4085,3166.8656 M160.4085,3166.8656 C155.3297,3165.0198 149.2807,3165.4501, 143.4193,3166.8656 M143.4193,3166.8656 C128.4761,3170.4742 114.7519,3180.4856, 100.9464,3175.3507 M100.9464,3175.3507 C85.8875,3169.7496 70.7318,3146.1269, 77.6966,3134.2227 M77.6966,3134.2227 C81.4151,3127.867 91.4391,3124.8517, 100.9464,3124.44 M100.9464,3124.44 C116.9551,3123.7468 131.4992,3130.4357, 143.4193,3124.44 M143.4193,3124.44 C165.3756,3113.3963 178.4293,3059.3164, 160.4085,3048.0736 M160.4085,3048.0736 C152.5817,3043.1905 138.8931,3046.3881, 126.43,3048.0736 M126.43,3048.0736 C114.8046,3049.6458 104.2455,3049.9023, 94.8314,3045.6061 M94.8314,3045.6061 C84.7373,3040.9997 75.9596,3031.159, 73.8637,3018.8612 M73.8637,3018.8612 C70.5101,2999.1837 84.264,2973.2152, 100.9464,2971.7073 M100.9464,2971.7073 C117.4266,2970.2177 136.7646,2992.5991, 151.9141,2988.6775 M151.9141,2988.6775 C169.3364,2984.1676 181.219,2944.8704, 168.9033,2929.2817 M168.9033,2929.2817 C163.5488,2922.5041 153.62,2920.2082, 143.4193,2920.7964 M143.4193,2920.7964 C120.6082,2922.1119 96.4376,2937.8506, 83.9572,2929.2817 M83.9572,2929.2817 C69.8527,2919.5977 70.6791,2878.8673, 83.9572,2861.4004 M83.9572,2861.4004 C98.9116,2841.7283 129.6601,2851.5643, 160.4085,2861.4004 " style="stroke-width:var(--lw-3);" />
        
        <path d="M143.91,128.1693 C137.2374,136.6506 127.9389,144.5844, 117.9357,149.0354 M117.9357,149.0354 C97.3528,158.1939 73.786,152.6071, 66.968,166.0056 M66.968,166.0056 C60.156,179.3923 70.063,211.7306, 83.9572,216.9165 M83.9572,216.9165 C95.7977,221.336 110.5337,206.0367, 126.43,199.9463 M126.43,199.9463 C135.2872,196.5529 144.5045,196.0183, 151.9141,199.9463 M151.9141,199.9463 C165.202,206.9906 172.6765,228.3866, 168.9033,242.3721 M168.9033,242.3721 C163.4298,262.6606 134.286,267.3539, 106.6381,265.1399 M106.6381,265.1399 C93.4521,264.084 80.6064,261.4569, 75.1353,267.8461 M75.1353,267.8461 C68.6388,275.4327 72.5401,295.732, 81.314,304.879 M81.314,304.879 C101.7958,326.2318 148.8299,286.8115, 168.9033,301.7681 M168.9033,301.7681 C186.5016,314.8805 183.3782,369.7864, 160.4085,378.1344 M160.4085,378.1344 C155.3297,379.9802 149.2807,379.5498, 143.4193,378.1344 M143.4193,378.1344 C128.4761,374.5258 114.7519,364.5144, 100.9464,369.6493 M100.9464,369.6493 C85.8875,375.2503 70.7318,398.873, 77.6966,410.7773 M77.6966,410.7773 C81.4151,417.133 91.4391,420.1483, 100.9464,420.5599 M100.9464,420.5599 C116.9551,421.2531 131.4992,414.5643, 143.4193,420.5599 M143.4193,420.5599 C165.3756,431.6037 178.4293,485.6836, 160.4085,496.9264 M160.4085,496.9264 C152.5817,501.8094 138.8931,498.6119, 126.43,496.9264 M126.43,496.9264 C114.8046,495.3542 104.2455,495.0977, 94.8314,499.3938 M94.8314,499.3938 C84.7373,504.0003 75.9596,513.841, 73.8637,526.1387 M73.8637,526.1387 C70.5101,545.8163 84.264,571.7848, 100.9464,573.2927 M100.9464,573.2927 C117.4266,574.7823 136.7646,552.4008, 151.9141,556.3224 M151.9141,556.3224 C169.3364,560.8324 181.219,600.1295, 168.9033,615.7182 M168.9033,615.7182 C163.5488,622.4959 153.62,624.7918, 143.4193,624.2036 M143.4193,624.2036 C120.6082,622.8881 96.4376,607.1493, 83.9572,615.7182 M83.9572,615.7182 C69.8527,625.4023 70.6791,666.1327, 83.9572,683.5996 M83.9572,683.5996 C98.9116,703.2717 129.6601,693.4356, 160.4085,683.5996 " style="stroke-width:var(--lw-3);" />
        
        <path d="M754.715,52.8422 L1745.2851,52.8422 L1745.2851,0 L754.715,0 Z" style="stroke-width:var(--lw-3);" />
    </g>
</svg>