<svg xmlns="http://www.w3.org/2000/svg" width="3680.0001mm" height="3555mm" viewBox="-16.0 -3571.0 3712.0001 3587.0" version="1.1" class="svg-drawing">
    <g transform="scale(1,-1)">
        
        <path d="M0.0001,2870 L0,675" style="stroke-width:var(--lw-1);stroke-dasharray:1rem" />
        
        <path d="M3680.0001,139.9991 L3680.0001,0 L0.0001,0 L0.0001,675" style="stroke-width:var(--lw-6);" />
        
        <path d="M0.0001,2869.992 L0.0001,3555 L3680.0001,3555 L3680.0001,2539.9991" style="stroke-width:var(--lw-6);" />
        
        <path d="M3680.0001,1739.9991 L3680.0001,1040" style="stroke-width:var(--lw-6);" />
        
        <path d="M3680.0001,2539.9992 L3680.0001,1739.9991" style="stroke-width:var(--lw-1);stroke-dasharray:1rem" />
        
        <path d="M3680.0001,1040 L3680.0001,139.9991" style="stroke-width:var(--lw-1);stroke-dasharray:1rem" />
        
        <line x1="2875.0905" y1="3555" x2="2875.0905" y2="1335" style="stroke-width:var(--lw-3);" />
        
        <line x1="2875.0905" y1="1335" x2="1325.0905" y2="1335" style="stroke-width:var(--lw-3);" />
        
        <line x1="1325.0905" y1="1335" x2="1325.0905" y2="3555" style="stroke-width:var(--lw-3);" />
        
        <line x1="1325.0905" y1="3155" x2="525.0905" y2="3155" style="stroke-width:var(--lw-3);" />
        
        <line x1="525.0905" y1="3155" x2="525.0905" y2="3555" style="stroke-width:var(--lw-3);" />
        
        <line x1="3675.0905" y1="3155" x2="2875.0905" y2="3155" style="stroke-width:var(--lw-3);" />
        
        <line x1="2645.0905" y1="3015" x2="2685.0905" y2="2975" style="stroke-width:var(--lw-3);" />
        
        <line x1="2685.0905" y1="2975" x2="2795.0905" y2="2975" style="stroke-width:var(--lw-3);" />
        
        <line x1="2795.0905" y1="2975" x2="2795.0905" y2="3395" style="stroke-width:var(--lw-3);" />
        
        <line x1="2795.0905" y1="3395" x2="2165.0905" y2="3395" style="stroke-width:var(--lw-3);" />
        
        <line x1="2165.0905" y1="3395" x2="2165.0905" y2="3015" style="stroke-width:var(--lw-3);" />
        
        <line x1="2100.0905" y1="3015" x2="2645.0905" y2="3015" style="stroke-width:var(--lw-3);" />
        
        <line x1="2100.0905" y1="1385" x2="2825.0905" y2="1385" style="stroke-width:var(--lw-3);" />
        
        <line x1="2825.0905" y1="1385" x2="2825.0905" y2="2835" style="stroke-width:var(--lw-3);" />
        
        <line x1="2825.0905" y1="2835" x2="2645.0905" y2="3015" style="stroke-width:var(--lw-3);" />
        
        <line x1="2825.0905" y1="2835" x2="2645.0905" y2="2835" style="stroke-width:var(--lw-3);" />
        
        <line x1="2645.0905" y1="3015" x2="2645.0905" y2="2835" style="stroke-width:var(--lw-3);" />
        
        <line x1="1555.0905" y1="3015" x2="1515.0905" y2="2975" style="stroke-width:var(--lw-3);" />
        
        <line x1="1515.0905" y1="2975" x2="1405.0905" y2="2975" style="stroke-width:var(--lw-3);" />
        
        <line x1="1405.0905" y1="2975" x2="1405.0905" y2="3395" style="stroke-width:var(--lw-3);" />
        
        <line x1="1405.0905" y1="3395" x2="2035.0905" y2="3395" style="stroke-width:var(--lw-3);" />
        
        <line x1="2035.0905" y1="3395" x2="2035.0905" y2="3015" style="stroke-width:var(--lw-3);" />
        
        <line x1="2100.0905" y1="3015" x2="1555.0905" y2="3015" style="stroke-width:var(--lw-3);" />
        
        <line x1="2100.0905" y1="1385" x2="1375.0905" y2="1385" style="stroke-width:var(--lw-3);" />
        
        <line x1="1375.0905" y1="1385" x2="1375.0905" y2="2835" style="stroke-width:var(--lw-3);" />
        
        <line x1="1375.0905" y1="2835" x2="1555.0905" y2="3015" style="stroke-width:var(--lw-3);" />
        
        <line x1="1375.0905" y1="2835" x2="1555.0905" y2="2835" style="stroke-width:var(--lw-3);" />
        
        <line x1="1555.0905" y1="3015" x2="1555.0905" y2="2835" style="stroke-width:var(--lw-3);" />
        
        <path d="M38.9394,3527.2248 C33.0918,3514.1527 31.0624,3498.9716, 34.2337,3487.2168 M34.2337,3487.2168 C42.5965,3456.2195 87.1233,3449.0488, 129.3646,3452.4315 M129.3646,3452.4315 C149.5105,3454.0447 169.1365,3458.0584, 177.4955,3448.2969 M177.4955,3448.2969 C187.4211,3436.7057 181.4604,3405.6919, 168.0554,3391.7168 M168.0554,3391.7168 C136.7627,3359.0934 64.9026,3419.321, 34.2337,3396.4697 M34.2337,3396.4697 C7.3466,3376.4363 12.1186,3292.5494, 47.2124,3279.795 M47.2124,3279.795 C54.9719,3276.975 64.2138,3277.6324, 73.1691,3279.795 M73.1691,3279.795 C95.9997,3285.3083 116.968,3300.604, 138.0604,3292.7589 M138.0604,3292.7589 C161.068,3284.2014 184.2232,3248.1099, 173.5823,3229.9222 M173.5823,3229.9222 C167.901,3220.2118 152.5861,3215.6049, 138.0604,3214.9759 M138.0604,3214.9759 C113.6018,3213.9169 91.381,3224.1363, 73.1691,3214.9759 M73.1691,3214.9759 C39.6235,3198.103 19.6797,3115.4781, 47.2124,3098.3009 M47.2124,3098.3009 C59.1705,3090.8405 80.0843,3095.7258, 99.1258,3098.3009 M99.1258,3098.3009 C116.8874,3100.703 133.02,3101.0949, 147.4031,3094.5311 M147.4031,3094.5311 C162.8252,3087.4932 176.2361,3072.4584, 179.4382,3053.6694 M179.4382,3053.6694 C184.5619,3023.6055 163.5483,2983.93, 138.0604,2981.6262 M138.0604,2981.6262 C112.8815,2979.3504 83.3362,3013.5454, 60.1904,3007.5538 M60.1904,3007.5538 C33.5721,3000.6634 15.4175,2940.624, 34.2337,2916.8071 M34.2337,2916.8071 C42.4146,2906.4521 57.5842,2902.9442, 73.1691,2903.843 M73.1691,2903.843 C108.0206,2905.8528 144.9492,2929.899, 164.0171,2916.8071 M164.0171,2916.8071 C185.5664,2902.0115 184.3037,2839.7824, 164.0171,2813.0959 M164.0171,2813.0959 C141.1693,2783.0403 94.1908,2798.0681, 47.2124,2813.0959 " style="stroke-width:var(--lw-3);" />
        
        <path d="M38.9394,17.7751 C33.0918,30.8472 31.0624,46.0284, 34.2337,57.7831 M34.2337,57.7831 C42.5965,88.7805 87.1233,95.9512, 129.3646,92.5685 M129.3646,92.5685 C149.5105,90.9552 169.1365,86.9415, 177.4955,96.7031 M177.4955,96.7031 C187.4211,108.2942 181.4604,139.308, 168.0554,153.2831 M168.0554,153.2831 C136.7627,185.9066 64.9026,125.679, 34.2337,148.5302 M34.2337,148.5302 C7.3466,168.5637 12.1186,252.4506, 47.2124,265.2049 M47.2124,265.2049 C54.9719,268.025 64.2138,267.3675, 73.1691,265.2049 M73.1691,265.2049 C95.9997,259.6916 116.968,244.3959, 138.0604,252.2411 M138.0604,252.2411 C161.068,260.7986 184.2232,296.8901, 173.5823,315.0777 M173.5823,315.0777 C167.901,324.7882 152.5861,329.3951, 138.0604,330.024 M138.0604,330.024 C113.6018,331.0831 91.381,320.8637, 73.1691,330.024 M73.1691,330.024 C39.6235,346.897 19.6797,429.5219, 47.2124,446.699 M47.2124,446.699 C59.1705,454.1595 80.0843,449.2742, 99.1258,446.699 M99.1258,446.699 C116.8874,444.297 133.02,443.9051, 147.4031,450.4688 M147.4031,450.4688 C162.8252,457.5068 176.2361,472.5416, 179.4382,491.3305 M179.4382,491.3305 C184.5619,521.3945 163.5483,561.07, 138.0604,563.3737 M138.0604,563.3737 C112.8815,565.6496 83.3362,531.4546, 60.1904,537.4461 M60.1904,537.4461 C33.5721,544.3365 15.4175,604.3759, 34.2337,628.1928 M34.2337,628.1928 C42.4146,638.5479 57.5842,642.0557, 73.1691,641.157 M73.1691,641.157 C108.0206,639.1472 144.9492,615.101, 164.0171,628.1928 M164.0171,628.1928 C185.5664,642.9885 184.3037,705.2175, 164.0171,731.9041 M164.0171,731.9041 C141.1693,761.9597 94.1908,746.9319, 47.2124,731.9041 " style="stroke-width:var(--lw-3);" />
        
        <line x1="1130.001" y1="657.6206" x2="680.001" y2="657.6206" style="stroke-width:var(--lw-3);" />
        
        <line x1="680.001" y1="657.6206" x2="680.001" y2="832.6206" style="stroke-width:var(--lw-3);" />
        
        <path d="M680.001,832.6206 A225,225 86.0614 0 0 1130.001,832.6206" style="stroke-width:var(--lw-3);" />
        
        <line x1="1130.001" y1="832.6206" x2="1130.001" y2="657.6206" style="stroke-width:var(--lw-3);" />
        
        <path d="M630.001,832.6206 A275,275 86.0614 0 0 1180.001,832.6206" style="stroke-width:var(--lw-3);" />
        
        <line x1="660.0689" y1="242.3061" x2="1159.4354" y2="242.3061" style="stroke-width:var(--lw-3);" />
        
        <line x1="1159.4354" y1="242.3061" x2="1159.4354" y2="190.2753" style="stroke-width:var(--lw-3);" />
        
        <line x1="1159.4354" y1="169.4952" x2="1159.4354" y2="117.4644" style="stroke-width:var(--lw-3);" />
        
        <line x1="1159.4354" y1="117.4644" x2="660.0689" y2="117.4644" style="stroke-width:var(--lw-3);" />
        
        <line x1="660.0689" y1="117.4644" x2="660.0689" y2="169.4952" style="stroke-width:var(--lw-3);" />
        
        <line x1="660.0689" y1="190.2753" x2="660.0689" y2="242.3061" style="stroke-width:var(--lw-3);" />
        
        <line x1="410.3856" y1="190.2753" x2="1409.1187" y2="190.2753" style="stroke-width:var(--lw-3);" />
        
        <line x1="1409.1187" y1="169.4952" x2="410.3856" y2="169.4952" style="stroke-width:var(--lw-3);" />
        
        <line x1="1600.0905" y1="600" x2="2600.0905" y2="600" style="stroke-width:var(--lw-3);" />
        
        <line x1="2600.0905" y1="600" x2="2600.0905" y2="0" style="stroke-width:var(--lw-3);" />
        
        <path d="M200.0905,600 L1600.0905,600" style="stroke-width:var(--lw-3);" />
        
        <path d="M2600.0905,0 L200.0905,0 L200.0905,500" style="stroke-width:var(--lw-3);" />
        
        <line x1="200.0905" y1="0" x2="200.0905" y2="600" style="stroke-width:var(--lw-3);" />
        
        <path d="M410.3856,169.4952 L410.3856,190.2753" style="stroke-width:var(--lw-3);" />
        
        <path d="M1409.1187,169.4952 L1409.1187,190.2753" style="stroke-width:var(--lw-3);" />
    </g>
</svg>