<svg xmlns="http://www.w3.org/2000/svg" width="4295mm" height="3900mm" viewBox="-16.0001 -3916.0 4327.0 3932.0" version="1.1" class="svg-drawing">
    <g transform="scale(1,-1)">
        
        <path d="M-0.0001,1385 L-0.0001,185" style="stroke-width:var(--lw-1);stroke-dasharray:1rem" />
        
        <path d="M1422.4999,3900 L4294.9999,3900 L4294.9999,1920 L3099.9999,1920" style="stroke-width:var(--lw-6);" />
        
        <path d="M2299.9999,1920 L1919.9999,1920 L1919.9999,0 L1789.9999,0" style="stroke-width:var(--lw-6);" />
        
        <path d="M754.9999,0 L-0.0001,0 L-0.0001,185" style="stroke-width:var(--lw-6);" />
        
        <path d="M-0.0001,1385 L-0.0001,3900 L522.4999,3900" style="stroke-width:var(--lw-6);" />
        
        <path d="M522.4999,3900 L1422.4999,3900" style="stroke-width:var(--lw-1);stroke-dasharray:1rem" />
        
        <path d="M754.9999,0 L1789.9999,0" style="stroke-width:var(--lw-1);stroke-dasharray:1rem" />
        
        <path d="M2299.9999,1920 L3099.9999,1920" style="stroke-width:var(--lw-1);stroke-dasharray:1rem" />
        
        <path d="M4294.9999,2785 L3419.9999,2785" style="stroke-width:var(--lw-1);stroke-dasharray:1rem" />
        
        <path d="M4294.9999,3035 L3419.9999,3035" style="stroke-width:var(--lw-1);stroke-dasharray:1rem" />
        
        <path d="M3419.9999,3035 L4294.9999,3900" style="stroke-width:var(--lw-1);stroke-dasharray:1rem" />
        
        <path d="M3419.9999,2785 L4294.9999,1920" style="stroke-width:var(--lw-1);stroke-dasharray:1rem" />
        
        <path d="M3169.9999,3035 L3169.9999,3611.6666" style="stroke-width:var(--lw-1);stroke-dasharray:1rem" />
        
        <path d="M3169.9999,3611.6666 L3169.9999,3900" style="stroke-width:var(--lw-4);" />
        
        <path d="M2919.9999,3323.3333 L2919.9999,3900" style="stroke-width:var(--lw-4);" />
        
        <path d="M2669.9999,3035 L2669.9999,3900" style="stroke-width:var(--lw-4);" />
        
        <path d="M2419.9999,3035 L2419.9999,3900" style="stroke-width:var(--lw-4);" />
        
        <path d="M2169.9999,3035 L2169.9999,3900" style="stroke-width:var(--lw-4);" />
        
        <path d="M1919.9999,3035 L1919.9999,3900" style="stroke-width:var(--lw-4);" />
        
        <path d="M1669.9999,3035 L1669.9999,3900" style="stroke-width:var(--lw-4);" />
        
        <path d="M3419.9999,1920 L3419.9999,2785" style="stroke-width:var(--lw-1);stroke-dasharray:1rem" />
        
        <path d="M3169.9999,1920 L3169.9999,2785" style="stroke-width:var(--lw-1);stroke-dasharray:1rem" />
        
        <path d="M2919.9999,1920 L2919.9999,2785" style="stroke-width:var(--lw-1);stroke-dasharray:1rem" />
        
        <path d="M2669.9999,1920 L2669.9999,2785" style="stroke-width:var(--lw-1);stroke-dasharray:1rem" />
        
        <path d="M2419.9999,1920 L2419.9999,2785" style="stroke-width:var(--lw-1);stroke-dasharray:1rem" />
        
        <path d="M2169.9999,1920 L2169.9999,2785" style="stroke-width:var(--lw-1);stroke-dasharray:1rem" />
        
        <path d="M1919.9999,1920 L1919.9999,2785" style="stroke-width:var(--lw-1);stroke-dasharray:1rem" />
        
        <path d="M1669.9999,3035 L2669.9999,3035" style="stroke-width:var(--lw-4);" />
        
        <path d="M2669.9999,3035 L3419.9999,3035 L3419.9999,2785 L1919.9999,2785 L1919.9999,3035" style="stroke-width:var(--lw-1);stroke-dasharray:1rem" />
        
        <path d="M3399.9999,3015 L3399.9999,2805 L1939.9999,2805 L1939.9999,3015 L1939.9999,3015" style="stroke-width:var(--lw-1);stroke-dasharray:1rem" />
        
        <path d="M1939.9999,3015 L1919.9999,3015" style="stroke-width:var(--lw-1);stroke-dasharray:1rem" />
        
        <line x1="299.9999" y1="3900" x2="299.9999" y2="1920" style="stroke-width:var(--lw-3);" />
        
        <line x1="299.9999" y1="1920" x2="-0.0001" y2="1920" style="stroke-width:var(--lw-3);" />
        
        <line x1="299.9999" y1="2900" x2="-0.0001" y2="2900" style="stroke-width:var(--lw-3);" />
        
        <line x1="-0.0001" y1="1920" x2="299.9999" y2="2900" style="stroke-width:var(--lw-3);" />
        
        <line x1="299.9999" y1="1920" x2="-0.0001" y2="2900" style="stroke-width:var(--lw-3);" />
        
        <line x1="-0.0001" y1="2900" x2="299.9999" y2="3900" style="stroke-width:var(--lw-3);" />
        
        <line x1="299.9999" y1="2900" x2="-0.0001" y2="3900" style="stroke-width:var(--lw-3);" />
        
        <path d="M1669.9999,3467.5 L3044.9999,3467.5" style="stroke-width:var(--lw-3);" />
        
        <circle cx="1669.9999" cy="3467.5" r="19.7048" style="stroke-width:var(--lw-3);" />
        
        <path d="M2669.9999,3035 L3419.9999,3900" style="stroke-width:var(--lw-3);" />
        
        <path d="M3419.9999,3035 L3419.9999,3900" style="stroke-width:var(--lw-1);stroke-dasharray:1rem" />
        
        <path d="M2919.9999,3323.3333 L2919.9999,3035" style="stroke-width:var(--lw-1);stroke-dasharray:1rem" />
        
        <path d="M2669.9999,3035 L2669.9999,3015" style="stroke-width:var(--lw-3);" />
        
        <path d="M2669.9999,3015 L3399.9999,3015" style="stroke-width:var(--lw-1);stroke-dasharray:1rem" />
        
        <path d="M3044.9999,3467.5 L2919.9999,3526.6571" style="stroke-width:var(--lw-3);" />
        
        <path d="M3044.9999,3467.5 L2919.9999,3408.3429" style="stroke-width:var(--lw-3);" />
        
        <path d="M2669.9999,3015 L1919.9999,3015" style="stroke-width:var(--lw-4);" />
        
        <path d="M1919.9999,3015 L1919.9999,3035" style="stroke-width:var(--lw-4);" />
        
        <path d="M1619.9999,1435 L1919.9999,1435 L1919.9999,485 L1619.9999,485 Z" style="stroke-width:var(--lw-3);" />
        
        <path d="M1919.9999,1394.0455 L1873.4955,1394.0455 L1873.4955,525.9545 L1919.9999,525.9545 Z" style="stroke-width:var(--lw-3);" />
        
        <path d="M2669.9999,3015 L3399.9999,3015 L3399.9999,1920" style="stroke-width:var(--lw-4);" />
    </g>
</svg>