<svg xmlns="http://www.w3.org/2000/svg" width="4445.0014mm" height="4785mm" viewBox="-16.0 -4801.0 4477.0014 4817.0" version="1.1" class="svg-drawing">
    <g transform="scale(1,-1)">
        
        <path d="M1300.0013,4785 L2880.0013,4785" style="stroke-width:var(--lw-1);stroke-dasharray:1rem" />
        
        <path d="M4445.0013,3480 L4445.0013,4679.9999" style="stroke-width:var(--lw-1);stroke-dasharray:1rem" />
        
        <path d="M0,2485 L0,285" style="stroke-width:var(--lw-1);stroke-dasharray:1rem" />
        
        <path d="M930.0013,0 L3530.0013,0" style="stroke-width:var(--lw-1);stroke-dasharray:1rem" />
        
        <path d="M2880.0013,4785 L4445.0013,4785 L4445.0013,4680" style="stroke-width:var(--lw-6);" />
        
        <path d="M4445.0013,3480 L4445.0013,0 L3530.0014,0" style="stroke-width:var(--lw-6);" />
        
        <path d="M930.0013,0 L0.0013,0 L0.0013,285" style="stroke-width:var(--lw-6);" />
        
        <path d="M0.0013,2485 L0.0013,4785 L1300.0013,4785" style="stroke-width:var(--lw-6);" />
        
        <path d="M20,2285 L120,2285 L120,485 L20,485 Z" style="stroke-width:var(--lw-3);" />
        
        <path d="M1330.0013,20 L1330.0013,120 L3130.0013,120 L3130.0013,20 Z" style="stroke-width:var(--lw-3);" />
        
        <path d="M0.0013,3643.5786 L1141.4227,4785" style="stroke-width:var(--lw-4);" />
        
        <path d="M0.0013,3855.7107 L929.2907,4785" style="stroke-width:var(--lw-6);" />
        
        <path d="M5.0266,4285 L500.0013,4779.9748" style="stroke-width:var(--lw-1);stroke-dasharray:1rem" />
        
        <path d="M358.58,3719.3146 L1065.6868,4426.4214" style="stroke-width:var(--lw-4);" />
        
        <path d="M323.2246,3966.802 L5.0266,4285" style="stroke-width:var(--lw-1);stroke-dasharray:1rem" />
        
        <path d="M818.1994,4461.7767 L500.0013,4779.9748" style="stroke-width:var(--lw-1);stroke-dasharray:1rem" />
        
        <path d="M217.1586,3860.7359 L358.58,3719.3146" style="stroke-width:var(--lw-4);" />
        
        <path d="M924.2654,4567.8427 L1065.6868,4426.4214" style="stroke-width:var(--lw-4);" />
        
        <line x1="4045.0013" y1="240" x2="4045.0013" y2="3240" style="stroke-width:var(--lw-3);" />
        
        <line x1="4045.0013" y1="3240" x2="4445.0013" y2="3240" style="stroke-width:var(--lw-3);" />
        
        <line x1="4445.0013" y1="3240" x2="4445.0013" y2="240" style="stroke-width:var(--lw-3);" />
        
        <line x1="4445.0013" y1="240" x2="4045.0013" y2="240" style="stroke-width:var(--lw-3);" />
        
        <line x1="1826.8962" y1="1541.2684" x2="1826.8962" y2="2841.2684" style="stroke-width:var(--lw-3);" />
        
        <line x1="1826.8962" y1="2841.2684" x2="2626.8962" y2="2841.2684" style="stroke-width:var(--lw-3);" />
        
        <line x1="2626.8962" y1="2841.2684" x2="2626.8962" y2="1541.2684" style="stroke-width:var(--lw-3);" />
        
        <line x1="2626.8962" y1="1541.2684" x2="1826.8962" y2="1541.2684" style="stroke-width:var(--lw-3);" />
        
        <line x1="2459.1435" y1="3277.486" x2="3157.7353" y2="2887.6533" style="stroke-width:var(--lw-3);" />
        
        <line x1="3157.7353" y1="2887.6533" x2="3498.8389" y2="3498.9212" style="stroke-width:var(--lw-3);" />
        
        <line x1="3498.8389" y1="3498.9212" x2="2800.2471" y2="3888.7538" style="stroke-width:var(--lw-3);" />
        
        <line x1="2800.2471" y1="3888.7538" x2="2459.1435" y2="3277.486" style="stroke-width:var(--lw-3);" />
        
        <line x1="2590.1295" y1="3204.3924" x2="2858.1395" y2="3684.6742" style="stroke-width:var(--lw-3);" />
        
        <line x1="3026.7494" y1="2960.747" x2="3294.7593" y2="3441.0288" style="stroke-width:var(--lw-3);" />
        
        <line x1="2858.1395" y1="3684.6742" x2="3294.7593" y2="3441.0288" style="stroke-width:var(--lw-3);" />
        
        <path d="M872.0651,1084.9694 A300,300 45 0 0 872.0651,484.9694" style="stroke-width:var(--lw-3);" />
        
        <path d="M872.0651,484.9694 A300,300 45 0 0 872.0651,1084.9694" style="stroke-width:var(--lw-3);" />
        
        <line x1="3126.6499" y1="1095.3758" x2="1326.6499" y2="1095.3758" style="stroke-width:var(--lw-3);" />
        
        <line x1="1326.6499" y1="1095.3758" x2="1326.6499" y2="195.3758" style="stroke-width:var(--lw-3);" />
        
        <line x1="1326.6499" y1="195.3758" x2="3126.6499" y2="195.3758" style="stroke-width:var(--lw-3);" />
        
        <line x1="3126.6499" y1="195.3758" x2="3126.6499" y2="1095.3758" style="stroke-width:var(--lw-3);" />
        
        <line x1="2976.6499" y1="1095.3758" x2="2976.6499" y2="345.3758" style="stroke-width:var(--lw-3);" />
        
        <line x1="1476.6499" y1="1095.3758" x2="1476.6499" y2="345.3758" style="stroke-width:var(--lw-3);" />
        
        <line x1="2976.6499" y1="345.3758" x2="1476.6499" y2="345.3758" style="stroke-width:var(--lw-3);" />
        
        <line x1="2226.6499" y1="1095.3758" x2="2226.6499" y2="345.3758" style="stroke-width:var(--lw-3);" />
        
        <line x1="1171.9419" y1="1275.94" x2="1171.9419" y2="3075.94" style="stroke-width:var(--lw-3);" />
        
        <line x1="1171.9419" y1="3075.94" x2="271.9419" y2="3075.94" style="stroke-width:var(--lw-3);" />
        
        <line x1="271.9419" y1="3075.94" x2="271.9419" y2="1275.94" style="stroke-width:var(--lw-3);" />
        
        <line x1="271.9419" y1="1275.94" x2="1171.9419" y2="1275.94" style="stroke-width:var(--lw-3);" />
        
        <line x1="1171.9419" y1="1425.94" x2="421.9419" y2="1425.94" style="stroke-width:var(--lw-3);" />
        
        <line x1="1171.9419" y1="2925.94" x2="421.9419" y2="2925.94" style="stroke-width:var(--lw-3);" />
        
        <line x1="421.9419" y1="1425.94" x2="421.9419" y2="2925.94" style="stroke-width:var(--lw-3);" />
        
        <line x1="1171.9419" y1="2175.94" x2="421.9419" y2="2175.94" style="stroke-width:var(--lw-3);" />
        
        <line x1="2154.2267" y1="3567.8525" x2="1455.6349" y2="3178.0198" style="stroke-width:var(--lw-3);" />
        
        <line x1="1455.6349" y1="3178.0198" x2="1114.5313" y2="3789.2876" style="stroke-width:var(--lw-3);" />
        
        <line x1="1114.5313" y1="3789.2876" x2="1813.1231" y2="4179.1203" style="stroke-width:var(--lw-3);" />
        
        <line x1="1813.1231" y1="4179.1203" x2="2154.2267" y2="3567.8525" style="stroke-width:var(--lw-3);" />
        
        <line x1="2023.2407" y1="3494.7588" x2="1755.2308" y2="3975.0407" style="stroke-width:var(--lw-3);" />
        
        <line x1="1586.6209" y1="3251.1134" x2="1318.6109" y2="3731.3953" style="stroke-width:var(--lw-3);" />
        
        <line x1="1755.2308" y1="3975.0407" x2="1318.6109" y2="3731.3953" style="stroke-width:var(--lw-3);" />
        
        <path d="M4374.8854,2577.3209 L4445.0013,2577.3209 L4445.0013,902.6791 L4374.8854,902.6791 Z" style="stroke-width:var(--lw-3);" />
        
        <path d="M60.4646,10.6397 C60.4501,13.4946 60.7651,16.2367, 61.4408,18.7412 M61.4408,18.7412 C66.9144,39.0297 96.0582,43.723, 123.7061,41.509 M123.7061,41.509 C136.892,40.4531 149.7377,37.826, 155.2089,44.2152 M155.2089,44.2152 C161.7054,51.8019 157.804,72.1011, 149.0301,81.2481 M149.0301,81.2481 C128.5484,102.6009 81.5143,63.1806, 61.4408,78.1372 M61.4408,78.1372 C43.8426,91.2496 46.9659,146.1555, 69.9356,154.5035 M69.9356,154.5035 C75.0144,156.3493 81.0634,155.919, 86.9249,154.5035 M86.9249,154.5035 C101.868,150.8949 115.5922,140.8835, 129.3977,146.0184 M129.3977,146.0184 C144.4567,151.6195 159.6123,175.2421, 152.6476,187.1464 M152.6476,187.1464 C148.9291,193.5021 138.9051,196.5174, 129.3977,196.9291 M129.3977,196.9291 C113.389,197.6222 98.845,190.9334, 86.9249,196.9291 M86.9249,196.9291 C64.9685,207.9728 51.9148,262.0527, 69.9356,273.2955 M69.9356,273.2955 C77.7625,278.1785 91.4511,274.981, 103.9141,273.2955 M103.9141,273.2955 C115.5395,271.7233 126.0986,271.4668, 135.5127,275.7629 M135.5127,275.7629 C145.6068,280.3694 154.3846,290.2101, 156.4804,302.5078 M156.4804,302.5078 C159.834,322.1854 146.0801,348.1539, 129.3977,349.6618 M129.3977,349.6618 C112.9176,351.1514 93.5795,328.7699, 78.43,332.6915 M78.43,332.6915 C61.0078,337.2015 49.1251,376.4986, 61.4408,392.0873 M61.4408,392.0873 C66.7954,398.865 76.7242,401.1609, 86.9249,400.5727 M86.9249,400.5727 C109.736,399.2572 133.9066,383.5184, 146.3869,392.0873 M146.3869,392.0873 C160.4915,401.7714 159.665,442.5018, 146.3869,459.9687 M146.3869,459.9687 C131.4325,479.6408 100.6841,469.8047, 69.9356,459.9687 " style="stroke-width:var(--lw-3);" />
        
        <path d="M116.6064,2814.4114 C108.8302,2810.3031 100.4085,2804.1347, 91.6332,2800.7726 M91.6332,2800.7726 C82.7761,2797.3791 73.5588,2796.8445, 66.1491,2800.7726 M66.1491,2800.7726 C52.8613,2807.8168 45.3868,2829.2128, 49.1599,2843.1984 M49.1599,2843.1984 C54.6335,2863.4868 83.7773,2868.1802, 111.4252,2865.9662 M111.4252,2865.9662 C124.6111,2864.9102 137.4568,2862.2832, 142.928,2868.6724 M142.928,2868.6724 C149.4245,2876.259 145.5231,2896.5583, 136.7492,2905.7053 M136.7492,2905.7053 C116.2674,2927.0581 69.2334,2887.6377, 49.1599,2902.5944 M49.1599,2902.5944 C31.5616,2915.7068 34.685,2970.6126, 57.6547,2978.9606 M57.6547,2978.9606 C62.7335,2980.8064 68.7825,2980.3761, 74.644,2978.9606 M74.644,2978.9606 C89.5871,2975.3521 103.3113,2965.3407, 117.1168,2970.4755 M117.1168,2970.4755 C132.1758,2976.0766 147.3314,2999.6993, 140.3667,3011.6035 M140.3667,3011.6035 C136.6482,3017.9592 126.6242,3020.9745, 117.1168,3021.3862 M117.1168,3021.3862 C101.1081,3022.0794 86.564,3015.3906, 74.644,3021.3862 M74.644,3021.3862 C52.6876,3032.4299 39.6339,3086.5098, 57.6547,3097.7527 M57.6547,3097.7527 C65.4816,3102.6357 79.1701,3099.4381, 91.6332,3097.7527 M91.6332,3097.7527 C103.2586,3096.1805 113.8177,3095.9239, 123.2318,3100.2201 M123.2318,3100.2201 C133.3259,3104.8266 142.1037,3114.6672, 144.1995,3126.965 M144.1995,3126.965 C147.5531,3146.6425 133.7992,3172.611, 117.1168,3174.1189 M117.1168,3174.1189 C100.6367,3175.6085 81.2986,3153.2271, 66.1491,3157.1487 M66.1491,3157.1487 C48.7268,3161.6586 36.8442,3200.9558, 49.1599,3216.5445 M49.1599,3216.5445 C54.5145,3223.3221 64.4433,3225.6181, 74.644,3225.0298 M74.644,3225.0298 C97.4551,3223.7143 121.6257,3207.9756, 134.106,3216.5445 M134.106,3216.5445 C148.2106,3226.2286 147.3841,3266.9589, 134.106,3284.4258 M134.106,3284.4258 C119.1516,3304.0979 88.4032,3294.2619, 57.6547,3284.4258 " style="stroke-width:var(--lw-3);" />
        
        <path d="M60.4646,2353.8286 C60.4501,2356.6834 60.7651,2359.4256, 61.4408,2361.9301 M61.4408,2361.9301 C66.9144,2382.2186 96.0582,2386.9119, 123.7061,2384.6979 M123.7061,2384.6979 C136.892,2383.642 149.7377,2381.0149, 155.2089,2387.4041 M155.2089,2387.4041 C161.7054,2394.9907 157.804,2415.29, 149.0301,2424.437 M149.0301,2424.437 C128.5484,2445.7898 81.5143,2406.3695, 61.4408,2421.3261 M61.4408,2421.3261 C43.8426,2434.4385 46.9659,2489.3443, 69.9356,2497.6923 M69.9356,2497.6923 C75.0144,2499.5381 81.0634,2499.1078, 86.9249,2497.6923 M86.9249,2497.6923 C101.868,2494.0838 115.5922,2484.0724, 129.3977,2489.2072 M129.3977,2489.2072 C144.4567,2494.8083 159.6123,2518.431, 152.6476,2530.3352 M152.6476,2530.3352 C148.9291,2536.6909 138.9051,2539.7062, 129.3977,2540.1179 M129.3977,2540.1179 C113.389,2540.8111 98.845,2534.1223, 86.9249,2540.1179 M86.9249,2540.1179 C64.9685,2551.1617 51.9148,2605.2415, 69.9356,2616.4844 M69.9356,2616.4844 C77.7625,2621.3674 91.4511,2618.1699, 103.9141,2616.4844 M103.9141,2616.4844 C115.5395,2614.9122 126.0986,2614.6557, 135.5127,2618.9518 M135.5127,2618.9518 C145.6068,2623.5583 154.3846,2633.3989, 156.4804,2645.6967 M156.4804,2645.6967 C159.834,2665.3742 146.0801,2691.3427, 129.3977,2692.8506 M129.3977,2692.8506 C112.9176,2694.3402 93.5795,2671.9588, 78.43,2675.8804 M78.43,2675.8804 C61.0078,2680.3903 49.1251,2719.6875, 61.4408,2735.2762 M61.4408,2735.2762 C66.7954,2742.0538 76.7242,2744.3498, 86.9249,2743.7615 M86.9249,2743.7615 C109.736,2742.4461 133.9066,2726.7073, 146.3869,2735.2762 M146.3869,2735.2762 C160.4915,2744.9603 159.665,2785.6906, 146.3869,2803.1576 M146.3869,2803.1576 C139.3834,2812.3705 128.9158,2815.1115, 116.6064,2814.4114 " style="stroke-width:var(--lw-3);" />
        
        <path d="M3857.6479,139.7736 C3861.7562,131.9974 3867.9246,123.5756, 3871.2867,114.8004 M3871.2867,114.8004 C3874.6802,105.9433 3875.2148,96.7259, 3871.2867,89.3163 M3871.2867,89.3163 C3864.2425,76.0284 3842.8465,68.5539, 3828.8609,72.3271 M3828.8609,72.3271 C3808.5725,77.8007 3803.8791,106.9444, 3806.0931,134.5924 M3806.0931,134.5924 C3807.1491,147.7783 3809.7761,160.624, 3803.387,166.0951 M3803.387,166.0951 C3795.8003,172.5917 3775.5011,168.6903, 3766.354,159.9164 M3766.354,159.9164 C3745.0013,139.4346 3784.4216,92.4005, 3769.4649,72.3271 M3769.4649,72.3271 C3756.3526,54.7288 3701.4467,57.8522, 3693.0987,80.8219 M3693.0987,80.8219 C3691.2529,85.9007 3691.6832,91.9497, 3693.0987,97.8111 M3693.0987,97.8111 C3696.7073,112.7543 3706.7186,126.4785, 3701.5838,140.284 M3701.5838,140.284 C3695.9827,155.3429 3672.36,170.4986, 3660.4558,163.5338 M3660.4558,163.5338 C3654.1001,159.8153 3651.0848,149.7914, 3650.6731,140.284 M3650.6731,140.284 C3649.9799,124.2753 3656.6687,109.7312, 3650.6731,97.8111 M3650.6731,97.8111 C3639.6294,75.8548 3585.5495,62.8011, 3574.3066,80.8219 M3574.3066,80.8219 C3569.4236,88.6487 3572.6212,102.3373, 3574.3066,114.8004 M3574.3066,114.8004 C3575.8788,126.4258 3576.1354,136.9849, 3571.8392,146.399 M3571.8392,146.399 C3567.2328,156.4931 3557.3921,165.2708, 3545.0943,167.3667 M3545.0943,167.3667 C3525.4168,170.7203 3499.4483,156.9664, 3497.9404,140.284 M3497.9404,140.284 C3496.4508,123.8038 3518.8322,104.4658, 3514.9106,89.3163 M3514.9106,89.3163 C3510.4007,71.894 3471.1035,60.0114, 3455.5148,72.3271 M3455.5148,72.3271 C3448.7372,77.6816 3446.4412,87.6105, 3447.0295,97.8111 M3447.0295,97.8111 C3448.345,120.6223 3464.0837,144.7929, 3455.5148,157.2732 M3455.5148,157.2732 C3445.8307,171.3778 3405.1004,170.5513, 3387.6335,157.2732 M3387.6335,157.2732 C3367.9614,142.3188 3377.7974,111.5703, 3387.6335,80.8219 " style="stroke-width:var(--lw-3);" />
        
        <path d="M4318.2307,83.6318 C4315.3759,83.6173 4312.6337,83.9323, 4310.1292,84.608 M4310.1292,84.608 C4289.8408,90.0816 4285.1474,119.2254, 4287.3614,146.8733 M4287.3614,146.8733 C4288.4174,160.0592 4291.0444,172.9049, 4284.6552,178.376 M4284.6552,178.376 C4277.0686,184.8726 4256.7693,180.9712, 4247.6223,172.1973 M4247.6223,172.1973 C4226.2695,151.7155 4265.6899,104.6814, 4250.7332,84.608 M4250.7332,84.608 C4237.6209,67.0097 4182.715,70.1331, 4174.367,93.1028 M4174.367,93.1028 C4172.5212,98.1816 4172.9515,104.2306, 4174.367,110.092 M4174.367,110.092 C4177.9756,125.0352 4187.9869,138.7594, 4182.8521,152.5649 M4182.8521,152.5649 C4177.251,167.6239 4153.6283,182.7795, 4141.7241,175.8147 M4141.7241,175.8147 C4135.3684,172.0962 4132.3531,162.0723, 4131.9414,152.5649 M4131.9414,152.5649 C4131.2482,136.5562 4137.937,122.0121, 4131.9414,110.092 M4131.9414,110.092 C4120.8977,88.1357 4066.8178,75.082, 4055.5749,93.1028 M4055.5749,93.1028 C4050.6919,100.9297 4053.8895,114.6182, 4055.5749,127.0813 M4055.5749,127.0813 C4057.1471,138.7067 4057.4037,149.2658, 4053.1075,158.6799 M4053.1075,158.6799 C4048.501,168.774 4038.6604,177.5517, 4026.3626,179.6476 M4026.3626,179.6476 C4006.6851,183.0012 3980.7166,169.2473, 3979.2087,152.5649 M3979.2087,152.5649 C3977.7191,136.0847 4000.1005,116.7467, 3996.1789,101.5972 M3996.1789,101.5972 C3991.669,84.1749 3952.3718,72.2923, 3936.7831,84.608 M3936.7831,84.608 C3930.0055,89.9626 3927.7095,99.8914, 3928.2978,110.092 M3928.2978,110.092 C3929.6133,132.9032 3945.352,157.0738, 3936.7831,169.5541 M3936.7831,169.5541 C3927.099,183.6587 3886.3687,182.8322, 3868.9018,169.5541 M3868.9018,169.5541 C3859.6888,162.5506 3856.9478,152.0829, 3857.6479,139.7736 " style="stroke-width:var(--lw-3);" />
        
        <path d="M638.5353,139.7736 C642.6436,131.9974 648.812,123.5756, 652.1742,114.8004 M652.1742,114.8004 C655.5676,105.9433 656.1022,96.7259, 652.1742,89.3163 M652.1742,89.3163 C645.1299,76.0284 623.7339,68.5539, 609.7484,72.3271 M609.7484,72.3271 C589.4599,77.8007 584.7665,106.9444, 586.9806,134.5924 M586.9806,134.5924 C588.0365,147.7783 590.6636,160.624, 584.2744,166.0951 M584.2744,166.0951 C576.6877,172.5917 556.3885,168.6903, 547.2415,159.9164 M547.2415,159.9164 C525.8887,139.4346 565.309,92.4005, 550.3524,72.3271 M550.3524,72.3271 C537.24,54.7288 482.3341,57.8522, 473.9861,80.8219 M473.9861,80.8219 C472.1403,85.9007 472.5706,91.9497, 473.9861,97.8111 M473.9861,97.8111 C477.5947,112.7543 487.6061,126.4785, 482.4712,140.284 M482.4712,140.284 C476.8701,155.3429 453.2474,170.4986, 441.3432,163.5338 M441.3432,163.5338 C434.9875,159.8153 431.9722,149.7914, 431.5605,140.284 M431.5605,140.284 C430.8674,124.2753 437.5562,109.7312, 431.5605,97.8111 M431.5605,97.8111 C420.5168,75.8548 366.4369,62.8011, 355.1941,80.8219 M355.1941,80.8219 C350.3111,88.6487 353.5086,102.3373, 355.1941,114.8004 M355.1941,114.8004 C356.7663,126.4258 357.0228,136.9849, 352.7267,146.399 M352.7267,146.399 C348.1202,156.4931 338.2795,165.2708, 325.9818,167.3667 M325.9818,167.3667 C306.3042,170.7203 280.3357,156.9664, 278.8278,140.284 M278.8278,140.284 C277.3382,123.8038 299.7196,104.4658, 295.7981,89.3163 M295.7981,89.3163 C291.2881,71.894 251.9909,60.0114, 236.4022,72.3271 M236.4022,72.3271 C229.6246,77.6816 227.3287,87.6105, 227.9169,97.8111 M227.9169,97.8111 C229.2324,120.6223 244.9712,144.7929, 236.4022,157.2732 M236.4022,157.2732 C226.7182,171.3778 185.9878,170.5513, 168.5209,157.2732 M168.5209,157.2732 C148.8488,142.3188 158.6848,111.5703, 168.5209,80.8219 " style="stroke-width:var(--lw-3);" />
        
        <path d="M1099.1181,83.6318 C1096.2633,83.6173 1093.5212,83.9323, 1091.0167,84.608 M1091.0167,84.608 C1070.7282,90.0816 1066.0348,119.2254, 1068.2489,146.8733 M1068.2489,146.8733 C1069.3048,160.0592 1071.9318,172.9049, 1065.5427,178.376 M1065.5427,178.376 C1057.956,184.8726 1037.6568,180.9712, 1028.5098,172.1973 M1028.5098,172.1973 C1007.157,151.7155 1046.5773,104.6814, 1031.6206,84.608 M1031.6206,84.608 C1018.5083,67.0097 963.6024,70.1331, 955.2544,93.1028 M955.2544,93.1028 C953.4086,98.1816 953.8389,104.2306, 955.2544,110.092 M955.2544,110.092 C958.863,125.0352 968.8744,138.7594, 963.7395,152.5649 M963.7395,152.5649 C958.1384,167.6239 934.5157,182.7795, 922.6115,175.8147 M922.6115,175.8147 C916.2558,172.0962 913.2405,162.0723, 912.8288,152.5649 M912.8288,152.5649 C912.1356,136.5562 918.8244,122.0121, 912.8288,110.092 M912.8288,110.092 C901.7851,88.1357 847.7052,75.082, 836.4624,93.1028 M836.4624,93.1028 C831.5793,100.9297 834.7769,114.6182, 836.4624,127.0813 M836.4624,127.0813 C838.0345,138.7067 838.2911,149.2658, 833.9949,158.6799 M833.9949,158.6799 C829.3885,168.774 819.5478,177.5517, 807.25,179.6476 M807.25,179.6476 C787.5725,183.0012 761.604,169.2473, 760.0961,152.5649 M760.0961,152.5649 C758.6065,136.0847 780.9879,116.7467, 777.0663,101.5972 M777.0663,101.5972 C772.5564,84.1749 733.2592,72.2923, 717.6705,84.608 M717.6705,84.608 C710.8929,89.9626 708.597,99.8914, 709.1852,110.092 M709.1852,110.092 C710.5007,132.9032 726.2394,157.0738, 717.6705,169.5541 M717.6705,169.5541 C707.9865,183.6587 667.2561,182.8322, 649.7892,169.5541 M649.7892,169.5541 C640.5762,162.5506 637.8353,152.0829, 638.5353,139.7736 " style="stroke-width:var(--lw-3);" />
    </g>
</svg>