<svg xmlns="http://www.w3.org/2000/svg" width="2219.71mm" height="1545mm" viewBox="-16.0 -1561.0 2251.71 1577.0" version="1.1" class="svg-drawing">
    <g transform="scale(1,-1)">
        
        <line x1="230" y1="1545" x2="1030" y2="1545" style="stroke-width:var(--lw-1);stroke-dasharray:1rem" />
        
        <line x1="200.1083" y1="225.0553" x2="553.063" y2="225.0553" style="stroke-width:var(--lw-3);" />
        
        <line x1="262.0514" y1="400" x2="262.0514" y2="540.8965" style="stroke-width:var(--lw-3);" />
        
        <line x1="552.5938" y1="225.0553" x2="262.0514" y2="259.1035" style="stroke-width:var(--lw-3);" />
        
        <line x1="262.0514" y1="400" x2="262.0514" y2="259.1035" style="stroke-width:var(--lw-3);" />
        
        <line x1="552.5938" y1="574.9447" x2="262.0514" y2="540.8965" style="stroke-width:var(--lw-3);" />
        
        <line x1="552.5938" y1="233.982" x2="262.0514" y2="268.0303" style="stroke-width:var(--lw-3);" />
        
        <line x1="552.5938" y1="566.018" x2="262.0514" y2="531.9698" style="stroke-width:var(--lw-3);" />
        
        <line x1="199.8917" y1="574.9447" x2="553.063" y2="574.9447" style="stroke-width:var(--lw-3);" />
        
        <path d="M200.1083,225.0553 L199.8917,574.9447" style="stroke-width:var(--lw-3);" />
        
        <line x1="1248.637" y1="79.9283" x2="1248.637" y2="18.5532" style="stroke-width:var(--lw-3);" />
        
        <line x1="1248.637" y1="18.5532" x2="848.637" y2="18.5532" style="stroke-width:var(--lw-3);" />
        
        <line x1="848.637" y1="18.5532" x2="848.637" y2="79.9283" style="stroke-width:var(--lw-3);" />
        
        <line x1="848.637" y1="79.9283" x2="1248.637" y2="79.9283" style="stroke-width:var(--lw-3);" />
        
        <path d="M1779.71,187.1721 A105.0308,105.0308 0 1,1 1759.71,187.1721" style="stroke-width:var(--lw-3);" />
        
        <path d="M1779.71,182.7205 A109.463,109.463 0 1,1 1759.71,182.7205" style="stroke-width:var(--lw-3);" />
        
        <path d="M1779.71,291.7258 A10,10 0 0,1 1759.71,291.7258" style="stroke-width:var(--lw-3);" />
        
        <line x1="1759.71" y1="0" x2="1759.71" y2="291.7258" style="stroke-width:var(--lw-3);" />
        
        <line x1="1779.71" y1="0" x2="1779.71" y2="291.7258" style="stroke-width:var(--lw-3);" />
        
        <line x1="534.8432" y1="145.8841" x2="535.1099" y2="148.0581" style="stroke-width:var(--lw-3);" />
        
        <line x1="535.1099" y1="148.0581" x2="535.9163" y2="150.8012" style="stroke-width:var(--lw-3);" />
        
        <line x1="535.9163" y1="150.8012" x2="536.7819" y2="152.7563" style="stroke-width:var(--lw-3);" />
        
        <line x1="536.7819" y1="152.7563" x2="538.0522" y2="155.3081" style="stroke-width:var(--lw-3);" />
        
        <line x1="538.0522" y1="155.3081" x2="539.7523" y2="157.6888" style="stroke-width:var(--lw-3);" />
        
        <line x1="539.7523" y1="157.6888" x2="539.9144" y2="157.8724" style="stroke-width:var(--lw-3);" />
        
        <line x1="539.9144" y1="157.8724" x2="540.2843" y2="158.5192" style="stroke-width:var(--lw-3);" />
        
        <line x1="540.2843" y1="158.5192" x2="540.9064" y2="159.4599" style="stroke-width:var(--lw-3);" />
        
        <line x1="540.9064" y1="159.4599" x2="541.6073" y2="160.3878" style="stroke-width:var(--lw-3);" />
        
        <line x1="541.6073" y1="160.3878" x2="542.3863" y2="161.2988" style="stroke-width:var(--lw-3);" />
        
        <line x1="542.3863" y1="161.2988" x2="543.242" y2="162.189" style="stroke-width:var(--lw-3);" />
        
        <line x1="543.242" y1="162.189" x2="544.1725" y2="163.0544" style="stroke-width:var(--lw-3);" />
        
        <line x1="544.1725" y1="163.0544" x2="545.175" y2="163.8913" style="stroke-width:var(--lw-3);" />
        
        <line x1="545.175" y1="163.8913" x2="546.2461" y2="164.696" style="stroke-width:var(--lw-3);" />
        
        <line x1="546.2461" y1="164.696" x2="547.3821" y2="165.465" style="stroke-width:var(--lw-3);" />
        
        <line x1="547.3821" y1="165.465" x2="548.5785" y2="166.1952" style="stroke-width:var(--lw-3);" />
        
        <line x1="548.5785" y1="166.1952" x2="549.8304" y2="166.8838" style="stroke-width:var(--lw-3);" />
        
        <line x1="549.8304" y1="166.8838" x2="551.1323" y2="167.5281" style="stroke-width:var(--lw-3);" />
        
        <line x1="551.1323" y1="167.5281" x2="552.4787" y2="168.1262" style="stroke-width:var(--lw-3);" />
        
        <line x1="552.4787" y1="168.1262" x2="553.8637" y2="168.6763" style="stroke-width:var(--lw-3);" />
        
        <line x1="553.8637" y1="168.6763" x2="555.281" y2="169.177" style="stroke-width:var(--lw-3);" />
        
        <line x1="555.281" y1="169.177" x2="556.7244" y2="169.6276" style="stroke-width:var(--lw-3);" />
        
        <line x1="556.7244" y1="169.6276" x2="558.1879" y2="170.0274" style="stroke-width:var(--lw-3);" />
        
        <line x1="558.1879" y1="170.0274" x2="559.6651" y2="170.3764" style="stroke-width:var(--lw-3);" />
        
        <line x1="559.6651" y1="170.3764" x2="561.1502" y2="170.675" style="stroke-width:var(--lw-3);" />
        
        <line x1="561.1502" y1="170.675" x2="562.6372" y2="170.9239" style="stroke-width:var(--lw-3);" />
        
        <line x1="562.6372" y1="170.9239" x2="564.1207" y2="171.1239" style="stroke-width:var(--lw-3);" />
        
        <line x1="564.1207" y1="171.1239" x2="565.5954" y2="171.2764" style="stroke-width:var(--lw-3);" />
        
        <line x1="565.5954" y1="171.2764" x2="567.0566" y2="171.383" style="stroke-width:var(--lw-3);" />
        
        <line x1="567.0566" y1="171.383" x2="568.4997" y2="171.4456" style="stroke-width:var(--lw-3);" />
        
        <line x1="568.4997" y1="171.4456" x2="569.9206" y2="171.4659" style="stroke-width:var(--lw-3);" />
        
        <line x1="569.9206" y1="171.4659" x2="571.3416" y2="171.4456" style="stroke-width:var(--lw-3);" />
        
        <line x1="571.3416" y1="171.4456" x2="572.7847" y2="171.383" style="stroke-width:var(--lw-3);" />
        
        <line x1="572.7847" y1="171.383" x2="574.2458" y2="171.2764" style="stroke-width:var(--lw-3);" />
        
        <line x1="574.2458" y1="171.2764" x2="575.7206" y2="171.1239" style="stroke-width:var(--lw-3);" />
        
        <line x1="575.7206" y1="171.1239" x2="577.2041" y2="170.9239" style="stroke-width:var(--lw-3);" />
        
        <line x1="577.2041" y1="170.9239" x2="578.6911" y2="170.675" style="stroke-width:var(--lw-3);" />
        
        <line x1="578.6911" y1="170.675" x2="580.1761" y2="170.3764" style="stroke-width:var(--lw-3);" />
        
        <line x1="580.1761" y1="170.3764" x2="581.6534" y2="170.0274" style="stroke-width:var(--lw-3);" />
        
        <line x1="581.6534" y1="170.0274" x2="583.1168" y2="169.6276" style="stroke-width:var(--lw-3);" />
        
        <line x1="583.1168" y1="169.6276" x2="584.5603" y2="169.177" style="stroke-width:var(--lw-3);" />
        
        <line x1="584.5603" y1="169.177" x2="585.9776" y2="168.6763" style="stroke-width:var(--lw-3);" />
        
        <line x1="585.9776" y1="168.6763" x2="587.3625" y2="168.1262" style="stroke-width:var(--lw-3);" />
        
        <line x1="587.3625" y1="168.1262" x2="588.7089" y2="167.5281" style="stroke-width:var(--lw-3);" />
        
        <line x1="588.7089" y1="167.5281" x2="590.0109" y2="166.8838" style="stroke-width:var(--lw-3);" />
        
        <line x1="590.0109" y1="166.8838" x2="591.2627" y2="166.1952" style="stroke-width:var(--lw-3);" />
        
        <line x1="591.2627" y1="166.1952" x2="592.4591" y2="165.465" style="stroke-width:var(--lw-3);" />
        
        <line x1="592.4591" y1="165.465" x2="593.5951" y2="164.696" style="stroke-width:var(--lw-3);" />
        
        <line x1="593.5951" y1="164.696" x2="594.6663" y2="163.8913" style="stroke-width:var(--lw-3);" />
        
        <line x1="594.6663" y1="163.8913" x2="595.6688" y2="163.0544" style="stroke-width:var(--lw-3);" />
        
        <line x1="595.6688" y1="163.0544" x2="596.5992" y2="162.189" style="stroke-width:var(--lw-3);" />
        
        <line x1="596.5992" y1="162.189" x2="597.455" y2="161.2988" style="stroke-width:var(--lw-3);" />
        
        <line x1="597.455" y1="161.2988" x2="598.234" y2="160.3878" style="stroke-width:var(--lw-3);" />
        
        <line x1="598.234" y1="160.3878" x2="598.9349" y2="159.4599" style="stroke-width:var(--lw-3);" />
        
        <line x1="598.9349" y1="159.4599" x2="599.5569" y2="158.5192" style="stroke-width:var(--lw-3);" />
        
        <line x1="599.5569" y1="158.5192" x2="599.9268" y2="157.8724" style="stroke-width:var(--lw-3);" />
        
        <line x1="599.9268" y1="157.8724" x2="600.089" y2="157.6888" style="stroke-width:var(--lw-3);" />
        
        <line x1="600.089" y1="157.6888" x2="601.789" y2="155.3081" style="stroke-width:var(--lw-3);" />
        
        <line x1="601.789" y1="155.3081" x2="603.0594" y2="152.7563" style="stroke-width:var(--lw-3);" />
        
        <line x1="603.0594" y1="152.7563" x2="603.9249" y2="150.8012" style="stroke-width:var(--lw-3);" />
        
        <line x1="603.9249" y1="150.8012" x2="604.7314" y2="148.0581" style="stroke-width:var(--lw-3);" />
        
        <line x1="604.7314" y1="148.0581" x2="604.998" y2="145.8841" style="stroke-width:var(--lw-3);" />
        
        <line x1="604.998" y1="145.8841" x2="605.2731" y2="143.0546" style="stroke-width:var(--lw-3);" />
        
        <line x1="605.2731" y1="143.0546" x2="604.998" y2="140.2252" style="stroke-width:var(--lw-3);" />
        
        <line x1="604.998" y1="140.2252" x2="604.8859" y2="139.5456" style="stroke-width:var(--lw-3);" />
        
        <line x1="604.8859" y1="139.5456" x2="604.8845" y2="139.5057" style="stroke-width:var(--lw-3);" />
        
        <line x1="604.8845" y1="139.5057" x2="604.7777" y2="138.4872" style="stroke-width:var(--lw-3);" />
        
        <line x1="604.7777" y1="138.4872" x2="604.2996" y2="135.4257" style="stroke-width:var(--lw-3);" />
        
        <line x1="604.2996" y1="135.4257" x2="603.6724" y2="133.1292" style="stroke-width:var(--lw-3);" />
        
        <line x1="603.6724" y1="133.1292" x2="602.8904" y2="130.4695" style="stroke-width:var(--lw-3);" />
        
        <line x1="602.8904" y1="130.4695" x2="601.9885" y2="128.2611" style="stroke-width:var(--lw-3);" />
        
        <line x1="601.9885" y1="128.2611" x2="600.7592" y2="125.7918" style="stroke-width:var(--lw-3);" />
        
        <line x1="600.7592" y1="125.7918" x2="599.6045" y2="123.7482" style="stroke-width:var(--lw-3);" />
        
        <line x1="599.6045" y1="123.7482" x2="598.021" y2="121.5307" style="stroke-width:var(--lw-3);" />
        
        <line x1="598.021" y1="121.5307" x2="596.6539" y2="119.7256" style="stroke-width:var(--lw-3);" />
        
        <line x1="596.6539" y1="119.7256" x2="594.8273" y2="117.8013" style="stroke-width:var(--lw-3);" />
        
        <line x1="594.8273" y1="117.8013" x2="593.3039" y2="116.2995" style="stroke-width:var(--lw-3);" />
        
        <line x1="593.3039" y1="116.2995" x2="591.3515" y2="114.688" style="stroke-width:var(--lw-3);" />
        
        <line x1="591.3515" y1="114.688" x2="589.7384" y2="113.5416" style="stroke-width:var(--lw-3);" />
        
        <line x1="589.7384" y1="113.5416" x2="587.7725" y2="112.2416" style="stroke-width:var(--lw-3);" />
        
        <line x1="587.7725" y1="112.2416" x2="585.7027" y2="111.1329" style="stroke-width:var(--lw-3);" />
        
        <line x1="585.7027" y1="111.1329" x2="584.5058" y2="110.5392" style="stroke-width:var(--lw-3);" />
        
        <line x1="584.5058" y1="110.5392" x2="584.3922" y2="110.4841" style="stroke-width:var(--lw-3);" />
        
        <line x1="584.3922" y1="110.4841" x2="583.7131" y2="110.1112" style="stroke-width:var(--lw-3);" />
        
        <line x1="583.7131" y1="110.1112" x2="583.2666" y2="109.8351" style="stroke-width:var(--lw-3);" />
        
        <line x1="583.2666" y1="109.8351" x2="582.9287" y2="109.5599" style="stroke-width:var(--lw-3);" />
        
        <line x1="582.9287" y1="109.5599" x2="582.3347" y2="109.0276" style="stroke-width:var(--lw-3);" />
        
        <line x1="582.3347" y1="109.0276" x2="582.1286" y2="108.7887" style="stroke-width:var(--lw-3);" />
        
        <line x1="582.1286" y1="108.7887" x2="581.5933" y2="108.1069" style="stroke-width:var(--lw-3);" />
        
        <line x1="581.5933" y1="108.1069" x2="581.4353" y2="107.8428" style="stroke-width:var(--lw-3);" />
        
        <line x1="581.4353" y1="107.8428" x2="581.0509" y2="107.1296" style="stroke-width:var(--lw-3);" />
        
        <line x1="581.0509" y1="107.1296" x2="580.9184" y2="106.7888" style="stroke-width:var(--lw-3);" />
        
        <line x1="580.9184" y1="106.7888" x2="580.7031" y2="106.1555" style="stroke-width:var(--lw-3);" />
        
        <line x1="580.7031" y1="106.1555" x2="580.6114" y2="105.7202" style="stroke-width:var(--lw-3);" />
        
        <line x1="580.6114" y1="105.7202" x2="580.531" y2="105.2422" style="stroke-width:var(--lw-3);" />
        
        <line x1="580.531" y1="105.2422" x2="580.5331" y2="104.7445" style="stroke-width:var(--lw-3);" />
        
        <line x1="580.5331" y1="104.7445" x2="580.5765" y2="103.7437" style="stroke-width:var(--lw-3);" />
        
        <line x1="580.5765" y1="103.7437" x2="581.6199" y2="98.0853" style="stroke-width:var(--lw-3);" />
        
        <line x1="581.6199" y1="98.0853" x2="582.334" y2="94.0085" style="stroke-width:var(--lw-3);" />
        
        <line x1="582.334" y1="94.0085" x2="582.9757" y2="90.1522" style="stroke-width:var(--lw-3);" />
        
        <line x1="582.9757" y1="90.1522" x2="583.5457" y2="86.5199" style="stroke-width:var(--lw-3);" />
        
        <line x1="583.5457" y1="86.5199" x2="584.0453" y2="83.1117" style="stroke-width:var(--lw-3);" />
        
        <line x1="584.0453" y1="83.1117" x2="584.4761" y2="79.9276" style="stroke-width:var(--lw-3);" />
        
        <line x1="584.4761" y1="79.9276" x2="584.7129" y2="78" style="stroke-width:var(--lw-3);" />
        
        <line x1="584.7129" y1="78" x2="585.369" y2="78" style="stroke-width:var(--lw-3);" />
        
        <line x1="585.369" y1="78" x2="585.5199" y2="74.9009" style="stroke-width:var(--lw-3);" />
        
        <line x1="585.5199" y1="74.9009" x2="585.6467" y2="71.8007" style="stroke-width:var(--lw-3);" />
        
        <line x1="585.6467" y1="71.8007" x2="585.7495" y2="68.6996" style="stroke-width:var(--lw-3);" />
        
        <line x1="585.7495" y1="68.6996" x2="585.8282" y2="65.5978" style="stroke-width:var(--lw-3);" />
        
        <line x1="585.8282" y1="65.5978" x2="585.8282" y2="65.2243" style="stroke-width:var(--lw-3);" />
        
        <line x1="585.8282" y1="65.2243" x2="585.8658" y2="64.5669" style="stroke-width:var(--lw-3);" />
        
        <line x1="585.8658" y1="64.5669" x2="585.927" y2="62.7113" style="stroke-width:var(--lw-3);" />
        
        <line x1="585.927" y1="62.7113" x2="585.9318" y2="61.1057" style="stroke-width:var(--lw-3);" />
        
        <line x1="585.9318" y1="61.1057" x2="585.9308" y2="61.0486" style="stroke-width:var(--lw-3);" />
        
        <line x1="585.9308" y1="61.0486" x2="585.9299" y2="60.9919" style="stroke-width:var(--lw-3);" />
        
        <line x1="585.9299" y1="60.9919" x2="585.9288" y2="60.9356" style="stroke-width:var(--lw-3);" />
        
        <line x1="585.9288" y1="60.9356" x2="585.9276" y2="60.8796" style="stroke-width:var(--lw-3);" />
        
        <line x1="585.9276" y1="60.8796" x2="585.926" y2="60.8059" style="stroke-width:var(--lw-3);" />
        
        <line x1="585.926" y1="60.8059" x2="585.9242" y2="60.7328" style="stroke-width:var(--lw-3);" />
        
        <line x1="585.9242" y1="60.7328" x2="585.9222" y2="60.6604" style="stroke-width:var(--lw-3);" />
        
        <line x1="585.9222" y1="60.6604" x2="585.9202" y2="60.5887" style="stroke-width:var(--lw-3);" />
        
        <line x1="585.9202" y1="60.5887" x2="585.794" y2="59.1255" style="stroke-width:var(--lw-3);" />
        
        <line x1="585.794" y1="59.1255" x2="585.4484" y2="56.9412" style="stroke-width:var(--lw-3);" />
        
        <line x1="585.4484" y1="56.9412" x2="585.261" y2="56.3153" style="stroke-width:var(--lw-3);" />
        
        <line x1="585.261" y1="56.3153" x2="584.3174" y2="53.4388" style="stroke-width:var(--lw-3);" />
        
        <line x1="584.3174" y1="53.4388" x2="583.4854" y2="51.9216" style="stroke-width:var(--lw-3);" />
        
        <line x1="583.4854" y1="51.9216" x2="582.5973" y2="50.2839" style="stroke-width:var(--lw-3);" />
        
        <line x1="582.5973" y1="50.2839" x2="581.9841" y2="49.525" style="stroke-width:var(--lw-3);" />
        
        <line x1="581.9841" y1="49.525" x2="585.8182" y2="49.3928" style="stroke-width:var(--lw-3);" />
        
        <line x1="585.8182" y1="49.3928" x2="585.8282" y2="48.4022" style="stroke-width:var(--lw-3);" />
        
        <line x1="585.8282" y1="48.4022" x2="585.7495" y2="45.3005" style="stroke-width:var(--lw-3);" />
        
        <line x1="585.7495" y1="45.3005" x2="585.6467" y2="42.1994" style="stroke-width:var(--lw-3);" />
        
        <line x1="585.6467" y1="42.1994" x2="585.5199" y2="39.0991" style="stroke-width:var(--lw-3);" />
        
        <line x1="585.5199" y1="39.0991" x2="585.369" y2="36" style="stroke-width:var(--lw-3);" />
        
        <line x1="585.369" y1="36" x2="543.5266" y2="36" style="stroke-width:var(--lw-3);" />
        
        <line x1="543.5266" y1="36" x2="543.5266" y2="0" style="stroke-width:var(--lw-3);" />
        
        <line x1="543.5266" y1="0" x2="543.397" y2="0" style="stroke-width:var(--lw-3);" />
        
        <line x1="543.397" y1="0" x2="543.015" y2="0" style="stroke-width:var(--lw-3);" />
        
        <line x1="543.015" y1="0" x2="542.3856" y2="0" style="stroke-width:var(--lw-3);" />
        
        <line x1="542.3856" y1="0" x2="541.5054" y2="0" style="stroke-width:var(--lw-3);" />
        
        <line x1="541.5054" y1="0" x2="540.3817" y2="0" style="stroke-width:var(--lw-3);" />
        
        <line x1="540.3817" y1="0" x2="539.0652" y2="0" style="stroke-width:var(--lw-3);" />
        
        <line x1="539.0652" y1="0" x2="537.4577" y2="0" style="stroke-width:var(--lw-3);" />
        
        <line x1="537.4577" y1="0" x2="535.6014" y2="0" style="stroke-width:var(--lw-3);" />
        
        <line x1="535.6014" y1="0" x2="533.6873" y2="0" style="stroke-width:var(--lw-3);" />
        
        <line x1="533.6873" y1="0" x2="531.5561" y2="0" style="stroke-width:var(--lw-3);" />
        
        <line x1="531.5561" y1="0" x2="529.3447" y2="0" style="stroke-width:var(--lw-3);" />
        
        <line x1="529.3447" y1="0" x2="527.0358" y2="0" style="stroke-width:var(--lw-3);" />
        
        <line x1="527.0358" y1="0" x2="524.6562" y2="0" style="stroke-width:var(--lw-3);" />
        
        <line x1="524.6562" y1="0" x2="522.2337" y2="0" style="stroke-width:var(--lw-3);" />
        
        <line x1="522.2337" y1="0" x2="519.7965" y2="0" style="stroke-width:var(--lw-3);" />
        
        <line x1="519.7965" y1="0" x2="517.373" y2="0" style="stroke-width:var(--lw-3);" />
        
        <line x1="517.373" y1="0" x2="514.9918" y2="0" style="stroke-width:var(--lw-3);" />
        
        <line x1="514.9918" y1="0" x2="512.6809" y2="0" style="stroke-width:var(--lw-3);" />
        
        <line x1="512.6809" y1="0" x2="510.4676" y2="0" style="stroke-width:var(--lw-3);" />
        
        <line x1="510.4676" y1="0" x2="508.3781" y2="0" style="stroke-width:var(--lw-3);" />
        
        <line x1="508.3781" y1="0" x2="506.4373" y2="0" style="stroke-width:var(--lw-3);" />
        
        <line x1="506.4373" y1="0" x2="504.6681" y2="0" style="stroke-width:var(--lw-3);" />
        
        <line x1="504.6681" y1="0" x2="503.0916" y2="0" style="stroke-width:var(--lw-3);" />
        
        <line x1="503.0916" y1="0" x2="501.6831" y2="0" style="stroke-width:var(--lw-3);" />
        
        <line x1="501.6831" y1="0" x2="500.5806" y2="0" style="stroke-width:var(--lw-3);" />
        
        <line x1="500.5806" y1="0" x2="499.7042" y2="0" style="stroke-width:var(--lw-3);" />
        
        <line x1="499.7042" y1="0" x2="499.051" y2="0" style="stroke-width:var(--lw-3);" />
        
        <line x1="499.051" y1="0" x2="498.6456" y2="0" style="stroke-width:var(--lw-3);" />
        
        <line x1="498.6456" y1="0" x2="498.5266" y2="0" style="stroke-width:var(--lw-3);" />
        
        <line x1="498.5266" y1="0" x2="498.5266" y2="40.5" style="stroke-width:var(--lw-3);" />
        
        <line x1="498.5266" y1="40.5" x2="498.5266" y2="81" style="stroke-width:var(--lw-3);" />
        
        <line x1="498.5266" y1="81" x2="498.6456" y2="81" style="stroke-width:var(--lw-3);" />
        
        <line x1="498.6456" y1="81" x2="499.051" y2="81" style="stroke-width:var(--lw-3);" />
        
        <line x1="499.051" y1="81" x2="499.7042" y2="81" style="stroke-width:var(--lw-3);" />
        
        <line x1="499.7042" y1="81" x2="500.5806" y2="81" style="stroke-width:var(--lw-3);" />
        
        <line x1="500.5806" y1="81" x2="501.6831" y2="81" style="stroke-width:var(--lw-3);" />
        
        <line x1="501.6831" y1="81" x2="503.0916" y2="81" style="stroke-width:var(--lw-3);" />
        
        <line x1="503.0916" y1="81" x2="504.6681" y2="81" style="stroke-width:var(--lw-3);" />
        
        <line x1="504.6681" y1="81" x2="506.4373" y2="81" style="stroke-width:var(--lw-3);" />
        
        <line x1="506.4373" y1="81" x2="508.3781" y2="81" style="stroke-width:var(--lw-3);" />
        
        <line x1="508.3781" y1="81" x2="510.4676" y2="81" style="stroke-width:var(--lw-3);" />
        
        <line x1="510.4676" y1="81" x2="512.6809" y2="81" style="stroke-width:var(--lw-3);" />
        
        <line x1="512.6809" y1="81" x2="514.9918" y2="81" style="stroke-width:var(--lw-3);" />
        
        <line x1="514.9918" y1="81" x2="517.373" y2="81" style="stroke-width:var(--lw-3);" />
        
        <line x1="517.373" y1="81" x2="519.7965" y2="81" style="stroke-width:var(--lw-3);" />
        
        <line x1="519.7965" y1="81" x2="522.2337" y2="81" style="stroke-width:var(--lw-3);" />
        
        <line x1="522.2337" y1="81" x2="524.6562" y2="81" style="stroke-width:var(--lw-3);" />
        
        <line x1="524.6562" y1="81" x2="527.0358" y2="81" style="stroke-width:var(--lw-3);" />
        
        <line x1="527.0358" y1="81" x2="529.3447" y2="81" style="stroke-width:var(--lw-3);" />
        
        <line x1="529.3447" y1="81" x2="531.5561" y2="81" style="stroke-width:var(--lw-3);" />
        
        <line x1="531.5561" y1="81" x2="533.6873" y2="81" style="stroke-width:var(--lw-3);" />
        
        <line x1="533.6873" y1="81" x2="535.6014" y2="81" style="stroke-width:var(--lw-3);" />
        
        <line x1="535.6014" y1="81" x2="537.4577" y2="81" style="stroke-width:var(--lw-3);" />
        
        <line x1="537.4577" y1="81" x2="539.0652" y2="81" style="stroke-width:var(--lw-3);" />
        
        <line x1="539.0652" y1="81" x2="540.3817" y2="81" style="stroke-width:var(--lw-3);" />
        
        <line x1="540.3817" y1="81" x2="541.5054" y2="81" style="stroke-width:var(--lw-3);" />
        
        <line x1="541.5054" y1="81" x2="542.3856" y2="81" style="stroke-width:var(--lw-3);" />
        
        <line x1="542.3856" y1="81" x2="543.015" y2="81" style="stroke-width:var(--lw-3);" />
        
        <line x1="543.015" y1="81" x2="543.397" y2="81" style="stroke-width:var(--lw-3);" />
        
        <line x1="543.397" y1="81" x2="543.5266" y2="81" style="stroke-width:var(--lw-3);" />
        
        <line x1="543.5266" y1="81" x2="543.5266" y2="78" style="stroke-width:var(--lw-3);" />
        
        <line x1="543.5266" y1="78" x2="555.1283" y2="78" style="stroke-width:var(--lw-3);" />
        
        <line x1="555.1283" y1="78" x2="555.3652" y2="79.9276" style="stroke-width:var(--lw-3);" />
        
        <line x1="555.3652" y1="79.9276" x2="555.7959" y2="83.1117" style="stroke-width:var(--lw-3);" />
        
        <line x1="555.7959" y1="83.1117" x2="556.2956" y2="86.5199" style="stroke-width:var(--lw-3);" />
        
        <line x1="556.2956" y1="86.5199" x2="556.8656" y2="90.1522" style="stroke-width:var(--lw-3);" />
        
        <line x1="556.8656" y1="90.1522" x2="557.5072" y2="94.0085" style="stroke-width:var(--lw-3);" />
        
        <line x1="557.5072" y1="94.0085" x2="558.2214" y2="98.0853" style="stroke-width:var(--lw-3);" />
        
        <line x1="558.2214" y1="98.0853" x2="559.2648" y2="103.7437" style="stroke-width:var(--lw-3);" />
        
        <line x1="559.2648" y1="103.7437" x2="559.3081" y2="104.7445" style="stroke-width:var(--lw-3);" />
        
        <line x1="559.3081" y1="104.7445" x2="559.3103" y2="105.2422" style="stroke-width:var(--lw-3);" />
        
        <line x1="559.3103" y1="105.2422" x2="559.2299" y2="105.7203" style="stroke-width:var(--lw-3);" />
        
        <line x1="559.2299" y1="105.7203" x2="559.1381" y2="106.1555" style="stroke-width:var(--lw-3);" />
        
        <line x1="559.1381" y1="106.1555" x2="558.9229" y2="106.7888" style="stroke-width:var(--lw-3);" />
        
        <line x1="558.9229" y1="106.7888" x2="558.7904" y2="107.1296" style="stroke-width:var(--lw-3);" />
        
        <line x1="558.7904" y1="107.1296" x2="558.406" y2="107.8428" style="stroke-width:var(--lw-3);" />
        
        <line x1="558.406" y1="107.8428" x2="558.2479" y2="108.1069" style="stroke-width:var(--lw-3);" />
        
        <line x1="558.2479" y1="108.1069" x2="557.7127" y2="108.7887" style="stroke-width:var(--lw-3);" />
        
        <line x1="557.7127" y1="108.7887" x2="557.5066" y2="109.0276" style="stroke-width:var(--lw-3);" />
        
        <line x1="557.5066" y1="109.0276" x2="556.9125" y2="109.5599" style="stroke-width:var(--lw-3);" />
        
        <line x1="556.9125" y1="109.5599" x2="556.5746" y2="109.8351" style="stroke-width:var(--lw-3);" />
        
        <line x1="556.5746" y1="109.8351" x2="556.1282" y2="110.1112" style="stroke-width:var(--lw-3);" />
        
        <line x1="556.1282" y1="110.1112" x2="555.449" y2="110.4841" style="stroke-width:var(--lw-3);" />
        
        <line x1="555.449" y1="110.4841" x2="555.3354" y2="110.5392" style="stroke-width:var(--lw-3);" />
        
        <line x1="555.3354" y1="110.5392" x2="554.1385" y2="111.1329" style="stroke-width:var(--lw-3);" />
        
        <line x1="554.1385" y1="111.1329" x2="552.0687" y2="112.2416" style="stroke-width:var(--lw-3);" />
        
        <line x1="552.0687" y1="112.2416" x2="550.1029" y2="113.5416" style="stroke-width:var(--lw-3);" />
        
        <line x1="550.1029" y1="113.5416" x2="548.4897" y2="114.688" style="stroke-width:var(--lw-3);" />
        
        <line x1="548.4897" y1="114.688" x2="546.5373" y2="116.2995" style="stroke-width:var(--lw-3);" />
        
        <line x1="546.5373" y1="116.2995" x2="545.0139" y2="117.8013" style="stroke-width:var(--lw-3);" />
        
        <line x1="545.0139" y1="117.8013" x2="543.1873" y2="119.7256" style="stroke-width:var(--lw-3);" />
        
        <line x1="543.1873" y1="119.7256" x2="541.8203" y2="121.5307" style="stroke-width:var(--lw-3);" />
        
        <line x1="541.8203" y1="121.5307" x2="540.2368" y2="123.7482" style="stroke-width:var(--lw-3);" />
        
        <line x1="540.2368" y1="123.7482" x2="539.0821" y2="125.7918" style="stroke-width:var(--lw-3);" />
        
        <line x1="539.0821" y1="125.7918" x2="537.8527" y2="128.2611" style="stroke-width:var(--lw-3);" />
        
        <line x1="537.8527" y1="128.2611" x2="536.9508" y2="130.4695" style="stroke-width:var(--lw-3);" />
        
        <line x1="536.9508" y1="130.4695" x2="536.1689" y2="133.1292" style="stroke-width:var(--lw-3);" />
        
        <line x1="536.1689" y1="133.1292" x2="535.5417" y2="135.4257" style="stroke-width:var(--lw-3);" />
        
        <line x1="535.5417" y1="135.4257" x2="535.0635" y2="138.4872" style="stroke-width:var(--lw-3);" />
        
        <line x1="535.0635" y1="138.4872" x2="534.9567" y2="139.5057" style="stroke-width:var(--lw-3);" />
        
        <line x1="534.9567" y1="139.5057" x2="534.9553" y2="139.5456" style="stroke-width:var(--lw-3);" />
        
        <line x1="534.9553" y1="139.5456" x2="534.8432" y2="140.2252" style="stroke-width:var(--lw-3);" />
        
        <line x1="534.8432" y1="140.2252" x2="534.5681" y2="143.0546" style="stroke-width:var(--lw-3);" />
        
        <line x1="534.5681" y1="143.0546" x2="534.8432" y2="145.8841" style="stroke-width:var(--lw-3);" />
        
        <line x1="0" y1="800" x2="200" y2="800" style="stroke-width:var(--lw-4);" />
        
        <line x1="200" y1="800" x2="200" y2="0" style="stroke-width:var(--lw-4);" />
        
        <line x1="200" y1="0" x2="0" y2="0" style="stroke-width:var(--lw-3);" />
        
        <line x1="0" y1="0" x2="0" y2="800" style="stroke-width:var(--lw-3);" />
        
        <line x1="280" y1="800" x2="0" y2="800" style="stroke-width:var(--lw-3);" />
        
        <line x1="0" y1="1300" x2="280" y2="1300" style="stroke-width:var(--lw-3);" />
        
        <line x1="1369.71" y1="845" x2="1369.71" y2="0" style="stroke-width:var(--lw-3);" />
        
        <line x1="1319.71" y1="1545" x2="1319.71" y2="0" style="stroke-width:var(--lw-4);" />
        
        <line x1="1319.71" y1="845" x2="1369.71" y2="845" style="stroke-width:var(--lw-3);" />
        
        <line x1="1030" y1="1545" x2="2219.71" y2="1545" style="stroke-width:var(--lw-6);" />
        
        <line x1="2219.71" y1="1545" x2="2219.71" y2="0" style="stroke-width:var(--lw-6);" />
        
        <line x1="2219.71" y1="0" x2="0" y2="0" style="stroke-width:var(--lw-6);" />
        
        <line x1="0" y1="0" x2="0" y2="1545" style="stroke-width:var(--lw-6);" />
        
        <line x1="0" y1="1545" x2="230" y2="1545" style="stroke-width:var(--lw-6);" />
        
        <path d="M552.5938,233.982 A166.4331,166.4331 0 0,1 552.5938,566.018" style="stroke-width:var(--lw-3);" />
        
        <path d="M553.063,225.0553 A175.3643,175.3643 0 0,1 553.063,574.9447" style="stroke-width:var(--lw-3);" />
        
        <circle cx="51.1507" cy="1050" r="23.7447" style="stroke-width:var(--lw-3);" />
        
        <path d="M1779.71,18.8808 L1838.4197,18.8808 L1838.4197,0 L1701.0003,0 L1701.0003,18.8808 L1759.71,18.8808" style="stroke-width:var(--lw-3);" />
        
        <line x1="0" y1="1300" x2="390" y2="1300" style="stroke-width:var(--lw-3);" />
        
        <line x1="390" y1="1300" x2="390" y2="800" style="stroke-width:var(--lw-3);" />
        
        <line x1="390" y1="800" x2="0" y2="800" style="stroke-width:var(--lw-3);" />
        
        <line x1="0" y1="800" x2="0" y2="1300" style="stroke-width:var(--lw-3);" />
        
        <line x1="94.4519" y1="1250" x2="340" y2="1250" style="stroke-width:var(--lw-3);" />
        
        <line x1="340" y1="1250" x2="340" y2="850" style="stroke-width:var(--lw-3);" />
        
        <line x1="340" y1="850" x2="94.4519" y2="850" style="stroke-width:var(--lw-3);" />
        
        <line x1="94.4519" y1="850" x2="94.4519" y2="1250" style="stroke-width:var(--lw-3);" />
    </g>
</svg>