<svg xmlns="http://www.w3.org/2000/svg" width="2220.7005mm" height="4020mm" viewBox="-16.0 -4036.0 2252.7005 4052.0" version="1.1" class="svg-drawing">
    <g transform="scale(1,-1)">
        
        <path d="M530,0 L1684.9976,0" style="stroke-width:var(--lw-1);stroke-dasharray:1rem" />
        
        <path d="M0,3380 L0,4020 L2220,4020 L2220,0 L1684.9976,0" style="stroke-width:var(--lw-6);" />
        
        <path d="M530,0 L264.9302,0 L264.9302,1430 L0,1430 L0,2580" style="stroke-width:var(--lw-6);" />
        
        <path d="M0,3380 L0,2580" style="stroke-width:var(--lw-1);stroke-dasharray:1rem" />
        
        <line x1="264.9302" y1="800" x2="2220" y2="800" style="stroke-width:var(--lw-4);" />
        
        <line x1="0" y1="2330" x2="264.9302" y2="2330" style="stroke-width:var(--lw-4);" />
        
        <line x1="264.9302" y1="2330" x2="264.9302" y2="1430" style="stroke-width:var(--lw-4);" />
        
        <line x1="265.0384" y1="1705.0553" x2="617.9932" y2="1705.0553" style="stroke-width:var(--lw-3);" />
        
        <line x1="326.9816" y1="1880" x2="326.9816" y2="2020.8965" style="stroke-width:var(--lw-3);" />
        
        <line x1="617.524" y1="1705.0553" x2="326.9816" y2="1739.1035" style="stroke-width:var(--lw-3);" />
        
        <line x1="326.9816" y1="1880" x2="326.9816" y2="1739.1035" style="stroke-width:var(--lw-3);" />
        
        <line x1="617.524" y1="2054.9447" x2="326.9816" y2="2020.8965" style="stroke-width:var(--lw-3);" />
        
        <line x1="617.524" y1="1713.982" x2="326.9816" y2="1748.0302" style="stroke-width:var(--lw-3);" />
        
        <line x1="617.524" y1="2046.018" x2="326.9816" y2="2011.9698" style="stroke-width:var(--lw-3);" />
        
        <line x1="264.8219" y1="2054.9447" x2="617.9932" y2="2054.9447" style="stroke-width:var(--lw-3);" />
        
        <path d="M617.524,1713.982 L676.7196,1726.6194 L726.9032,1762.6075 L760.4348,1816.4677 L772.2095,1880 L760.4348,1943.5323 L726.9032,1997.3924 L676.7196,2033.3806 L617.524,2046.018" style="stroke-width:var(--lw-3);" />
        
        <path d="M617.9932,1705.0553 L680.4625,1718.3721 L733.4214,1756.2954 L768.8074,1813.0515 L781.2333,1880 L768.8074,1946.9484 L733.4214,2003.7046 L680.4625,2041.6279 L617.9932,2054.9447" style="stroke-width:var(--lw-3);" />
        
        <line x1="410.8143" y1="1514.4509" x2="412.9883" y2="1514.1843" style="stroke-width:var(--lw-3);" />
        
        <line x1="412.9883" y1="1514.1843" x2="415.7314" y2="1513.3778" style="stroke-width:var(--lw-3);" />
        
        <line x1="415.7314" y1="1513.3778" x2="417.6865" y2="1512.5123" style="stroke-width:var(--lw-3);" />
        
        <line x1="417.6865" y1="1512.5123" x2="420.2383" y2="1511.2419" style="stroke-width:var(--lw-3);" />
        
        <line x1="420.2383" y1="1511.2419" x2="422.619" y2="1509.5418" style="stroke-width:var(--lw-3);" />
        
        <line x1="422.619" y1="1509.5418" x2="422.8026" y2="1509.3797" style="stroke-width:var(--lw-3);" />
        
        <line x1="422.8026" y1="1509.3797" x2="423.4494" y2="1509.0098" style="stroke-width:var(--lw-3);" />
        
        <line x1="423.4494" y1="1509.0098" x2="424.3901" y2="1508.3878" style="stroke-width:var(--lw-3);" />
        
        <line x1="424.3901" y1="1508.3878" x2="425.318" y2="1507.6869" style="stroke-width:var(--lw-3);" />
        
        <line x1="425.318" y1="1507.6869" x2="426.229" y2="1506.9079" style="stroke-width:var(--lw-3);" />
        
        <line x1="426.229" y1="1506.9079" x2="427.1192" y2="1506.0521" style="stroke-width:var(--lw-3);" />
        
        <line x1="427.1192" y1="1506.0521" x2="427.9846" y2="1505.1216" style="stroke-width:var(--lw-3);" />
        
        <line x1="427.9846" y1="1505.1216" x2="428.8215" y2="1504.1192" style="stroke-width:var(--lw-3);" />
        
        <line x1="428.8215" y1="1504.1192" x2="429.6262" y2="1503.048" style="stroke-width:var(--lw-3);" />
        
        <line x1="429.6262" y1="1503.048" x2="430.3952" y2="1501.912" style="stroke-width:var(--lw-3);" />
        
        <line x1="430.3952" y1="1501.912" x2="431.1254" y2="1500.7156" style="stroke-width:var(--lw-3);" />
        
        <line x1="431.1254" y1="1500.7156" x2="431.814" y2="1499.4638" style="stroke-width:var(--lw-3);" />
        
        <line x1="431.814" y1="1499.4638" x2="432.4583" y2="1498.1618" style="stroke-width:var(--lw-3);" />
        
        <line x1="432.4583" y1="1498.1618" x2="433.0564" y2="1496.8154" style="stroke-width:var(--lw-3);" />
        
        <line x1="433.0564" y1="1496.8154" x2="433.6065" y2="1495.4305" style="stroke-width:var(--lw-3);" />
        
        <line x1="433.6065" y1="1495.4305" x2="434.1072" y2="1494.0132" style="stroke-width:var(--lw-3);" />
        
        <line x1="434.1072" y1="1494.0132" x2="434.5578" y2="1492.5697" style="stroke-width:var(--lw-3);" />
        
        <line x1="434.5578" y1="1492.5697" x2="434.9576" y2="1491.1062" style="stroke-width:var(--lw-3);" />
        
        <line x1="434.9576" y1="1491.1062" x2="435.3066" y2="1489.629" style="stroke-width:var(--lw-3);" />
        
        <line x1="435.3066" y1="1489.629" x2="435.6052" y2="1488.144" style="stroke-width:var(--lw-3);" />
        
        <line x1="435.6052" y1="1488.144" x2="435.8541" y2="1486.6569" style="stroke-width:var(--lw-3);" />
        
        <line x1="435.8541" y1="1486.6569" x2="436.0541" y2="1485.1734" style="stroke-width:var(--lw-3);" />
        
        <line x1="436.0541" y1="1485.1734" x2="436.2066" y2="1483.6987" style="stroke-width:var(--lw-3);" />
        
        <line x1="436.2066" y1="1483.6987" x2="436.3132" y2="1482.2375" style="stroke-width:var(--lw-3);" />
        
        <line x1="436.3132" y1="1482.2375" x2="436.3758" y2="1480.7945" style="stroke-width:var(--lw-3);" />
        
        <line x1="436.3758" y1="1480.7945" x2="436.3961" y2="1479.3735" style="stroke-width:var(--lw-3);" />
        
        <line x1="436.3961" y1="1479.3735" x2="436.3758" y2="1477.9525" style="stroke-width:var(--lw-3);" />
        
        <line x1="436.3758" y1="1477.9525" x2="436.3132" y2="1476.5095" style="stroke-width:var(--lw-3);" />
        
        <line x1="436.3132" y1="1476.5095" x2="436.2066" y2="1475.0483" style="stroke-width:var(--lw-3);" />
        
        <line x1="436.2066" y1="1475.0483" x2="436.0541" y2="1473.5736" style="stroke-width:var(--lw-3);" />
        
        <line x1="436.0541" y1="1473.5736" x2="435.8541" y2="1472.0901" style="stroke-width:var(--lw-3);" />
        
        <line x1="435.8541" y1="1472.0901" x2="435.6052" y2="1470.603" style="stroke-width:var(--lw-3);" />
        
        <line x1="435.6052" y1="1470.603" x2="435.3066" y2="1469.118" style="stroke-width:var(--lw-3);" />
        
        <line x1="435.3066" y1="1469.118" x2="434.9576" y2="1467.6408" style="stroke-width:var(--lw-3);" />
        
        <line x1="434.9576" y1="1467.6408" x2="434.5578" y2="1466.1773" style="stroke-width:var(--lw-3);" />
        
        <line x1="434.5578" y1="1466.1773" x2="434.1072" y2="1464.7338" style="stroke-width:var(--lw-3);" />
        
        <line x1="434.1072" y1="1464.7338" x2="433.6065" y2="1463.3165" style="stroke-width:var(--lw-3);" />
        
        <line x1="433.6065" y1="1463.3165" x2="433.0564" y2="1461.9316" style="stroke-width:var(--lw-3);" />
        
        <line x1="433.0564" y1="1461.9316" x2="432.4583" y2="1460.5852" style="stroke-width:var(--lw-3);" />
        
        <line x1="432.4583" y1="1460.5852" x2="431.814" y2="1459.2832" style="stroke-width:var(--lw-3);" />
        
        <line x1="431.814" y1="1459.2832" x2="431.1254" y2="1458.0314" style="stroke-width:var(--lw-3);" />
        
        <line x1="431.1254" y1="1458.0314" x2="430.3952" y2="1456.835" style="stroke-width:var(--lw-3);" />
        
        <line x1="430.3952" y1="1456.835" x2="429.6262" y2="1455.699" style="stroke-width:var(--lw-3);" />
        
        <line x1="429.6262" y1="1455.699" x2="428.8215" y2="1454.6278" style="stroke-width:var(--lw-3);" />
        
        <line x1="428.8215" y1="1454.6278" x2="427.9846" y2="1453.6254" style="stroke-width:var(--lw-3);" />
        
        <line x1="427.9846" y1="1453.6254" x2="427.1192" y2="1452.6949" style="stroke-width:var(--lw-3);" />
        
        <line x1="427.1192" y1="1452.6949" x2="426.229" y2="1451.8392" style="stroke-width:var(--lw-3);" />
        
        <line x1="426.229" y1="1451.8392" x2="425.318" y2="1451.0601" style="stroke-width:var(--lw-3);" />
        
        <line x1="425.318" y1="1451.0601" x2="424.3901" y2="1450.3592" style="stroke-width:var(--lw-3);" />
        
        <line x1="424.3901" y1="1450.3592" x2="423.4494" y2="1449.7372" style="stroke-width:var(--lw-3);" />
        
        <line x1="423.4494" y1="1449.7372" x2="422.8026" y2="1449.3673" style="stroke-width:var(--lw-3);" />
        
        <line x1="422.8026" y1="1449.3673" x2="422.619" y2="1449.2052" style="stroke-width:var(--lw-3);" />
        
        <line x1="422.619" y1="1449.2052" x2="420.2383" y2="1447.5051" style="stroke-width:var(--lw-3);" />
        
        <line x1="420.2383" y1="1447.5051" x2="417.6865" y2="1446.2347" style="stroke-width:var(--lw-3);" />
        
        <line x1="417.6865" y1="1446.2347" x2="415.7314" y2="1445.3692" style="stroke-width:var(--lw-3);" />
        
        <line x1="415.7314" y1="1445.3692" x2="412.9883" y2="1444.5627" style="stroke-width:var(--lw-3);" />
        
        <line x1="412.9883" y1="1444.5627" x2="410.8143" y2="1444.2961" style="stroke-width:var(--lw-3);" />
        
        <line x1="410.8143" y1="1444.2961" x2="407.9848" y2="1444.021" style="stroke-width:var(--lw-3);" />
        
        <line x1="407.9848" y1="1444.021" x2="405.1554" y2="1444.2961" style="stroke-width:var(--lw-3);" />
        
        <line x1="405.1554" y1="1444.2961" x2="404.4758" y2="1444.4082" style="stroke-width:var(--lw-3);" />
        
        <line x1="404.4758" y1="1444.4082" x2="404.4359" y2="1444.4096" style="stroke-width:var(--lw-3);" />
        
        <line x1="404.4359" y1="1444.4096" x2="403.4174" y2="1444.5164" style="stroke-width:var(--lw-3);" />
        
        <line x1="403.4174" y1="1444.5164" x2="400.3559" y2="1444.9946" style="stroke-width:var(--lw-3);" />
        
        <line x1="400.3559" y1="1444.9946" x2="398.0594" y2="1445.6218" style="stroke-width:var(--lw-3);" />
        
        <line x1="398.0594" y1="1445.6218" x2="395.3997" y2="1446.4037" style="stroke-width:var(--lw-3);" />
        
        <line x1="395.3997" y1="1446.4037" x2="393.1913" y2="1447.3056" style="stroke-width:var(--lw-3);" />
        
        <line x1="393.1913" y1="1447.3056" x2="390.722" y2="1448.5349" style="stroke-width:var(--lw-3);" />
        
        <line x1="390.722" y1="1448.5349" x2="388.6784" y2="1449.6897" style="stroke-width:var(--lw-3);" />
        
        <line x1="388.6784" y1="1449.6897" x2="386.4609" y2="1451.2732" style="stroke-width:var(--lw-3);" />
        
        <line x1="386.4609" y1="1451.2732" x2="384.6558" y2="1452.6402" style="stroke-width:var(--lw-3);" />
        
        <line x1="384.6558" y1="1452.6402" x2="382.7315" y2="1454.4668" style="stroke-width:var(--lw-3);" />
        
        <line x1="382.7315" y1="1454.4668" x2="381.2297" y2="1455.9902" style="stroke-width:var(--lw-3);" />
        
        <line x1="381.2297" y1="1455.9902" x2="379.6182" y2="1457.9426" style="stroke-width:var(--lw-3);" />
        
        <line x1="379.6182" y1="1457.9426" x2="378.4718" y2="1459.5558" style="stroke-width:var(--lw-3);" />
        
        <line x1="378.4718" y1="1459.5558" x2="377.1718" y2="1461.5216" style="stroke-width:var(--lw-3);" />
        
        <line x1="377.1718" y1="1461.5216" x2="376.0631" y2="1463.5914" style="stroke-width:var(--lw-3);" />
        
        <line x1="376.0631" y1="1463.5914" x2="375.4694" y2="1464.7883" style="stroke-width:var(--lw-3);" />
        
        <line x1="375.4694" y1="1464.7883" x2="375.4143" y2="1464.9019" style="stroke-width:var(--lw-3);" />
        
        <line x1="375.4143" y1="1464.9019" x2="375.0414" y2="1465.581" style="stroke-width:var(--lw-3);" />
        
        <line x1="375.0414" y1="1465.581" x2="374.7653" y2="1466.0275" style="stroke-width:var(--lw-3);" />
        
        <line x1="374.7653" y1="1466.0275" x2="374.4901" y2="1466.3654" style="stroke-width:var(--lw-3);" />
        
        <line x1="374.4901" y1="1466.3654" x2="373.9578" y2="1466.9595" style="stroke-width:var(--lw-3);" />
        
        <line x1="373.9578" y1="1466.9595" x2="373.7189" y2="1467.1656" style="stroke-width:var(--lw-3);" />
        
        <line x1="373.7189" y1="1467.1656" x2="373.0371" y2="1467.7008" style="stroke-width:var(--lw-3);" />
        
        <line x1="373.0371" y1="1467.7008" x2="372.773" y2="1467.8589" style="stroke-width:var(--lw-3);" />
        
        <line x1="372.773" y1="1467.8589" x2="372.0598" y2="1468.2432" style="stroke-width:var(--lw-3);" />
        
        <line x1="372.0598" y1="1468.2432" x2="371.719" y2="1468.3758" style="stroke-width:var(--lw-3);" />
        
        <line x1="371.719" y1="1468.3758" x2="371.0857" y2="1468.591" style="stroke-width:var(--lw-3);" />
        
        <line x1="371.0857" y1="1468.591" x2="370.6504" y2="1468.6827" style="stroke-width:var(--lw-3);" />
        
        <line x1="370.6504" y1="1468.6827" x2="370.1724" y2="1468.7631" style="stroke-width:var(--lw-3);" />
        
        <line x1="370.1724" y1="1468.7631" x2="369.6747" y2="1468.761" style="stroke-width:var(--lw-3);" />
        
        <line x1="369.6747" y1="1468.761" x2="368.6739" y2="1468.7176" style="stroke-width:var(--lw-3);" />
        
        <line x1="368.6739" y1="1468.7176" x2="363.0155" y2="1467.6743" style="stroke-width:var(--lw-3);" />
        
        <line x1="363.0155" y1="1467.6743" x2="358.9386" y2="1466.9601" style="stroke-width:var(--lw-3);" />
        
        <line x1="358.9386" y1="1466.9601" x2="355.0824" y2="1466.3184" style="stroke-width:var(--lw-3);" />
        
        <line x1="355.0824" y1="1466.3184" x2="351.4501" y2="1465.7485" style="stroke-width:var(--lw-3);" />
        
        <line x1="351.4501" y1="1465.7485" x2="348.0418" y2="1465.2488" style="stroke-width:var(--lw-3);" />
        
        <line x1="348.0418" y1="1465.2488" x2="344.8577" y2="1464.818" style="stroke-width:var(--lw-3);" />
        
        <line x1="344.8577" y1="1464.818" x2="342.9302" y2="1464.5812" style="stroke-width:var(--lw-3);" />
        
        <line x1="342.9302" y1="1464.5812" x2="342.9302" y2="1463.9251" style="stroke-width:var(--lw-3);" />
        
        <line x1="342.9302" y1="1463.9251" x2="339.8311" y2="1463.7743" style="stroke-width:var(--lw-3);" />
        
        <line x1="339.8311" y1="1463.7743" x2="336.7309" y2="1463.6474" style="stroke-width:var(--lw-3);" />
        
        <line x1="336.7309" y1="1463.6474" x2="333.6297" y2="1463.5446" style="stroke-width:var(--lw-3);" />
        
        <line x1="333.6297" y1="1463.5446" x2="330.5279" y2="1463.4659" style="stroke-width:var(--lw-3);" />
        
        <line x1="330.5279" y1="1463.4659" x2="330.1545" y2="1463.4659" style="stroke-width:var(--lw-3);" />
        
        <line x1="330.1545" y1="1463.4659" x2="329.4971" y2="1463.4283" style="stroke-width:var(--lw-3);" />
        
        <line x1="329.4971" y1="1463.4283" x2="327.6415" y2="1463.3671" style="stroke-width:var(--lw-3);" />
        
        <line x1="327.6415" y1="1463.3671" x2="326.0358" y2="1463.3624" style="stroke-width:var(--lw-3);" />
        
        <line x1="326.0358" y1="1463.3624" x2="325.9788" y2="1463.3633" style="stroke-width:var(--lw-3);" />
        
        <line x1="325.9788" y1="1463.3633" x2="325.922" y2="1463.3643" style="stroke-width:var(--lw-3);" />
        
        <line x1="325.922" y1="1463.3643" x2="325.8657" y2="1463.3654" style="stroke-width:var(--lw-3);" />
        
        <line x1="325.8657" y1="1463.3654" x2="325.8098" y2="1463.3665" style="stroke-width:var(--lw-3);" />
        
        <line x1="325.8098" y1="1463.3665" x2="325.736" y2="1463.3682" style="stroke-width:var(--lw-3);" />
        
        <line x1="325.736" y1="1463.3682" x2="325.663" y2="1463.37" style="stroke-width:var(--lw-3);" />
        
        <line x1="325.663" y1="1463.37" x2="325.5906" y2="1463.3719" style="stroke-width:var(--lw-3);" />
        
        <line x1="325.5906" y1="1463.3719" x2="325.5188" y2="1463.374" style="stroke-width:var(--lw-3);" />
        
        <line x1="325.5188" y1="1463.374" x2="324.0557" y2="1463.5001" style="stroke-width:var(--lw-3);" />
        
        <line x1="324.0557" y1="1463.5001" x2="321.8714" y2="1463.8458" style="stroke-width:var(--lw-3);" />
        
        <line x1="321.8714" y1="1463.8458" x2="321.2454" y2="1464.0331" style="stroke-width:var(--lw-3);" />
        
        <line x1="321.2454" y1="1464.0331" x2="318.369" y2="1464.9767" style="stroke-width:var(--lw-3);" />
        
        <line x1="318.369" y1="1464.9767" x2="316.8517" y2="1465.8087" style="stroke-width:var(--lw-3);" />
        
        <line x1="316.8517" y1="1465.8087" x2="315.2141" y2="1466.6968" style="stroke-width:var(--lw-3);" />
        
        <line x1="315.2141" y1="1466.6968" x2="314.4551" y2="1467.31" style="stroke-width:var(--lw-3);" />
        
        <line x1="314.4551" y1="1467.31" x2="314.323" y2="1463.4759" style="stroke-width:var(--lw-3);" />
        
        <line x1="314.323" y1="1463.4759" x2="313.3324" y2="1463.4659" style="stroke-width:var(--lw-3);" />
        
        <line x1="313.3324" y1="1463.4659" x2="310.2307" y2="1463.5446" style="stroke-width:var(--lw-3);" />
        
        <line x1="310.2307" y1="1463.5446" x2="307.1295" y2="1463.6474" style="stroke-width:var(--lw-3);" />
        
        <line x1="307.1295" y1="1463.6474" x2="304.0293" y2="1463.7743" style="stroke-width:var(--lw-3);" />
        
        <line x1="304.0293" y1="1463.7743" x2="300.9302" y2="1463.9251" style="stroke-width:var(--lw-3);" />
        
        <line x1="300.9302" y1="1463.9251" x2="300.9302" y2="1505.7675" style="stroke-width:var(--lw-3);" />
        
        <line x1="300.9302" y1="1505.7675" x2="264.9302" y2="1505.7675" style="stroke-width:var(--lw-3);" />
        
        <line x1="264.9302" y1="1550.7675" x2="305.4302" y2="1550.7675" style="stroke-width:var(--lw-3);" />
        
        <line x1="305.4302" y1="1550.7675" x2="345.9302" y2="1550.7675" style="stroke-width:var(--lw-3);" />
        
        <line x1="345.9302" y1="1550.7675" x2="345.9302" y2="1550.6485" style="stroke-width:var(--lw-3);" />
        
        <line x1="345.9302" y1="1550.6485" x2="345.9302" y2="1550.2431" style="stroke-width:var(--lw-3);" />
        
        <line x1="345.9302" y1="1550.2431" x2="345.9302" y2="1549.5899" style="stroke-width:var(--lw-3);" />
        
        <line x1="345.9302" y1="1549.5899" x2="345.9302" y2="1548.7135" style="stroke-width:var(--lw-3);" />
        
        <line x1="345.9302" y1="1548.7135" x2="345.9302" y2="1547.611" style="stroke-width:var(--lw-3);" />
        
        <line x1="345.9302" y1="1547.611" x2="345.9302" y2="1546.2025" style="stroke-width:var(--lw-3);" />
        
        <line x1="345.9302" y1="1546.2025" x2="345.9302" y2="1544.6261" style="stroke-width:var(--lw-3);" />
        
        <line x1="345.9302" y1="1544.6261" x2="345.9302" y2="1542.8569" style="stroke-width:var(--lw-3);" />
        
        <line x1="345.9302" y1="1542.8569" x2="345.9302" y2="1540.916" style="stroke-width:var(--lw-3);" />
        
        <line x1="345.9302" y1="1540.916" x2="345.9302" y2="1538.8265" style="stroke-width:var(--lw-3);" />
        
        <line x1="345.9302" y1="1538.8265" x2="345.9302" y2="1536.6132" style="stroke-width:var(--lw-3);" />
        
        <line x1="345.9302" y1="1536.6132" x2="345.9302" y2="1534.3023" style="stroke-width:var(--lw-3);" />
        
        <line x1="345.9302" y1="1534.3023" x2="345.9302" y2="1531.9211" style="stroke-width:var(--lw-3);" />
        
        <line x1="345.9302" y1="1531.9211" x2="345.9302" y2="1529.4977" style="stroke-width:var(--lw-3);" />
        
        <line x1="345.9302" y1="1529.4977" x2="345.9302" y2="1527.0604" style="stroke-width:var(--lw-3);" />
        
        <line x1="345.9302" y1="1527.0604" x2="345.9302" y2="1524.6379" style="stroke-width:var(--lw-3);" />
        
        <line x1="345.9302" y1="1524.6379" x2="345.9302" y2="1522.2584" style="stroke-width:var(--lw-3);" />
        
        <line x1="345.9302" y1="1522.2584" x2="345.9302" y2="1519.9495" style="stroke-width:var(--lw-3);" />
        
        <line x1="345.9302" y1="1519.9495" x2="345.9302" y2="1517.738" style="stroke-width:var(--lw-3);" />
        
        <line x1="345.9302" y1="1517.738" x2="345.9302" y2="1515.6068" style="stroke-width:var(--lw-3);" />
        
        <line x1="345.9302" y1="1515.6068" x2="345.9302" y2="1513.6928" style="stroke-width:var(--lw-3);" />
        
        <line x1="345.9302" y1="1513.6928" x2="345.9302" y2="1511.8364" style="stroke-width:var(--lw-3);" />
        
        <line x1="345.9302" y1="1511.8364" x2="345.9302" y2="1510.2289" style="stroke-width:var(--lw-3);" />
        
        <line x1="345.9302" y1="1510.2289" x2="345.9302" y2="1508.9125" style="stroke-width:var(--lw-3);" />
        
        <line x1="345.9302" y1="1508.9125" x2="345.9302" y2="1507.7887" style="stroke-width:var(--lw-3);" />
        
        <line x1="345.9302" y1="1507.7887" x2="345.9302" y2="1506.9085" style="stroke-width:var(--lw-3);" />
        
        <line x1="345.9302" y1="1506.9085" x2="345.9302" y2="1506.2791" style="stroke-width:var(--lw-3);" />
        
        <line x1="345.9302" y1="1506.2791" x2="345.9302" y2="1505.8971" style="stroke-width:var(--lw-3);" />
        
        <line x1="345.9302" y1="1505.8971" x2="345.9302" y2="1505.7675" style="stroke-width:var(--lw-3);" />
        
        <line x1="345.9302" y1="1505.7675" x2="342.9302" y2="1505.7675" style="stroke-width:var(--lw-3);" />
        
        <line x1="342.9302" y1="1505.7675" x2="342.9302" y2="1494.1658" style="stroke-width:var(--lw-3);" />
        
        <line x1="342.9302" y1="1494.1658" x2="344.8577" y2="1493.929" style="stroke-width:var(--lw-3);" />
        
        <line x1="344.8577" y1="1493.929" x2="348.0418" y2="1493.4982" style="stroke-width:var(--lw-3);" />
        
        <line x1="348.0418" y1="1493.4982" x2="351.4501" y2="1492.9986" style="stroke-width:var(--lw-3);" />
        
        <line x1="351.4501" y1="1492.9986" x2="355.0824" y2="1492.4286" style="stroke-width:var(--lw-3);" />
        
        <line x1="355.0824" y1="1492.4286" x2="358.9386" y2="1491.7869" style="stroke-width:var(--lw-3);" />
        
        <line x1="358.9386" y1="1491.7869" x2="363.0155" y2="1491.0728" style="stroke-width:var(--lw-3);" />
        
        <line x1="363.0155" y1="1491.0728" x2="368.6739" y2="1490.0294" style="stroke-width:var(--lw-3);" />
        
        <line x1="368.6739" y1="1490.0294" x2="369.6747" y2="1489.986" style="stroke-width:var(--lw-3);" />
        
        <line x1="369.6747" y1="1489.986" x2="370.1724" y2="1489.9839" style="stroke-width:var(--lw-3);" />
        
        <line x1="370.1724" y1="1489.9839" x2="370.6505" y2="1490.0643" style="stroke-width:var(--lw-3);" />
        
        <line x1="370.6505" y1="1490.0643" x2="371.0857" y2="1490.156" style="stroke-width:var(--lw-3);" />
        
        <line x1="371.0857" y1="1490.156" x2="371.719" y2="1490.3712" style="stroke-width:var(--lw-3);" />
        
        <line x1="371.719" y1="1490.3712" x2="372.0598" y2="1490.5038" style="stroke-width:var(--lw-3);" />
        
        <line x1="372.0598" y1="1490.5038" x2="372.773" y2="1490.8881" style="stroke-width:var(--lw-3);" />
        
        <line x1="372.773" y1="1490.8881" x2="373.0371" y2="1491.0462" style="stroke-width:var(--lw-3);" />
        
        <line x1="373.0371" y1="1491.0462" x2="373.7189" y2="1491.5814" style="stroke-width:var(--lw-3);" />
        
        <line x1="373.7189" y1="1491.5814" x2="373.9578" y2="1491.7875" style="stroke-width:var(--lw-3);" />
        
        <line x1="373.9578" y1="1491.7875" x2="374.4901" y2="1492.3816" style="stroke-width:var(--lw-3);" />
        
        <line x1="374.4901" y1="1492.3816" x2="374.7653" y2="1492.7195" style="stroke-width:var(--lw-3);" />
        
        <line x1="374.7653" y1="1492.7195" x2="375.0414" y2="1493.166" style="stroke-width:var(--lw-3);" />
        
        <line x1="375.0414" y1="1493.166" x2="375.4143" y2="1493.8451" style="stroke-width:var(--lw-3);" />
        
        <line x1="375.4143" y1="1493.8451" x2="375.4694" y2="1493.9587" style="stroke-width:var(--lw-3);" />
        
        <line x1="375.4694" y1="1493.9587" x2="376.0631" y2="1495.1556" style="stroke-width:var(--lw-3);" />
        
        <line x1="376.0631" y1="1495.1556" x2="377.1718" y2="1497.2254" style="stroke-width:var(--lw-3);" />
        
        <line x1="377.1718" y1="1497.2254" x2="378.4718" y2="1499.1912" style="stroke-width:var(--lw-3);" />
        
        <line x1="378.4718" y1="1499.1912" x2="379.6182" y2="1500.8044" style="stroke-width:var(--lw-3);" />
        
        <line x1="379.6182" y1="1500.8044" x2="381.2297" y2="1502.7568" style="stroke-width:var(--lw-3);" />
        
        <line x1="381.2297" y1="1502.7568" x2="382.7315" y2="1504.2802" style="stroke-width:var(--lw-3);" />
        
        <line x1="382.7315" y1="1504.2802" x2="384.6558" y2="1506.1068" style="stroke-width:var(--lw-3);" />
        
        <line x1="384.6558" y1="1506.1068" x2="386.4609" y2="1507.4738" style="stroke-width:var(--lw-3);" />
        
        <line x1="386.4609" y1="1507.4738" x2="388.6784" y2="1509.0574" style="stroke-width:var(--lw-3);" />
        
        <line x1="388.6784" y1="1509.0574" x2="390.722" y2="1510.2121" style="stroke-width:var(--lw-3);" />
        
        <line x1="390.722" y1="1510.2121" x2="393.1913" y2="1511.4414" style="stroke-width:var(--lw-3);" />
        
        <line x1="393.1913" y1="1511.4414" x2="395.3997" y2="1512.3433" style="stroke-width:var(--lw-3);" />
        
        <line x1="395.3997" y1="1512.3433" x2="398.0594" y2="1513.1252" style="stroke-width:var(--lw-3);" />
        
        <line x1="398.0594" y1="1513.1252" x2="400.3559" y2="1513.7524" style="stroke-width:var(--lw-3);" />
        
        <line x1="400.3559" y1="1513.7524" x2="403.4174" y2="1514.2306" style="stroke-width:var(--lw-3);" />
        
        <line x1="403.4174" y1="1514.2306" x2="404.4359" y2="1514.3374" style="stroke-width:var(--lw-3);" />
        
        <line x1="404.4359" y1="1514.3374" x2="404.4758" y2="1514.3388" style="stroke-width:var(--lw-3);" />
        
        <line x1="404.4758" y1="1514.3388" x2="405.1554" y2="1514.4509" style="stroke-width:var(--lw-3);" />
        
        <line x1="405.1554" y1="1514.4509" x2="407.9848" y2="1514.726" style="stroke-width:var(--lw-3);" />
        
        <line x1="407.9848" y1="1514.726" x2="410.8143" y2="1514.4509" style="stroke-width:var(--lw-3);" />
        
        <path d="M348.8631,1127.8682 L287.4879,1127.8682 L287.4879,1201.0458 L348.8631,1201.0458 Z" style="stroke-width:var(--lw-3);" />
        
        <path d="M2190,1480 L2220,1480" style="stroke-width:var(--lw-3);" />
        
        <path d="M2190,2280 L2220,2280" style="stroke-width:var(--lw-3);" />
        
        <line x1="1720" y1="1280" x2="1720" y2="2480" style="stroke-width:var(--lw-3);" />
        
        <line x1="1720" y1="1280" x2="1720" y2="2480" style="stroke-width:var(--lw-3);" />
        
        <line x1="1720" y1="2480" x2="2220" y2="2480" style="stroke-width:var(--lw-3);" />
        
        <line x1="1720" y1="1280" x2="2220" y2="1280" style="stroke-width:var(--lw-3);" />
        
        <line x1="1769.496" y1="1650" x2="1769.496" y2="2110" style="stroke-width:var(--lw-3);" />
        
        <line x1="1769.496" y1="2110" x2="2099.496" y2="2110" style="stroke-width:var(--lw-3);" />
        
        <line x1="2099.496" y1="2110" x2="2099.496" y2="1900" style="stroke-width:var(--lw-3);" />
        
        <line x1="2099.496" y1="1860" x2="2099.496" y2="1650" style="stroke-width:var(--lw-3);" />
        
        <line x1="2099.496" y1="1650" x2="1769.496" y2="1650" style="stroke-width:var(--lw-3);" />
        
        <path d="M2047.3962,1860 A30,30 45 1 0 2047.3962,1900" style="stroke-width:var(--lw-3);" />
        
        <line x1="2024.496" y1="1860" x2="2024.496" y2="1900" style="stroke-width:var(--lw-3);" />
        
        <line x1="2024.496" y1="1900" x2="2159.496" y2="1900" style="stroke-width:var(--lw-3);" />
        
        <line x1="2159.496" y1="1860" x2="2024.496" y2="1860" style="stroke-width:var(--lw-3);" />
        
        <line x1="2190" y1="1480" x2="2190" y2="2280" style="stroke-width:var(--lw-3);" />
        
        <path d="M2159.496,1900 L2159.496,1860" style="stroke-width:var(--lw-3);" />
        
        <line x1="520" y1="800" x2="520" y2="0" style="stroke-width:var(--lw-3);" />
        
        <line x1="2040" y1="620" x2="700" y2="620" style="stroke-width:var(--lw-3);" />
        
        <line x1="700" y1="620" x2="700" y2="180" style="stroke-width:var(--lw-3);" />
        
        <line x1="700" y1="180" x2="2040" y2="180" style="stroke-width:var(--lw-3);" />
        
        <line x1="2040" y1="180" x2="2040" y2="386.1664" style="stroke-width:var(--lw-3);" />
        
        <line x1="2040" y1="413.8336" x2="2040" y2="620" style="stroke-width:var(--lw-3);" />
        
        <line x1="2148" y1="728" x2="592" y2="728" style="stroke-width:var(--lw-3);" />
        
        <line x1="592" y1="728" x2="592" y2="72" style="stroke-width:var(--lw-3);" />
        
        <line x1="592" y1="72" x2="2148" y2="72" style="stroke-width:var(--lw-3);" />
        
        <line x1="2148" y1="72" x2="2148" y2="310" style="stroke-width:var(--lw-3);" />
        
        <line x1="2148" y1="340" x2="2148" y2="385" style="stroke-width:var(--lw-3);" />
        
        <line x1="2148" y1="415" x2="2148" y2="460" style="stroke-width:var(--lw-3);" />
        
        <line x1="2148" y1="490" x2="2148" y2="728" style="stroke-width:var(--lw-3);" />
        
        <line x1="2148" y1="728" x2="2040" y2="620" style="stroke-width:var(--lw-3);" />
        
        <line x1="2148" y1="72" x2="2040" y2="180" style="stroke-width:var(--lw-3);" />
        
        <line x1="592" y1="72" x2="700" y2="180" style="stroke-width:var(--lw-3);" />
        
        <line x1="592" y1="728" x2="700" y2="620" style="stroke-width:var(--lw-3);" />
        
        <line x1="2040" y1="620" x2="700" y2="620" style="stroke-width:var(--lw-3);" />
        
        <line x1="700" y1="620" x2="700" y2="180" style="stroke-width:var(--lw-3);" />
        
        <line x1="700" y1="180" x2="2040" y2="180" style="stroke-width:var(--lw-3);" />
        
        <line x1="2040" y1="180" x2="2040" y2="386.1664" style="stroke-width:var(--lw-3);" />
        
        <line x1="2040" y1="413.8336" x2="2040" y2="620" style="stroke-width:var(--lw-3);" />
        
        <ellipse transform="translate(1370 560) rotate(45)" rx="25" ry="25" style="stroke-width:var(--lw-3);" />
        
        <path d="M1050.0126,3344.9874 L1544.9874,2850.0126" style="stroke-width:var(--lw-4);" />
        
        <path d="M1106.5812,3401.5559 L1601.5559,2906.5812" style="stroke-width:var(--lw-4);" />
        
        <path d="M990,4020 L990,3405 L1050.0126,3344.9874 L1106.5812,3401.5559 L1070,3438.1371 L1070,4020" style="stroke-width:var(--lw-6);" />
        
        <path d="M2220,2870 L1638.1371,2870 L1601.5559,2906.5812 L1544.9874,2850.0126 L1605,2790 L2220,2790" style="stroke-width:var(--lw-6);" />
        
        <path d="M0,3620 L990,3620" style="stroke-width:var(--lw-3);" />
        
        <path d="M0,4020 L990,3620" style="stroke-width:var(--lw-3);" />
        
        <path d="M990,4020 L0,3620" style="stroke-width:var(--lw-3);" />
        
        <path d="M1937.1573,4020 L2220,3737.1573" style="stroke-width:var(--lw-6);" />
        
        <path d="M2193.9969,859.0685 C2185.5155,865.7411 2177.5817,875.0396, 2173.1307,885.0428 M2173.1307,885.0428 C2163.9722,905.6257 2169.5591,929.1925, 2156.1605,936.0105 M2156.1605,936.0105 C2142.7738,942.8225 2110.4356,932.9155, 2105.2496,919.0213 M2105.2496,919.0213 C2100.8302,907.1808 2116.1294,892.4448, 2122.2198,876.5485 M2122.2198,876.5485 C2125.6133,867.6914 2126.1479,858.474, 2122.2198,851.0644 M2122.2198,851.0644 C2115.1756,837.7765 2093.7795,830.302, 2079.794,834.0752 M2079.794,834.0752 C2059.5056,839.5488 2054.8122,868.6926, 2057.0262,896.3405 M2057.0262,896.3405 C2058.0822,909.5264 2060.7092,922.3721, 2054.32,927.8432 M2054.32,927.8432 C2046.7334,934.3398 2026.4341,930.4384, 2017.2871,921.6645 M2017.2871,921.6645 C1995.9343,901.1827 2035.3546,854.1486, 2020.398,834.0752 M2020.398,834.0752 C2007.2856,816.4769 1952.3798,819.6003, 1944.0318,842.57 M1944.0318,842.57 C1942.186,847.6488 1942.6163,853.6978, 1944.0318,859.5592 M1944.0318,859.5592 C1947.6403,874.5024 1957.6517,888.2266, 1952.5169,902.0321 M1952.5169,902.0321 C1946.9158,917.091 1923.2931,932.2467, 1911.3889,925.2819 M1911.3889,925.2819 C1905.0332,921.5634 1902.0179,911.5395, 1901.6062,902.0321 M1901.6062,902.0321 C1900.913,886.0234 1907.6018,871.4793, 1901.6062,859.5592 M1901.6062,859.5592 C1890.5625,837.6029 1836.4826,824.5492, 1825.2397,842.57 M1825.2397,842.57 C1820.3567,850.3968 1823.5543,864.0854, 1825.2397,876.5485 M1825.2397,876.5485 C1826.8119,888.1739 1827.0684,898.733, 1822.7723,908.1471 M1822.7723,908.1471 C1818.1658,918.2412 1808.3252,927.0189, 1796.0274,929.1148 M1796.0274,929.1148 C1776.3499,932.4684 1750.3814,918.7145, 1748.8735,902.0321 M1748.8735,902.0321 C1747.3839,885.5519 1769.7653,866.2139, 1765.8437,851.0644 M1765.8437,851.0644 C1761.3338,833.6421 1722.0366,821.7595, 1706.4479,834.0752 M1706.4479,834.0752 C1699.6703,839.4297 1697.3743,849.3586, 1697.9626,859.5592 M1697.9626,859.5592 C1699.278,882.3704 1715.0168,906.541, 1706.4479,919.0213 M1706.4479,919.0213 C1696.7638,933.1259 1656.0335,932.2994, 1638.5666,919.0213 M1638.5666,919.0213 C1618.8944,904.0669 1628.7305,873.3184, 1638.5666,842.57 " style="stroke-width:var(--lw-3);" />
        
        <path d="M862.6126,859.0685 C854.1313,865.7411 846.1975,875.0396, 841.7465,885.0428 M841.7465,885.0428 C832.588,905.6257 838.1748,929.1925, 824.7762,936.0105 M824.7762,936.0105 C811.3896,942.8225 779.0513,932.9155, 773.8653,919.0213 M773.8653,919.0213 C769.4459,907.1808 784.7451,892.4448, 790.8356,876.5485 M790.8356,876.5485 C794.229,867.6914 794.7636,858.474, 790.8356,851.0644 M790.8356,851.0644 C783.7913,837.7765 762.3953,830.302, 748.4098,834.0752 M748.4098,834.0752 C728.1213,839.5488 723.428,868.6926, 725.642,896.3405 M725.642,896.3405 C726.6979,909.5264 729.325,922.3721, 722.9358,927.8432 M722.9358,927.8432 C715.3491,934.3398 695.0499,930.4384, 685.9029,921.6645 M685.9029,921.6645 C664.5501,901.1827 703.9704,854.1486, 689.0138,834.0752 M689.0138,834.0752 C675.9014,816.4769 620.9955,819.6003, 612.6475,842.57 M612.6475,842.57 C610.8017,847.6488 611.232,853.6978, 612.6475,859.5592 M612.6475,859.5592 C616.2561,874.5024 626.2675,888.2266, 621.1326,902.0321 M621.1326,902.0321 C615.5315,917.091 591.9089,932.2467, 580.0046,925.2819 M580.0046,925.2819 C573.6489,921.5634 570.6336,911.5395, 570.2219,902.0321 M570.2219,902.0321 C569.5288,886.0234 576.2176,871.4793, 570.2219,859.5592 M570.2219,859.5592 C559.1782,837.6029 505.0983,824.5492, 493.8555,842.57 M493.8555,842.57 C488.9725,850.3968 492.17,864.0854, 493.8555,876.5485 M493.8555,876.5485 C495.4277,888.1739 495.6842,898.733, 491.3881,908.1471 M491.3881,908.1471 C486.7816,918.2412 476.9409,927.0189, 464.6432,929.1148 M464.6432,929.1148 C444.9656,932.4684 418.9971,918.7145, 417.4892,902.0321 M417.4892,902.0321 C415.9996,885.5519 438.3811,866.2139, 434.4595,851.0644 M434.4595,851.0644 C429.9495,833.6421 390.6524,821.7595, 375.0637,834.0752 M375.0637,834.0752 C368.286,839.4297 365.9901,849.3586, 366.5783,859.5592 M366.5783,859.5592 C367.8938,882.3704 383.6326,906.541, 375.0637,919.0213 M375.0637,919.0213 C365.3796,933.1259 324.6492,932.2994, 307.1823,919.0213 M307.1823,919.0213 C287.5102,904.0669 297.3463,873.3184, 307.1823,842.57 " style="stroke-width:var(--lw-3);" />
        
        <path d="M1939.1569,3753.299 A105.0308,105.0308 0 1,1 1953.299,3739.1569" style="stroke-width:var(--lw-3);" />
        
        <path d="M1942.3047,3756.4468 A109.463,109.463 0 1,1 1956.4468,3742.3047" style="stroke-width:var(--lw-3);" />
        
        <path d="M1865.2263,3679.3684 A10,10 0 1,1 1879.3684,3665.2263" style="stroke-width:var(--lw-3);" />
        
        <line x1="2085.6497" y1="3871.5076" x2="1879.3684" y2="3665.2263" style="stroke-width:var(--lw-3);" />
        
        <line x1="2071.5076" y1="3885.6497" x2="1865.2263" y2="3679.3684" style="stroke-width:var(--lw-3);" />
        
        <line x1="2058.1568" y1="3872.299" x2="2016.6428" y2="3913.813" style="stroke-width:var(--lw-3);" />
        
        <line x1="2016.6428" y1="3913.813" x2="2029.9936" y2="3927.1637" style="stroke-width:var(--lw-3);" />
        
        <line x1="2127.1637" y1="3829.9936" x2="2113.813" y2="3816.6428" style="stroke-width:var(--lw-3);" />
        
        <line x1="2113.813" y1="3816.6428" x2="2072.299" y2="3858.1568" style="stroke-width:var(--lw-3);" />
        
        <line x1="2111.9124" y1="332.1667" x2="2096.9124" y2="332.1667" style="stroke-width:var(--lw-3);" />
        
        <line x1="2111.9124" y1="310" x2="2111.9124" y2="340" style="stroke-width:var(--lw-3);" />
        
        <line x1="2111.9124" y1="317.8333" x2="2096.9124" y2="317.8333" style="stroke-width:var(--lw-3);" />
        
        <line x1="2170" y1="310" x2="2111.9124" y2="310" style="stroke-width:var(--lw-3);" />
        
        <line x1="2111.9124" y1="340" x2="2170" y2="340" style="stroke-width:var(--lw-3);" />
        
        <line x1="2141.1212" y1="415" x2="2111.1212" y2="415" style="stroke-width:var(--lw-3);" />
        
        <line x1="2111.1212" y1="385" x2="2141.1212" y2="385" style="stroke-width:var(--lw-3);" />
        
        <line x1="2111.1212" y1="415" x2="2111.1212" y2="385" style="stroke-width:var(--lw-3);" />
        
        <line x1="2111.1212" y1="407.1667" x2="2085.4545" y2="407.1667" style="stroke-width:var(--lw-3);" />
        
        <line x1="2111.1212" y1="392.8333" x2="2071.1212" y2="392.8333" style="stroke-width:var(--lw-3);" />
        
        <line x1="2085.4545" y1="407.1667" x2="2085.4545" y2="488.5" style="stroke-width:var(--lw-3);" />
        
        <line x1="2071.1212" y1="488.5" x2="2085.4545" y2="488.5" style="stroke-width:var(--lw-3);" />
        
        <line x1="2071.1212" y1="392.8333" x2="2071.1212" y2="488.5" style="stroke-width:var(--lw-3);" />
        
        <line x1="2170" y1="490" x2="2111.9124" y2="490" style="stroke-width:var(--lw-3);" />
        
        <line x1="2111.9124" y1="460" x2="2170" y2="460" style="stroke-width:var(--lw-3);" />
        
        <line x1="2111.9124" y1="490" x2="2111.9124" y2="460" style="stroke-width:var(--lw-3);" />
        
        <line x1="2111.9124" y1="467.8333" x2="2096.9124" y2="467.8333" style="stroke-width:var(--lw-3);" />
        
        <line x1="2111.9124" y1="482.1667" x2="2096.9124" y2="482.1667" style="stroke-width:var(--lw-3);" />
        
        <path d="M2130.576,410 A10,10 0 0,1 2130.576,390" style="stroke-width:var(--lw-3);" />
        
        <path d="M2130.576,390 A10,10 0 1,1 2130.576,410" style="stroke-width:var(--lw-3);" />
        
        <path d="M2030.7992,400 A15,15 0 0,1 2045.7992,385" style="stroke-width:var(--lw-3);" />
        
        <path d="M2045.7992,415 A15,15 0 0,1 2030.7992,400" style="stroke-width:var(--lw-3);" />
        
        <line x1="2030.7992" y1="400" x2="2030.7992" y2="400" style="stroke-width:var(--lw-3);" />
        
        <line x1="2220.7005" y1="385" x2="2045.7992" y2="385" style="stroke-width:var(--lw-3);" />
        
        <line x1="2220" y1="415" x2="2045.7992" y2="415" style="stroke-width:var(--lw-3);" />
        
        <line x1="2220" y1="415" x2="2220" y2="385" style="stroke-width:var(--lw-3);" />
        
        <line x1="2170" y1="290" x2="2170" y2="360" style="stroke-width:var(--lw-3);" />
        
        <line x1="2170" y1="360" x2="2220" y2="360" style="stroke-width:var(--lw-3);" />
        
        <line x1="2220" y1="360" x2="2220" y2="290" style="stroke-width:var(--lw-3);" />
        
        <line x1="2220" y1="290" x2="2170" y2="290" style="stroke-width:var(--lw-3);" />
        
        <line x1="2081.9124" y1="290" x2="2081.9124" y2="360" style="stroke-width:var(--lw-3);" />
        
        <line x1="2081.9124" y1="360" x2="2096.9124" y2="360" style="stroke-width:var(--lw-3);" />
        
        <line x1="2096.9124" y1="360" x2="2096.9124" y2="290" style="stroke-width:var(--lw-3);" />
        
        <line x1="2096.9124" y1="290" x2="2081.9124" y2="290" style="stroke-width:var(--lw-3);" />
        
        <line x1="2081.9124" y1="510" x2="2081.9124" y2="440" style="stroke-width:var(--lw-3);" />
        
        <line x1="2081.9124" y1="440" x2="2096.9124" y2="440" style="stroke-width:var(--lw-3);" />
        
        <line x1="2096.9124" y1="440" x2="2096.9124" y2="510" style="stroke-width:var(--lw-3);" />
        
        <line x1="2096.9124" y1="510" x2="2081.9124" y2="510" style="stroke-width:var(--lw-3);" />
        
        <line x1="2170" y1="510" x2="2170" y2="440" style="stroke-width:var(--lw-3);" />
        
        <line x1="2170" y1="440" x2="2220" y2="440" style="stroke-width:var(--lw-3);" />
        
        <line x1="2220" y1="440" x2="2220" y2="510" style="stroke-width:var(--lw-3);" />
        
        <line x1="2220" y1="510" x2="2170" y2="510" style="stroke-width:var(--lw-3);" />
    </g>
</svg>