<svg xmlns="http://www.w3.org/2000/svg" width="4445mm" height="3375mm" viewBox="-15.9999 -3391.0 4477.0 3407.0" version="1.1" class="svg-drawing">
    <g transform="scale(1,-1)">
        
        <path d="M930.0001,0 L3515.0001,0" style="stroke-width:var(--lw-1);stroke-dasharray:1rem" />
        
        <path d="M3895.0001,3360 L4445.0001,3360 L4445.0001,0 L3515.0001,0" style="stroke-width:var(--lw-6);" />
        
        <path d="M930.0049,0 L0.0001,0 L0.0001,3360 L1175.0001,3360" style="stroke-width:var(--lw-6);" />
        
        <path d="M1975.0001,3360 L2995.0001,3360" style="stroke-width:var(--lw-6);" />
        
        <path d="M3895.0001,3375 L3895.0001,3360" style="stroke-width:var(--lw-1);" />
        
        <path d="M2995.0001,3360 L3895.0001,3360" style="stroke-width:var(--lw-1);stroke-dasharray:1rem" />
        
        <path d="M1175.0001,3360 L1975.0001,3360" style="stroke-width:var(--lw-1);stroke-dasharray:1rem" />
        
        <path d="M3222.5001,20 L1222.5001,20 L1222.5001,110 L3222.5001,110 Z" style="stroke-width:var(--lw-3);" />
        
        <line x1="440.0001" y1="2320" x2="480.0001" y2="2360" style="stroke-width:var(--lw-3);" />
        
        <line x1="480.0001" y1="2360" x2="480.0001" y2="2470" style="stroke-width:var(--lw-3);" />
        
        <line x1="480.0001" y1="2470" x2="60.0001" y2="2470" style="stroke-width:var(--lw-3);" />
        
        <line x1="60.0001" y1="2470" x2="60.0001" y2="1740" style="stroke-width:var(--lw-3);" />
        
        <line x1="60.0001" y1="1740" x2="440.0001" y2="1740" style="stroke-width:var(--lw-3);" />
        
        <line x1="440.0001" y1="1740" x2="440.0001" y2="2320" style="stroke-width:var(--lw-3);" />
        
        <line x1="440.0001" y1="1620" x2="60.0001" y2="1620" style="stroke-width:var(--lw-3);" />
        
        <line x1="60.0001" y1="1620" x2="60.0001" y2="890" style="stroke-width:var(--lw-3);" />
        
        <line x1="60.0001" y1="890" x2="480.0001" y2="890" style="stroke-width:var(--lw-3);" />
        
        <line x1="480.0001" y1="890" x2="480.0001" y2="1000" style="stroke-width:var(--lw-3);" />
        
        <line x1="480.0001" y1="1000" x2="440.0001" y2="1040" style="stroke-width:var(--lw-3);" />
        
        <line x1="440.0001" y1="1040" x2="440.0001" y2="1620" style="stroke-width:var(--lw-3);" />
        
        <line x1="2070.0001" y1="1680" x2="2070.0001" y2="2500" style="stroke-width:var(--lw-3);" />
        
        <line x1="2070.0001" y1="2500" x2="620.0001" y2="2500" style="stroke-width:var(--lw-3);" />
        
        <line x1="620.0001" y1="2500" x2="440.0001" y2="2320" style="stroke-width:var(--lw-3);" />
        
        <line x1="440.0001" y1="2320" x2="440.0001" y2="1680" style="stroke-width:var(--lw-3);" />
        
        <line x1="620.0001" y1="2500" x2="620.0001" y2="2320" style="stroke-width:var(--lw-3);" />
        
        <line x1="440.0001" y1="2320" x2="620.0001" y2="2320" style="stroke-width:var(--lw-3);" />
        
        <line x1="440.0001" y1="1680" x2="440.0001" y2="1040" style="stroke-width:var(--lw-3);" />
        
        <line x1="440.0001" y1="1040" x2="620.0001" y2="860" style="stroke-width:var(--lw-3);" />
        
        <line x1="620.0001" y1="860" x2="2070.0001" y2="860" style="stroke-width:var(--lw-3);" />
        
        <line x1="2070.0001" y1="860" x2="2070.0001" y2="1680" style="stroke-width:var(--lw-3);" />
        
        <line x1="620.0001" y1="860" x2="620.0001" y2="1040" style="stroke-width:var(--lw-3);" />
        
        <line x1="440.0001" y1="1040" x2="620.0001" y2="1040" style="stroke-width:var(--lw-3);" />
        
        <line x1="2100.0001" y1="830" x2="2100.0001" y2="2530" style="stroke-width:var(--lw-3);" />
        
        <line x1="2100.0001" y1="2530" x2="0.0001" y2="2530" style="stroke-width:var(--lw-3);" />
        
        <line x1="0.0001" y1="830" x2="2100.0001" y2="830" style="stroke-width:var(--lw-3);" />
        
        <line x1="400.0001" y1="330" x2="400.0001" y2="830" style="stroke-width:var(--lw-3);" />
        
        <line x1="400.0001" y1="830" x2="0.0001" y2="830" style="stroke-width:var(--lw-3);" />
        
        <line x1="0.0001" y1="330" x2="400.0001" y2="330" style="stroke-width:var(--lw-3);" />
        
        <line x1="400.0001" y1="2530" x2="400.0001" y2="3030" style="stroke-width:var(--lw-3);" />
        
        <line x1="400.0001" y1="3030" x2="0.0001" y2="3030" style="stroke-width:var(--lw-3);" />
        
        <line x1="0.0001" y1="2530" x2="400.0001" y2="2530" style="stroke-width:var(--lw-3);" />
        
        <line x1="2500.0001" y1="1080" x2="2100.0001" y2="1080" style="stroke-width:var(--lw-3);" />
        
        <line x1="2100.0001" y1="1080" x2="2100.0001" y2="2280" style="stroke-width:var(--lw-3);" />
        
        <line x1="2100.0001" y1="2280" x2="2500.0001" y2="2280" style="stroke-width:var(--lw-3);" />
        
        <line x1="2500.0001" y1="2280" x2="2500.0001" y2="1080" style="stroke-width:var(--lw-3);" />
        
        <line x1="3851.5086" y1="1505" x2="3851.5086" y2="1055" style="stroke-width:var(--lw-3);" />
        
        <path d="M3676.5086,1055 A225,225 69.3738 0 0 3676.5086,1505" style="stroke-width:var(--lw-3);" />
        
        <line x1="3676.5086" y1="1505" x2="3851.5086" y2="1505" style="stroke-width:var(--lw-3);" />
        
        <path d="M3676.5086,1005 A275,275 339.3738 0 0 3676.5086,1555" style="stroke-width:var(--lw-3);" />
        
        <line x1="3676.5086" y1="1055" x2="3851.5086" y2="1055" style="stroke-width:var(--lw-3);" />
        
        <line x1="3995.0001" y1="1680" x2="3995.0001" y2="3080" style="stroke-width:var(--lw-3);" />
        
        <line x1="3995.0001" y1="3080" x2="4445.0001" y2="3080" style="stroke-width:var(--lw-3);" />
        
        <path d="M3995.0001,880 L3995.0001,1680" style="stroke-width:var(--lw-3);" />
        
        <line x1="4445.0001" y1="280" x2="3995.0001" y2="280" style="stroke-width:var(--lw-3);" />
        
        <line x1="3995.0001" y1="280" x2="3995.0001" y2="880" style="stroke-width:var(--lw-3);" />
        
        <path d="M3995.0001,1680 L4445.0001,1680" style="stroke-width:var(--lw-1);stroke-dasharray:1rem" />
        
        <path d="M3995.0001,880 L4445.0001,880" style="stroke-width:var(--lw-1);stroke-dasharray:1rem" />
        
        <path d="M4320.124,90.6614 C4307.166,100.8559 4295.0445,115.0625, 4288.2441,130.3458 M4288.2441,130.3458 C4274.2515,161.7929 4282.7872,197.799, 4262.3165,208.2157 M4262.3165,208.2157 C4241.8639,218.6232 4192.4565,203.487, 4184.5332,182.2591 M4184.5332,182.2591 C4177.7811,164.1689 4201.1557,141.6547, 4210.4609,117.3678 M4210.4609,117.3678 C4215.6455,103.8356 4216.4623,89.7531, 4210.4609,78.4324 M4210.4609,78.4324 C4199.6985,58.1308 4167.0089,46.7111, 4145.6414,52.4758 M4145.6414,52.4758 C4114.6441,60.8385 4107.4734,105.3653, 4110.8561,147.6066 M4110.8561,147.6066 C4112.4694,167.7525 4116.4831,187.3785, 4106.7215,195.7375 M4106.7215,195.7375 C4095.1304,205.6631 4064.1166,199.7024, 4050.1415,186.2974 M4050.1415,186.2974 C4017.518,155.0048 4077.7456,83.1446, 4054.8944,52.4758 M4054.8944,52.4758 C4034.8609,25.5886 3950.974,30.3606, 3938.2197,65.4544 M3938.2197,65.4544 C3935.3996,73.2139 3936.0571,82.4558, 3938.2197,91.4111 M3938.2197,91.4111 C3943.733,114.2417 3959.0287,135.21, 3951.1835,156.3024 M3951.1835,156.3024 C3942.626,179.31 3906.5345,202.4652, 3888.3469,191.8243 M3888.3469,191.8243 C3878.6364,186.143 3874.0295,170.8281, 3873.4006,156.3024 M3873.4006,156.3024 C3872.3415,131.8438 3882.5609,109.623, 3873.4006,91.4111 M3873.4006,91.4111 C3856.5276,57.8655 3773.9027,37.9217, 3756.7255,65.4544 M3756.7255,65.4544 C3749.2651,77.4125 3754.1504,98.3263, 3756.7255,117.3678 M3756.7255,117.3678 C3759.1276,135.1295 3759.5195,151.262, 3752.9557,165.6451 M3752.9557,165.6451 C3745.9178,181.0672 3730.883,194.4781, 3712.0941,197.6802 M3712.0941,197.6802 C3682.0301,202.804 3642.3546,181.7903, 3640.0508,156.3024 M3640.0508,156.3024 C3637.775,131.1236 3671.97,101.5783, 3665.9785,78.4324 M3665.9785,78.4324 C3659.0881,51.8141 3599.0486,33.6595, 3575.2317,52.4758 M3575.2317,52.4758 C3564.8767,60.6566 3561.3688,75.8262, 3562.2676,91.4111 M3562.2676,91.4111 C3564.2774,126.2626 3588.3236,163.1912, 3575.2317,182.2591 M3575.2317,182.2591 C3560.4361,203.8085 3498.207,202.5457, 3471.5205,182.2591 M3471.5205,182.2591 C3441.4649,159.4113 3456.4927,112.4329, 3471.5205,65.4544 " style="stroke-width:var(--lw-3);" />
        
        <path d="M124.8761,90.6614 C137.8341,100.8559 149.9556,115.0625, 156.756,130.3458 M156.756,130.3458 C170.7486,161.7929 162.2129,197.799, 182.6836,208.2157 M182.6836,208.2157 C203.1362,218.6232 252.5436,203.487, 260.4669,182.2591 M260.4669,182.2591 C267.219,164.1689 243.8444,141.6547, 234.5393,117.3678 M234.5393,117.3678 C229.3546,103.8356 228.5379,89.7531, 234.5393,78.4324 M234.5393,78.4324 C245.3017,58.1308 277.9912,46.7111, 299.3587,52.4758 M299.3587,52.4758 C330.356,60.8385 337.5267,105.3653, 334.144,147.6066 M334.144,147.6066 C332.5307,167.7525 328.5171,187.3785, 338.2786,195.7375 M338.2786,195.7375 C349.8697,205.6631 380.8836,199.7024, 394.8587,186.2974 M394.8587,186.2974 C427.4821,155.0048 367.2545,83.1446, 390.1057,52.4758 M390.1057,52.4758 C410.1392,25.5886 494.0261,30.3606, 506.7804,65.4544 M506.7804,65.4544 C509.6005,73.2139 508.943,82.4558, 506.7804,91.4111 M506.7804,91.4111 C501.2671,114.2417 485.9714,135.21, 493.8166,156.3024 M493.8166,156.3024 C502.3741,179.31 538.4656,202.4652, 556.6532,191.8243 M556.6532,191.8243 C566.3637,186.143 570.9706,170.8281, 571.5995,156.3024 M571.5995,156.3024 C572.6586,131.8438 562.4392,109.623, 571.5995,91.4111 M571.5995,91.4111 C588.4725,57.8655 671.0974,37.9217, 688.2746,65.4544 M688.2746,65.4544 C695.735,77.4125 690.8497,98.3263, 688.2746,117.3678 M688.2746,117.3678 C685.8725,135.1295 685.4806,151.262, 692.0444,165.6451 M692.0444,165.6451 C699.0823,181.0672 714.1171,194.4781, 732.906,197.6802 M732.906,197.6802 C762.97,202.804 802.6455,181.7903, 804.9493,156.3024 M804.9493,156.3024 C807.2251,131.1236 773.0301,101.5783, 779.0216,78.4324 M779.0216,78.4324 C785.912,51.8141 845.9515,33.6595, 869.7684,52.4758 M869.7684,52.4758 C880.1234,60.6566 883.6313,75.8262, 882.7325,91.4111 M882.7325,91.4111 C880.7227,126.2626 856.6765,163.1912, 869.7684,182.2591 M869.7684,182.2591 C884.564,203.8085 946.7931,202.5457, 973.4796,182.2591 M973.4796,182.2591 C1003.5352,159.4113 988.5074,112.4329, 973.4796,65.4544 " style="stroke-width:var(--lw-3);" />
        
        <line x1="2885.0001" y1="3360" x2="2885.0001" y2="3320" style="stroke-width:var(--lw-3);" />
        
        <line x1="2885.0001" y1="3320" x2="2085.0001" y2="3320" style="stroke-width:var(--lw-3);" />
        
        <line x1="2085.0001" y1="3320" x2="2085.0001" y2="3360" style="stroke-width:var(--lw-3);" />
        
        <line x1="4445.0001" y1="880" x2="4405.0001" y2="880" style="stroke-width:var(--lw-3);" />
        
        <line x1="4405.0001" y1="880" x2="4405.0001" y2="1680" style="stroke-width:var(--lw-3);" />
        
        <line x1="4405.0001" y1="1680" x2="4445.0001" y2="1680" style="stroke-width:var(--lw-3);" />
    </g>
</svg>