<svg xmlns="http://www.w3.org/2000/svg" width="6235mm" height="3690mm" viewBox="-15.9999 -3706.0 6267.0 3722.0" version="1.1" class="svg-drawing">
    <g transform="scale(1,-1)">
        
        <path d="M1534.9924,914.9315 L1535.0001,115.0001" style="stroke-width:var(--lw-1);stroke-dasharray:1rem" />
        
        <path d="M1940.0035,914.9297 L1940.0001,115" style="stroke-width:var(--lw-1);stroke-dasharray:1rem" />
        
        <path d="M6235.0001,1984.9999 L6235.0001,3390" style="stroke-width:var(--lw-1);stroke-dasharray:1rem" />
        
        <path d="M85.0001,0 L0.0001,0 L0.0001,1830" style="stroke-width:var(--lw-6);" />
        
        <path d="M0.0001,2730 L0.0001,2830 L1535.0001,2830 L1535.0001,2715" style="stroke-width:var(--lw-6);" />
        
        <path d="M1535.0001,115 L1535.0001,0 L985.0001,0" style="stroke-width:var(--lw-6);" />
        
        <path d="M3860.0001,120 L3860.0001,0 L3075.0001,0" style="stroke-width:var(--lw-6);" />
        
        <path d="M2175.0001,0 L1940.0001,0 L1940.0001,115" style="stroke-width:var(--lw-6);" />
        
        <path d="M1940.0001,2715 L1940.0001,3690 L2445.0001,3690" style="stroke-width:var(--lw-6);" />
        
        <path d="M3345.0001,3690 L6235.0001,3690 L6235.0001,3390" style="stroke-width:var(--lw-6);" />
        
        <path d="M6235.0001,1985 L6235.0001,1710 L3860.0001,1710 L3860.0001,920" style="stroke-width:var(--lw-6);" />
        
        <path d="M1940.0001,2715 L1535.0001,2715" style="stroke-width:var(--lw-6);" />
        
        <path d="M1940.0001,115 L1535.0001,115" style="stroke-width:var(--lw-6);" />
        
        <path d="M0.0001,1830 L0.0001,2730" style="stroke-width:var(--lw-1);stroke-dasharray:1rem" />
        
        <path d="M85.0001,0 L985.0001,0" style="stroke-width:var(--lw-1);stroke-dasharray:1rem" />
        
        <path d="M2175.0001,0 L3075.0001,0" style="stroke-width:var(--lw-1);stroke-dasharray:1rem" />
        
        <path d="M3860.0001,920 L3860.0001,120" style="stroke-width:var(--lw-1);stroke-dasharray:1rem" />
        
        <path d="M3345.0001,3690 L2445.0001,3690" style="stroke-width:var(--lw-1);stroke-dasharray:1rem" />
        
        <path d="M6235.0001,2575 L3860.0001,2575" style="stroke-width:var(--lw-4);" />
        
        <path d="M6235.0001,2825 L3610.0001,2825" style="stroke-width:var(--lw-4);" />
        
        <path d="M5360.0001,3545.8333 L5360.0001,1710" style="stroke-width:var(--lw-4);" />
        
        <path d="M5360.0001,2825 L6235.0001,3690" style="stroke-width:var(--lw-4);" />
        
        <path d="M5360.0001,2575 L6235.0001,1710" style="stroke-width:var(--lw-4);" />
        
        <path d="M5110.0001,2825 L5110.0001,3257.5" style="stroke-width:var(--lw-4);" />
        
        <path d="M5110.0001,3401.6667 L5110.0001,3690" style="stroke-width:var(--lw-4);" />
        
        <path d="M4860.0001,2825 L4860.0001,2969.1667" style="stroke-width:var(--lw-4);" />
        
        <path d="M4860.0001,3113.3333 L4860.0001,3690" style="stroke-width:var(--lw-4);" />
        
        <path d="M4610.0001,2825 L4610.0001,3690" style="stroke-width:var(--lw-4);" />
        
        <path d="M4360.0001,2825 L4360.0001,3690" style="stroke-width:var(--lw-4);" />
        
        <path d="M4110.0001,2825 L4110.0001,3690" style="stroke-width:var(--lw-4);" />
        
        <path d="M3860.0001,2825 L3860.0001,3690" style="stroke-width:var(--lw-4);" />
        
        <path d="M3610.0001,2825 L3610.0001,3690" style="stroke-width:var(--lw-4);" />
        
        <path d="M5360.0001,1710 L5360.0001,2575" style="stroke-width:var(--lw-4);" />
        
        <path d="M5110.0001,1710 L5110.0001,2575" style="stroke-width:var(--lw-4);" />
        
        <path d="M4860.0001,1710 L4860.0001,2575" style="stroke-width:var(--lw-4);" />
        
        <path d="M4610.0001,1710 L4610.0001,2575" style="stroke-width:var(--lw-4);" />
        
        <path d="M4360.0001,1710 L4360.0001,2575" style="stroke-width:var(--lw-4);" />
        
        <path d="M4110.0001,1710 L4110.0001,2575" style="stroke-width:var(--lw-4);" />
        
        <path d="M3860.0001,1710 L3860.0001,2575" style="stroke-width:var(--lw-4);" />
        
        <path d="M3610.0001,2825 L5360.0001,2825 L5360.0001,2575 L3860.0001,2575 L3860.0001,2825" style="stroke-width:var(--lw-4);" />
        
        <path d="M3880.0001,2805 L5340.0001,2805 L5340.0001,2595 L3880.0001,2595 Z" style="stroke-width:var(--lw-4);" />
        
        <path d="M3880.0001,2805 L3860.0001,2805" style="stroke-width:var(--lw-4);" />
        
        <path d="M1534.9967,1915 L1939.9967,1914.9983" style="stroke-width:var(--lw-3);" />
        
        <path d="M1535.0001,914.9315 L1940.0001,914.9297" style="stroke-width:var(--lw-3);" />
        
        <path d="M1535.0044,1915 L1535.0001,914.9315" style="stroke-width:var(--lw-3);" />
        
        <path d="M1940.0001,1914.9983 L1939.9958,914.9297" style="stroke-width:var(--lw-3);" />
        
        <path d="M1940.0001,1914.9983 L1535.0001,914.9315" style="stroke-width:var(--lw-3);" />
        
        <path d="M1535.0044,1915 L1939.9958,914.9297" style="stroke-width:var(--lw-3);" />
        
        <path d="M1534.989,2714.9297 L1534.9967,1914.9984" style="stroke-width:var(--lw-1);stroke-dasharray:1rem" />
        
        <path d="M1940.0001,2714.928 L1939.9967,1914.9983" style="stroke-width:var(--lw-1);stroke-dasharray:1rem" />
        
        <path d="M3610.0001,3257.5 L4985.0001,3257.5" style="stroke-width:var(--lw-3);" />
        
        <circle cx="3610.0001" cy="3257.5" r="19.7048" style="stroke-width:var(--lw-3);" />
        
        <path d="M4610.0001,2825 L5360.0001,3690" style="stroke-width:var(--lw-3);" />
        
        <path d="M5797.5001,2142.5 L3860.0001,2142.5" style="stroke-width:var(--lw-3);" />
        
        <path d="M3860.0001,2142.5 L3985.0001,2083.3429" style="stroke-width:var(--lw-3);" />
        
        <path d="M3860.0001,2142.5 L3985.0001,2201.6571" style="stroke-width:var(--lw-3);" />
        
        <path d="M5797.5001,3257.5 L5797.5001,2142.5" style="stroke-width:var(--lw-3);" />
        
        <path d="M5110.0001,3257.5 L5797.5001,3257.5" style="stroke-width:var(--lw-3);" />
        
        <path d="M4735.0001,2825 L5485.0001,3690" style="stroke-width:var(--lw-3);" />
    </g>
</svg>