<svg xmlns="http://www.w3.org/2000/svg" width="4294.8747mm" height="2970mm" viewBox="-16.0 -2986.0 4326.8747 3002.0" version="1.1" class="svg-drawing">
    <g transform="scale(1,-1)">
        
        <path d="M910,2969.8857 L3380,2970" style="stroke-width:var(--lw-1);stroke-dasharray:1rem" />
        
        <path d="M3380,2970 L4294.8747,2970 L4294.8747,0 L1422.5,0" style="stroke-width:var(--lw-6);" />
        
        <path d="M522.5,0 L0,0 L0,2970 L910,2970" style="stroke-width:var(--lw-6);" />
        
        <path d="M522.5,0 L1422.5,0" style="stroke-width:var(--lw-1);stroke-dasharray:1rem" />
        
        <line x1="2094.8747" y1="2335" x2="2094.8747" y2="635" style="stroke-width:var(--lw-3);" />
        
        <line x1="2094.8747" y1="635" x2="4294.8747" y2="635" style="stroke-width:var(--lw-3);" />
        
        <line x1="4294.8747" y1="2335" x2="2094.8747" y2="2335" style="stroke-width:var(--lw-3);" />
        
        <line x1="3854.8747" y1="1425" x2="3854.8747" y2="845" style="stroke-width:var(--lw-3);" />
        
        <line x1="3854.8747" y1="845" x2="3814.8747" y2="805" style="stroke-width:var(--lw-3);" />
        
        <line x1="3814.8747" y1="805" x2="3814.8747" y2="695" style="stroke-width:var(--lw-3);" />
        
        <line x1="3814.8747" y1="695" x2="4234.8747" y2="695" style="stroke-width:var(--lw-3);" />
        
        <line x1="4234.8747" y1="695" x2="4234.8747" y2="1425" style="stroke-width:var(--lw-3);" />
        
        <line x1="4234.8747" y1="1425" x2="3854.8747" y2="1425" style="stroke-width:var(--lw-3);" />
        
        <line x1="3854.8747" y1="1545" x2="3854.8747" y2="2125" style="stroke-width:var(--lw-3);" />
        
        <line x1="3854.8747" y1="2125" x2="3814.8747" y2="2165" style="stroke-width:var(--lw-3);" />
        
        <line x1="3814.8747" y1="2165" x2="3814.8747" y2="2275" style="stroke-width:var(--lw-3);" />
        
        <line x1="3814.8747" y1="2275" x2="4234.8747" y2="2275" style="stroke-width:var(--lw-3);" />
        
        <line x1="4234.8747" y1="2275" x2="4234.8747" y2="1545" style="stroke-width:var(--lw-3);" />
        
        <line x1="4234.8747" y1="1545" x2="3854.8747" y2="1545" style="stroke-width:var(--lw-3);" />
        
        <line x1="2124.8747" y1="2305" x2="2124.8747" y2="665" style="stroke-width:var(--lw-3);" />
        
        <line x1="2124.8747" y1="665" x2="3674.8747" y2="665" style="stroke-width:var(--lw-3);" />
        
        <line x1="3674.8747" y1="665" x2="3854.8747" y2="845" style="stroke-width:var(--lw-3);" />
        
        <line x1="3854.8747" y1="845" x2="3854.8747" y2="2125" style="stroke-width:var(--lw-3);" />
        
        <line x1="3854.8747" y1="2125" x2="3674.8747" y2="2305" style="stroke-width:var(--lw-3);" />
        
        <line x1="3674.8747" y1="2305" x2="2124.8747" y2="2305" style="stroke-width:var(--lw-3);" />
        
        <line x1="3674.8747" y1="665" x2="3674.8747" y2="845" style="stroke-width:var(--lw-3);" />
        
        <line x1="3854.8747" y1="845" x2="3674.8747" y2="845" style="stroke-width:var(--lw-3);" />
        
        <line x1="3674.8747" y1="2305" x2="3674.8747" y2="2125" style="stroke-width:var(--lw-3);" />
        
        <line x1="3854.8747" y1="2125" x2="3674.8747" y2="2125" style="stroke-width:var(--lw-3);" />
        
        <line x1="3894.8747" y1="2335" x2="4294.8747" y2="2335" style="stroke-width:var(--lw-3);" />
        
        <path d="M500,2970 L500,0" style="stroke-width:var(--lw-3);" />
        
        <path d="M0,2185.3023 L500,2185.3023" style="stroke-width:var(--lw-3);" />
        
        <path d="M0,784.6976 L500,784.6976" style="stroke-width:var(--lw-3);" />
        
        <path d="M0,2970 L500,2185.3023" style="stroke-width:var(--lw-3);" />
        
        <path d="M500,2970 L0,2185.3023" style="stroke-width:var(--lw-3);" />
        
        <path d="M0,784.6976 L500,0" style="stroke-width:var(--lw-3);" />
        
        <path d="M500,784.6976 L0,0" style="stroke-width:var(--lw-3);" />
        
        <path d="M1145,2969.9428 L3145,2969.9428 L3145,2879.9428 L1145,2879.9428 Z" style="stroke-width:var(--lw-3);" />
        
        <path d="M3794.8747,2835 L4294.8747,2835 L4294.8747,2335 L3794.8747,2335 Z" style="stroke-width:var(--lw-3);" />
        
        <path d="M3794.8747,635 L4294.8747,635 L4294.8747,135 L3794.8747,135 Z" style="stroke-width:var(--lw-3);" />
        
        <path d="M300,2185.3023 L300,784.6976" style="stroke-width:var(--lw-1);stroke-dasharray:1rem" />
        
        <path d="M500,1219.7422 A300,300 0 1,1 500,1750.2578" style="stroke-width:var(--lw-3);" />
        
        <path d="M33.0901,2012.1047 L82.7782,2012.1047 L82.7782,957.8953 L33.0901,957.8953 Z" style="stroke-width:var(--lw-3);" />
        
        <path d="M1694.8747,2085 L2094.8747,2085 L2094.8747,885 L1694.8747,885 Z" style="stroke-width:var(--lw-3);" />
        
        <path d="M3774.8184,2856.6525 C3766.3371,2863.3251 3758.4033,2872.6236, 3753.9522,2882.6268 M3753.9522,2882.6268 C3744.7938,2903.2097 3750.3806,2926.7765, 3736.982,2933.5945 M3736.982,2933.5945 C3723.5954,2940.4065 3691.2571,2930.4995, 3686.0711,2916.6053 M3686.0711,2916.6053 C3681.6517,2904.7648 3696.9509,2890.0288, 3703.0413,2874.1325 M3703.0413,2874.1325 C3706.4348,2865.2753 3706.9694,2856.058, 3703.0413,2848.6484 M3703.0413,2848.6484 C3695.9971,2835.3605 3674.6011,2827.886, 3660.6156,2831.6592 M3660.6156,2831.6592 C3640.3271,2837.1327 3635.6337,2866.2765, 3637.8478,2893.9245 M3637.8478,2893.9245 C3638.9037,2907.1104 3641.5307,2919.9561, 3635.1416,2925.4272 M3635.1416,2925.4272 C3627.5549,2931.9238 3607.2557,2928.0224, 3598.1086,2919.2485 M3598.1086,2919.2485 C3576.7559,2898.7667 3616.1762,2851.7326, 3601.2195,2831.6592 M3601.2195,2831.6592 C3588.1072,2814.0609 3533.2013,2817.1843, 3524.8533,2840.154 M3524.8533,2840.154 C3523.0075,2845.2328 3523.4378,2851.2818, 3524.8533,2857.1432 M3524.8533,2857.1432 C3528.4619,2872.0864 3538.4733,2885.8106, 3533.3384,2899.6161 M3533.3384,2899.6161 C3527.7373,2914.675 3504.1146,2929.8307, 3492.2104,2922.8659 M3492.2104,2922.8659 C3485.8547,2919.1474 3482.8394,2909.1234, 3482.4277,2899.6161 M3482.4277,2899.6161 C3481.7345,2883.6074 3488.4233,2869.0633, 3482.4277,2857.1432 M3482.4277,2857.1432 C3471.384,2835.1869 3417.3041,2822.1332, 3406.0613,2840.154 M3406.0613,2840.154 C3401.1782,2847.9808 3404.3758,2861.6694, 3406.0613,2874.1325 M3406.0613,2874.1325 C3407.6334,2885.7579 3407.89,2896.317, 3403.5938,2905.7311 M3403.5938,2905.7311 C3398.9874,2915.8252 3389.1467,2924.6029, 3376.8489,2926.6988 M3376.8489,2926.6988 C3357.1714,2930.0524 3331.2029,2916.2985, 3329.695,2899.6161 M3329.695,2899.6161 C3328.2054,2883.1359 3350.5868,2863.7979, 3346.6652,2848.6484 M3346.6652,2848.6484 C3342.1553,2831.2261 3302.8581,2819.3435, 3287.2694,2831.6592 M3287.2694,2831.6592 C3280.4918,2837.0137 3278.1958,2846.9426, 3278.7841,2857.1432 M3278.7841,2857.1432 C3280.0996,2879.9543 3295.8383,2904.1249, 3287.2694,2916.6053 M3287.2694,2916.6053 C3277.5854,2930.7098 3236.855,2929.8834, 3219.3881,2916.6053 M3219.3881,2916.6053 C3199.716,2901.6509 3209.552,2870.9024, 3219.3881,2840.154 " style="stroke-width:var(--lw-3);" />
        
        <path d="M515.1817,2856.6525 C523.663,2863.3251 531.5968,2872.6236, 536.0478,2882.6268 M536.0478,2882.6268 C545.2063,2903.2097 539.6195,2926.7765, 553.0181,2933.5945 M553.0181,2933.5945 C566.4047,2940.4065 598.743,2930.4995, 603.929,2916.6053 M603.929,2916.6053 C608.3484,2904.7648 593.0492,2890.0288, 586.9587,2874.1325 M586.9587,2874.1325 C583.5653,2865.2753 583.0307,2856.058, 586.9587,2848.6484 M586.9587,2848.6484 C594.003,2835.3605 615.399,2827.886, 629.3845,2831.6592 M629.3845,2831.6592 C649.673,2837.1327 654.3664,2866.2765, 652.1523,2893.9245 M652.1523,2893.9245 C651.0964,2907.1104 648.4693,2919.9561, 654.8585,2925.4272 M654.8585,2925.4272 C662.4452,2931.9238 682.7444,2928.0224, 691.8914,2919.2485 M691.8914,2919.2485 C713.2442,2898.7667 673.8239,2851.7326, 688.7805,2831.6592 M688.7805,2831.6592 C701.8929,2814.0609 756.7988,2817.1843, 765.1468,2840.154 M765.1468,2840.154 C766.9926,2845.2328 766.5623,2851.2818, 765.1468,2857.1432 M765.1468,2857.1432 C761.5382,2872.0864 751.5268,2885.8106, 756.6617,2899.6161 M756.6617,2899.6161 C762.2628,2914.675 785.8855,2929.8307, 797.7897,2922.8659 M797.7897,2922.8659 C804.1454,2919.1474 807.1607,2909.1234, 807.5724,2899.6161 M807.5724,2899.6161 C808.2655,2883.6074 801.5767,2869.0633, 807.5724,2857.1432 M807.5724,2857.1432 C818.6161,2835.1869 872.696,2822.1332, 883.9388,2840.154 M883.9388,2840.154 C888.8218,2847.9808 885.6243,2861.6694, 883.9388,2874.1325 M883.9388,2874.1325 C882.3666,2885.7579 882.1101,2896.317, 886.4062,2905.7311 M886.4062,2905.7311 C891.0127,2915.8252 900.8534,2924.6029, 913.1511,2926.6988 M913.1511,2926.6988 C932.8287,2930.0524 958.7972,2916.2985, 960.3051,2899.6161 M960.3051,2899.6161 C961.7947,2883.1359 939.4133,2863.7979, 943.3348,2848.6484 M943.3348,2848.6484 C947.8448,2831.2261 987.1419,2819.3435, 1002.7306,2831.6592 M1002.7306,2831.6592 C1009.5083,2837.0137 1011.8042,2846.9426, 1011.216,2857.1432 M1011.216,2857.1432 C1009.9005,2879.9543 994.1617,2904.1249, 1002.7306,2916.6053 M1002.7306,2916.6053 C1012.4147,2930.7098 1053.1451,2929.8834, 1070.612,2916.6053 M1070.612,2916.6053 C1090.2841,2901.6509 1080.448,2870.9024, 1070.612,2840.154 " style="stroke-width:var(--lw-3);" />
    </g>
</svg>